<svg width="75" height="75" viewBox="0 0 75 75" fill="none" xmlns="http://www.w3.org/2000/svg">
<path d="M69.8053 13.0034L34.2789 0.465423C33.0865 0.0422441 31.8064 -0.0952062 30.5475 0.0647544C29.2885 0.224715 28.088 0.677357 27.0479 1.38421C26.0078 2.09107 25.1589 3.03124 24.5733 4.12482C23.9876 5.2184 23.6826 6.43307 23.6842 7.66559L23.6842 31.1514C21.2955 29.7698 18.5699 29.033 15.7895 29.017C7.08158 29.017 0 35.8915 0 44.3447C0 52.7979 7.08158 59.6723 15.7895 59.6723C24.4974 59.6723 31.5789 52.7979 31.5789 44.3447L31.5789 7.66559L67.1053 20.2036L67.1053 46.4752C64.7155 45.0965 61.9904 44.3611 59.2105 44.3447C50.5026 44.3447 43.4211 51.2191 43.4211 59.6723C43.4211 68.1255 50.5026 75 59.2105 75C67.9184 75 75 68.1255 75 59.6723L75 20.2036C75 16.9925 72.9118 14.0955 69.8053 13.0034ZM15.7895 52.0085C11.4355 52.0085 7.89474 48.5713 7.89474 44.3447C7.89474 40.1181 11.4355 36.6809 15.7895 36.6809C20.1434 36.6809 23.6842 40.1181 23.6842 44.3447C23.6842 48.5713 20.1434 52.0085 15.7895 52.0085ZM59.2105 67.3362C54.8566 67.3362 51.3158 63.8989 51.3158 59.6723C51.3158 55.4457 54.8566 52.0085 59.2105 52.0085C63.5645 52.0085 67.1053 55.4457 67.1053 59.6723C67.1053 63.8989 63.5645 67.3362 59.2105 67.3362Z" fill="#092447"/>
</svg>
