<svg width="36" height="39" viewBox="0 0 36 39" fill="none" xmlns="http://www.w3.org/2000/svg">
<path fill-rule="evenodd" clip-rule="evenodd" d="M20 32C26.6274 32 32 26.6274 32 20C32 13.3726 26.6274 8 20 8C13.3726 8 8 13.3726 8 20C8 26.6274 13.3726 32 20 32ZM20 36C28.8365 36 36 28.8365 36 20C36 11.1635 28.8365 4 20 4C11.1635 4 4 11.1635 4 20C4 28.8365 11.1635 36 20 36ZM12 38.3358V1.66418C4.93638 4.7504 0 11.7987 0 20C0 28.2013 4.93638 35.2496 12 38.3358ZM19.9852 5.3644e-06H20.0148C20.0098 1.78834e-06 20.0049 0 20 0C19.9951 0 19.9902 1.78834e-06 19.9852 5.3644e-06Z" fill="url(#paint0_linear_959_11103)"/>
<defs>
<linearGradient id="paint0_linear_959_11103" x1="-9.72886e-07" y1="38.5" x2="36" y2="5.93492e-07" gradientUnits="userSpaceOnUse">
<stop stop-color="#CA68CD"/>
<stop offset="1" stop-color="#30D1D1"/>
</linearGradient>
</defs>
</svg>
