<svg width="22" height="22" viewBox="0 0 22 22" fill="none" xmlns="http://www.w3.org/2000/svg">
    <circle cx="11.5" cy="6.5" r="4.5" stroke="#1D2B49" stroke-width="2.5" />
    <path
        d="M2 20.3915L0.790081 20.0775L0.384192 21.6415H2V20.3915ZM20.3528 20.3915V21.6415H21.9686L21.5627 20.0775L20.3528 20.3915ZM2 21.6415H20.3528V19.1415H2V21.6415ZM3.20992 20.7055C4.09606 17.291 7.30721 14.7207 11.1764 14.7207V12.2207C6.19092 12.2207 1.96792 15.539 0.790081 20.0775L3.20992 20.7055ZM11.1764 14.7207C15.0456 14.7207 18.2568 17.291 19.1429 20.7055L21.5627 20.0775C20.3849 15.539 16.1619 12.2207 11.1764 12.2207V14.7207Z"
        fill="#1D2B49" />
</svg>