<svg width="26" height="22" viewBox="0 0 26 22" fill="none" xmlns="http://www.w3.org/2000/svg">
    <path
        d="M25 20.2308C25 20.4756 24.9027 20.7104 24.7296 20.8835C24.5565 21.0566 24.3217 21.1539 24.0769 21.1539H1.92308C1.67826 21.1539 1.44347 21.0566 1.27036 20.8835C1.09725 20.7104 1 20.4756 1 20.2308V1.76927C1 1.52445 1.09725 1.28967 1.27036 1.11655C1.44347 0.943444 1.67826 0.846191 1.92308 0.846191C2.16789 0.846191 2.40268 0.943444 2.57579 1.11655C2.7489 1.28967 2.84615 1.52445 2.84615 1.76927V14.3116L8.65 8.49619C8.82501 8.32285 9.06137 8.22561 9.30769 8.22561C9.55401 8.22561 9.79037 8.32285 9.96538 8.49619L13 11.5423L20.0038 4.5385H17.6154C17.3706 4.5385 17.1358 4.44125 16.9627 4.26814C16.7896 4.09503 16.6923 3.86024 16.6923 3.61542C16.6923 3.37061 16.7896 3.13582 16.9627 2.96271C17.1358 2.7896 17.3706 2.69235 17.6154 2.69235H22.2308C22.4756 2.69235 22.7104 2.7896 22.8835 2.96271C23.0566 3.13582 23.1538 3.37061 23.1538 3.61542V8.23081C23.1538 8.47562 23.0566 8.71041 22.8835 8.88352C22.7104 9.05663 22.4756 9.15388 22.2308 9.15388C21.986 9.15388 21.7512 9.05663 21.5781 8.88352C21.4049 8.71041 21.3077 8.47562 21.3077 8.23081V5.84235L13.6577 13.5039C13.4827 13.6772 13.2463 13.7745 13 13.7745C12.7537 13.7745 12.5173 13.6772 12.3423 13.5039L9.30769 10.4577L2.84615 16.9193V19.3077H24.0769C24.3217 19.3077 24.5565 19.405 24.7296 19.5781C24.9027 19.7512 25 19.986 25 20.2308Z"
        fill="#1D2B49" stroke="#1D2B49" stroke-width="0.75" />
</svg>