<svg width="18" height="25" viewBox="0 0 18 25" fill="none" xmlns="http://www.w3.org/2000/svg">
<path d="M17 24L9 19L1 24V2C1 1.73478 1.10536 1.48043 1.29289 1.29289C1.48043 1.10536 1.73478 1 2 1H16C16.2652 1 16.5196 1.10536 16.7071 1.29289C16.8946 1.48043 17 1.73478 17 2V24Z" stroke="#FFCAC2" stroke-linecap="round" stroke-linejoin="round"/>
<path d="M17 24L9 19L1 24V2C1 1.73478 1.10536 1.48043 1.29289 1.29289C1.48043 1.10536 1.73478 1 2 1H16C16.2652 1 16.5196 1.10536 16.7071 1.29289C16.8946 1.48043 17 1.73478 17 2V24Z" stroke="#F1D8FF" stroke-linecap="round" stroke-linejoin="round"/>
<path d="M17 24L9 19L1 24V2C1 1.73478 1.10536 1.48043 1.29289 1.29289C1.48043 1.10536 1.73478 1 2 1H16C16.2652 1 16.5196 1.10536 16.7071 1.29289C16.8946 1.48043 17 1.73478 17 2V24Z" stroke="#C7B3FF" stroke-linecap="round" stroke-linejoin="round"/>
</svg>
