<svg width="20" height="26" viewBox="0 0 20 26" fill="none" xmlns="http://www.w3.org/2000/svg">
    <path
        d="M14.9278 5.26719C13.6035 3.73866 12.1164 2.35926 10.4927 1.1535C10.3478 1.05354 10.176 1 9.99994 1C9.82391 1 9.65204 1.05354 9.50716 1.1535C7.88351 2.35926 6.39635 3.73866 5.07209 5.26719C2.1261 8.64169 0.572754 12.209 0.572754 15.5728C0.572754 18.0731 1.56597 20.4709 3.33391 22.2388C5.10185 24.0068 7.49969 25 9.99994 25C12.5002 25 14.898 24.0068 16.666 22.2388C18.4339 20.4709 19.4271 18.0731 19.4271 15.5728C19.4271 12.209 17.8738 8.64169 14.9278 5.26719ZM9.99994 23.286C7.95515 23.2831 5.99493 22.4696 4.54905 21.0237C3.10317 19.5778 2.28962 17.6176 2.28679 15.5728C2.28679 9.44514 8.23234 4.32447 9.99994 2.93181C11.7675 4.32447 17.7131 9.44514 17.7131 15.5728C17.7103 17.6176 16.8967 19.5778 15.4508 21.0237C14.0049 22.4696 12.0447 23.2831 9.99994 23.286ZM15.9134 16.5798C15.7056 17.8045 15.1214 18.934 14.2421 19.8114C13.3628 20.6887 12.232 21.2704 11.0069 21.4755H10.8677C10.6517 21.4766 10.4434 21.3961 10.2842 21.2502C10.125 21.1042 10.0269 20.9036 10.0093 20.6883C9.99166 20.4731 10.056 20.2592 10.1893 20.0893C10.3226 19.9195 10.5152 19.8062 10.7284 19.7722C11.6016 19.626 12.4074 19.211 13.0335 18.5849C13.6595 17.9589 14.0746 17.1531 14.2207 16.2799C14.2401 16.1686 14.2813 16.0622 14.342 15.9669C14.4026 15.8716 14.4815 15.7892 14.5741 15.7245C14.6667 15.6598 14.7711 15.614 14.8815 15.5898C14.9918 15.5656 15.1059 15.5635 15.217 15.5835C15.329 15.6016 15.4361 15.6419 15.5322 15.7021C15.6282 15.7624 15.7112 15.8413 15.7761 15.9342C15.8411 16.0272 15.8867 16.1322 15.9103 16.2431C15.9338 16.354 15.9349 16.4685 15.9134 16.5798Z"
        fill="#fff" stroke="#fff" stroke-width="0.75" />
</svg>