<svg width="33" height="20" viewBox="0 0 33 20" fill="none" xmlns="http://www.w3.org/2000/svg">
    <path
        d="M26.018 2.97299L25.9021 2.67719L25.5912 2.74289L25.1673 2.83249L25.1673 2.8325C23.3307 3.22094 21.6089 3.99808 20.1131 5.08412C19.3881 3.49747 18.2986 2.08589 16.8997 0.965875C16.8997 0.965874 16.8997 0.965873 16.8997 0.965872L16.5767 0.707273L16.3424 0.519603L16.108 0.707274L15.785 0.965864C15.785 0.965868 15.785 0.965872 15.785 0.965876C14.3861 2.0859 13.2965 3.49762 12.5714 5.08444C11.0758 3.99838 9.35398 3.22094 7.5174 2.8325L7.51736 2.83249L7.09346 2.74289L6.78264 2.67719L6.66675 2.97299L6.52419 3.33688C6.52418 3.33689 6.52418 3.33691 6.52417 3.33692C5.73538 5.34958 5.64515 7.55733 6.21437 9.70085C5.79457 9.6614 5.37353 9.64102 4.95301 9.64102C3.68338 9.64102 2.45491 9.81892 1.30218 10.1717C1.30217 10.1717 1.30215 10.1717 1.30214 10.1717L0.890311 10.2976L0.543165 10.4038L0.638031 10.7542L0.739434 11.1288L0.739447 11.1288C1.5123 13.982 3.75731 16.4636 6.85818 17.9649C8.76301 18.8871 10.8718 19.3749 12.9585 19.375C14.1309 19.375 15.2678 19.2214 16.3424 18.9205C17.4169 19.2214 18.5534 19.375 19.7262 19.375C21.8128 19.375 23.9216 18.8872 25.8266 17.9649C28.9274 16.4636 31.1724 13.982 31.9453 11.1288L31.9453 11.1288L32.0467 10.7542L32.1415 10.4038L31.7944 10.2976L31.3826 10.1717C30.2298 9.81893 29.0013 9.64102 27.7317 9.64102C27.3112 9.64102 26.8901 9.6614 26.4703 9.70085C27.0396 7.55739 26.9493 5.34965 26.1605 3.33692C26.1605 3.33691 26.1605 3.3369 26.1605 3.33688L26.018 2.97299ZM21.6312 11.0512C21.4339 11.1468 21.2403 11.2463 21.0505 11.3496C21.1134 10.8606 21.1455 10.364 21.1455 9.86216C21.1455 8.775 20.9949 7.71189 20.7066 6.69761C21.9081 5.73105 23.2976 5.00532 24.7892 4.58077C25.2943 6.30991 25.225 8.18794 24.5973 10.0054C23.5774 10.2423 22.5792 10.5923 21.6312 11.0512ZM11.5389 9.86216C11.5389 10.3639 11.571 10.8606 11.6339 11.3496C11.4441 11.2463 11.2505 11.1468 11.0533 11.0513L11.0532 11.0512C10.1051 10.5923 9.10702 10.2423 8.08709 10.0054C7.4595 8.18788 7.39018 6.30991 7.89526 4.58078C9.38697 5.0054 10.7764 5.73107 11.9779 6.69764C11.6896 7.71187 11.5389 8.77498 11.5389 9.86216ZM7.64709 16.5443C5.22649 15.3723 3.45306 13.548 2.64552 11.4816C3.38388 11.3221 4.15664 11.2411 4.95282 11.2411C5.63614 11.2411 6.3236 11.3019 7.00448 11.4209L7.00513 11.421C7.00517 11.421 7.00521 11.421 7.00525 11.421L7.00988 11.4219L7.0182 11.4235L7.0182 11.4235L7.0206 11.4239C7.11119 11.4399 7.20172 11.4569 7.2923 11.475C7.35953 11.4885 7.42708 11.5032 7.49822 11.5187L7.49844 11.5187C7.50975 11.5212 7.52021 11.5234 7.53024 11.5256C7.54835 11.5295 7.56506 11.5331 7.58283 11.537C7.6626 11.5551 7.74218 11.5739 7.82159 11.5936L7.82181 11.5936L7.85874 11.6027L7.86009 11.6031C7.94771 11.6249 8.03488 11.6476 8.12154 11.6711C8.85659 11.8712 9.57563 12.1386 10.2641 12.4719C12.6847 13.6439 14.4581 15.4682 15.2659 17.5345C14.5275 17.6939 13.7549 17.7749 12.959 17.7749C11.1485 17.7748 9.31061 17.3496 7.64709 16.5443ZM24.8249 11.6027L24.825 11.6027L24.8614 11.5938L24.8625 11.5935C24.9421 11.5738 25.0222 11.5549 25.1025 11.5367L25.0197 11.171L25.1018 11.5369C25.1185 11.5331 25.133 11.53 25.149 11.5266C25.1602 11.5242 25.1722 11.5216 25.1862 11.5185L25.1862 11.5185C25.257 11.503 25.3248 11.4883 25.3921 11.4748L25.3185 11.1071L25.3916 11.4749C25.4824 11.4569 25.5731 11.4398 25.6637 11.4238L25.6648 11.4236L25.6766 11.4214L25.6799 11.4208C25.6804 11.4207 25.6809 11.4206 25.6813 11.4205C26.3618 11.3018 27.0488 11.241 27.7316 11.241C28.5278 11.241 29.3005 11.322 30.0389 11.4815C29.2314 13.548 27.458 15.3724 25.0374 16.5444C23.3737 17.3497 21.5364 17.775 19.7261 17.775C18.9299 17.775 18.1571 17.694 17.4187 17.5345C18.2263 15.4681 19.9998 13.6437 22.4204 12.4718L22.257 12.1343L22.4204 12.4718C23.1088 12.1386 23.8279 11.8712 24.5628 11.671C24.6496 11.6474 24.737 11.6248 24.8249 11.6027ZM16.3423 2.6633C18.3142 4.5034 19.4335 7.08596 19.4335 9.86207C19.4335 10.8405 19.2938 11.7946 19.0275 12.7007C17.9071 13.6129 16.9935 14.6829 16.3423 15.8571C15.6911 14.683 14.7776 13.6129 13.6571 12.7007C13.3908 11.7947 13.2512 10.8406 13.2512 9.86216C13.2511 7.08596 14.3703 4.50347 16.3423 2.6633Z"
        fill="#C7B3FF" stroke="#C7B3FF" stroke-width="0.75" />
</svg>