<svg width="30" height="20" viewBox="0 0 30 20" fill="none" xmlns="http://www.w3.org/2000/svg">
<path d="M23.0888 3.05749L23.0888 3.05748L23.0979 3.05536C23.3893 2.98761 23.6852 3.14927 23.7855 3.43109M23.0888 3.05749L1.32673 10.4191L1.31785 10.4221C1.03457 10.5174 0.871628 10.814 0.943065 11.1042L0.943069 11.1042C1.62914 13.89 3.62961 16.3367 6.42239 17.8239C8.13627 18.7365 10.0344 19.2195 11.9122 19.2196C12.8884 19.2196 13.8361 19.0894 14.7365 18.8346C14.9087 18.7858 15.0913 18.7858 15.2635 18.8346C16.1638 19.0894 17.1113 19.2196 18.0878 19.2196C19.9655 19.2196 21.8636 18.7366 23.5777 17.8239C26.3704 16.3367 28.3709 13.89 29.0569 11.1042L29.0569 11.1042C29.1284 10.814 28.9654 10.5174 28.6821 10.4221L28.6733 10.4191C27.6391 10.0711 26.5353 9.89499 25.3929 9.89499L25.3215 9.89523C24.6862 9.89948 24.1622 9.29822 24.2573 8.67196C24.5281 6.88787 24.3769 5.0907 23.7855 3.43109M23.0888 3.05749C21.7611 3.36633 20.5005 3.92358 19.3591 4.68777C18.8561 5.02452 18.1334 4.83801 17.8536 4.30007C17.2312 3.1031 16.4038 2.03112 15.3964 1.14403C15.1698 0.944451 14.8302 0.944449 14.6036 1.14402C13.5962 2.03112 12.7687 3.10321 12.1462 4.30031C11.8664 4.83828 11.1437 5.02479 10.6407 4.688C9.49939 3.92374 8.23885 3.36632 6.91124 3.05749L6.91122 3.05748M23.0888 3.05749L6.91122 3.05748M23.7855 3.43109L23.6405 3.48274L23.7855 3.43108C23.7855 3.43108 23.7855 3.43108 23.7855 3.43109ZM6.91122 3.05748L6.90208 3.05536M6.91122 3.05748L6.90208 3.05536M6.51012 11.2395L6.50897 11.2393C5.87801 11.118 5.24072 11.0561 4.60697 11.0561C4.08038 11.0561 3.56435 11.0981 3.06261 11.1813C2.61111 11.2563 2.35688 11.7214 2.53879 12.1396C3.37103 14.0527 4.93629 15.7109 6.98874 16.8039C8.53093 17.625 10.2342 18.0585 11.9127 18.0585C12.439 18.0585 12.9548 18.0165 13.4565 17.9333C13.908 17.8584 14.1623 17.3931 13.9803 16.9749C13.148 15.062 11.5827 13.4038 9.53036 12.3109C8.89172 11.9709 8.22519 11.6983 7.54419 11.4944C7.46379 11.4703 7.38303 11.4473 7.30198 11.425L7.30138 11.4249L7.26664 11.4154L7.26654 11.4154C7.1928 11.3953 7.1189 11.3761 7.04482 11.3577C7.04478 11.3577 7.04473 11.3577 7.04469 11.3576L6.51012 11.2395ZM6.51012 11.2395L6.51015 11.2395C6.51021 11.2395 6.51043 11.2396 6.51084 11.2396L6.51319 11.2401L6.52285 11.2422L6.52392 11.2424C6.60805 11.2587 6.69205 11.2761 6.77604 11.2945L6.80903 11.1442L6.51012 11.2395ZM22.6926 11.2668L22.6573 11.2763C22.5752 11.299 22.4932 11.3223 22.4114 11.3468L22.4555 11.4943C21.7746 11.6982 21.108 11.9708 20.4695 12.3108C18.417 13.4037 16.8517 15.062 16.0194 16.9751C15.8375 17.3932 16.0917 17.8583 16.5432 17.9333C17.045 18.0166 17.5611 18.0586 18.0877 18.0586C19.766 18.0586 21.4687 17.6251 23.0111 16.804C25.0635 15.711 26.6287 14.0527 27.461 12.1395C27.6429 11.7214 27.3886 11.2562 26.9371 11.1813C26.4354 11.098 25.9194 11.056 25.3928 11.056C24.7592 11.056 24.1222 11.118 23.4914 11.2391C23.4912 11.2391 23.491 11.2392 23.4907 11.2392L23.4853 11.2403L23.4761 11.2422L23.4756 11.2423C23.3916 11.2586 23.3077 11.276 23.2237 11.2944C23.1607 11.3083 23.0974 11.3234 23.033 11.3389L22.997 11.1892L23.033 11.3389C23.0216 11.3416 23.0111 11.3441 23.001 11.3465C22.9855 11.3502 22.9708 11.3536 22.955 11.3575C22.8808 11.376 22.8067 11.3953 22.733 11.4153L22.7325 11.4155L22.6982 11.4247L22.6982 11.4247L22.6926 11.2668ZM22.6926 11.2668C22.7676 11.2464 22.8428 11.2269 22.9181 11.2081L22.6926 11.2668ZM6.90208 3.05536C6.61069 2.98761 6.31485 3.14926 6.21445 3.43107M6.90208 3.05536L6.21445 3.43107M6.21445 3.43107C5.6231 5.09064 5.47187 6.88782 5.74274 8.67198M6.21445 3.43107L5.74274 8.67198M5.74274 8.67198C5.83782 9.29823 5.31383 9.89948 4.67849 9.89523M5.74274 8.67198L4.67849 9.89523M4.67849 9.89523L4.60715 9.89499M4.67849 9.89523L4.60715 9.89499M4.60715 9.89499C3.46467 9.89499 2.36092 10.0711 1.32675 10.4191L4.60715 9.89499ZM18.7379 6.54378L18.5968 6.57966C18.6324 6.54688 18.6681 6.51434 18.7041 6.48206C18.7196 6.49921 18.7316 6.5204 18.7383 6.54509C18.7381 6.54465 18.738 6.54421 18.7379 6.54378ZM19.1947 9.89449C19.1947 8.7727 19.0465 7.67719 18.7633 6.63595C19.7446 5.74496 20.8651 5.04692 22.069 4.5846C22.4854 4.4247 22.9356 4.67197 23.0217 5.10802C23.3206 6.62235 23.2448 8.22447 22.8066 9.7876C22.7299 10.0612 22.5008 10.2702 22.212 10.3537C21.4191 10.583 20.6438 10.8963 19.9028 11.2908C19.7438 11.3755 19.553 11.3539 19.3993 11.2541C19.2456 11.1544 19.1485 10.9893 19.1616 10.8098C19.1835 10.507 19.1947 10.2018 19.1947 9.89449ZM10.0969 11.2908L10.0969 11.2908C9.35591 10.8963 8.58064 10.583 7.78775 10.3537C7.49897 10.2702 7.26985 10.0612 7.19316 9.78756C6.75498 8.22442 6.6792 6.62236 6.97815 5.10807C7.06424 4.672 7.51443 4.42473 7.93084 4.58465C8.9799 4.98753 9.96561 5.56933 10.851 6.30187C11.0889 6.49868 11.1818 6.82643 11.1097 7.14547C10.9093 8.03233 10.8051 8.95417 10.8051 9.89449C10.8051 10.2017 10.8162 10.507 10.8382 10.8098C10.8512 10.9893 10.7542 11.1544 10.6005 11.2542C10.4467 11.3539 10.256 11.3756 10.0969 11.2908ZM14.4592 2.95905C14.7459 2.62375 15.254 2.62374 15.5407 2.95904C17.1205 4.80663 18.0089 7.26615 18.0089 9.89441C18.0089 10.8375 17.894 11.7588 17.6742 12.6382C17.6353 12.7936 17.5457 12.935 17.4219 13.0496C16.92 13.5146 16.4675 14.0183 16.0706 14.5537C15.8415 14.8628 15.4298 15.029 15 15.029C14.5702 15.0291 14.1584 14.8628 13.9293 14.5537C13.5324 14.0183 13.0799 13.5146 12.578 13.0496C12.4542 12.935 12.3646 12.7936 12.3257 12.6382C12.1059 11.7589 11.991 10.8375 11.991 9.89449C11.9909 7.26616 12.8794 4.80669 14.4592 2.95905Z" fill="#FFCAC2"/>
<path d="M23.0888 3.05749L23.0888 3.05748L23.0979 3.05536C23.3893 2.98761 23.6852 3.14927 23.7855 3.43109M23.0888 3.05749L1.32673 10.4191L1.31785 10.4221C1.03457 10.5174 0.871628 10.814 0.943065 11.1042L0.943069 11.1042C1.62914 13.89 3.62961 16.3367 6.42239 17.8239C8.13627 18.7365 10.0344 19.2195 11.9122 19.2196C12.8884 19.2196 13.8361 19.0894 14.7365 18.8346C14.9087 18.7858 15.0913 18.7858 15.2635 18.8346C16.1638 19.0894 17.1113 19.2196 18.0878 19.2196C19.9655 19.2196 21.8636 18.7366 23.5777 17.8239C26.3704 16.3367 28.3709 13.89 29.0569 11.1042L29.0569 11.1042C29.1284 10.814 28.9654 10.5174 28.6821 10.4221L28.6733 10.4191C27.6391 10.0711 26.5353 9.89499 25.3929 9.89499L25.3215 9.89523C24.6862 9.89948 24.1622 9.29822 24.2573 8.67196C24.5281 6.88787 24.3769 5.0907 23.7855 3.43109M23.0888 3.05749C21.7611 3.36633 20.5005 3.92358 19.3591 4.68777C18.8561 5.02452 18.1334 4.83801 17.8536 4.30007C17.2312 3.1031 16.4038 2.03112 15.3964 1.14403C15.1698 0.944451 14.8302 0.944449 14.6036 1.14402C13.5962 2.03112 12.7687 3.10321 12.1462 4.30031C11.8664 4.83828 11.1437 5.02479 10.6407 4.688C9.49939 3.92374 8.23885 3.36632 6.91124 3.05749L6.91122 3.05748M23.0888 3.05749L6.91122 3.05748M23.7855 3.43109L23.6405 3.48274L23.7855 3.43108C23.7855 3.43108 23.7855 3.43108 23.7855 3.43109ZM6.91122 3.05748L6.90208 3.05536M6.91122 3.05748L6.90208 3.05536M6.51012 11.2395L6.50897 11.2393C5.87801 11.118 5.24072 11.0561 4.60697 11.0561C4.08038 11.0561 3.56435 11.0981 3.06261 11.1813C2.61111 11.2563 2.35688 11.7214 2.53879 12.1396C3.37103 14.0527 4.93629 15.7109 6.98874 16.8039C8.53093 17.625 10.2342 18.0585 11.9127 18.0585C12.439 18.0585 12.9548 18.0165 13.4565 17.9333C13.908 17.8584 14.1623 17.3931 13.9803 16.9749C13.148 15.062 11.5827 13.4038 9.53036 12.3109C8.89172 11.9709 8.22519 11.6983 7.54419 11.4944C7.46379 11.4703 7.38303 11.4473 7.30198 11.425L7.30138 11.4249L7.26664 11.4154L7.26654 11.4154C7.1928 11.3953 7.1189 11.3761 7.04482 11.3577C7.04478 11.3577 7.04473 11.3577 7.04469 11.3576L6.51012 11.2395ZM6.51012 11.2395L6.51015 11.2395C6.51021 11.2395 6.51043 11.2396 6.51084 11.2396L6.51319 11.2401L6.52285 11.2422L6.52392 11.2424C6.60805 11.2587 6.69205 11.2761 6.77604 11.2945L6.80903 11.1442L6.51012 11.2395ZM22.6926 11.2668L22.6573 11.2763C22.5752 11.299 22.4932 11.3223 22.4114 11.3468L22.4555 11.4943C21.7746 11.6982 21.108 11.9708 20.4695 12.3108C18.417 13.4037 16.8517 15.062 16.0194 16.9751C15.8375 17.3932 16.0917 17.8583 16.5432 17.9333C17.045 18.0166 17.5611 18.0586 18.0877 18.0586C19.766 18.0586 21.4687 17.6251 23.0111 16.804C25.0635 15.711 26.6287 14.0527 27.461 12.1395C27.6429 11.7214 27.3886 11.2562 26.9371 11.1813C26.4354 11.098 25.9194 11.056 25.3928 11.056C24.7592 11.056 24.1222 11.118 23.4914 11.2391C23.4912 11.2391 23.491 11.2392 23.4907 11.2392L23.4853 11.2403L23.4761 11.2422L23.4756 11.2423C23.3916 11.2586 23.3077 11.276 23.2237 11.2944C23.1607 11.3083 23.0974 11.3234 23.033 11.3389L22.997 11.1892L23.033 11.3389C23.0216 11.3416 23.0111 11.3441 23.001 11.3465C22.9855 11.3502 22.9708 11.3536 22.955 11.3575C22.8808 11.376 22.8067 11.3953 22.733 11.4153L22.7325 11.4155L22.6982 11.4247L22.6982 11.4247L22.6926 11.2668ZM22.6926 11.2668C22.7676 11.2464 22.8428 11.2269 22.9181 11.2081L22.6926 11.2668ZM6.90208 3.05536C6.61069 2.98761 6.31485 3.14926 6.21445 3.43107M6.90208 3.05536L6.21445 3.43107M6.21445 3.43107C5.6231 5.09064 5.47187 6.88782 5.74274 8.67198M6.21445 3.43107L5.74274 8.67198M5.74274 8.67198C5.83782 9.29823 5.31383 9.89948 4.67849 9.89523M5.74274 8.67198L4.67849 9.89523M4.67849 9.89523L4.60715 9.89499M4.67849 9.89523L4.60715 9.89499M4.60715 9.89499C3.46467 9.89499 2.36092 10.0711 1.32675 10.4191L4.60715 9.89499ZM18.7379 6.54378L18.5968 6.57966C18.6324 6.54688 18.6681 6.51434 18.7041 6.48206C18.7196 6.49921 18.7316 6.5204 18.7383 6.54509C18.7381 6.54465 18.738 6.54421 18.7379 6.54378ZM19.1947 9.89449C19.1947 8.7727 19.0465 7.67719 18.7633 6.63595C19.7446 5.74496 20.8651 5.04692 22.069 4.5846C22.4854 4.4247 22.9356 4.67197 23.0217 5.10802C23.3206 6.62235 23.2448 8.22447 22.8066 9.7876C22.7299 10.0612 22.5008 10.2702 22.212 10.3537C21.4191 10.583 20.6438 10.8963 19.9028 11.2908C19.7438 11.3755 19.553 11.3539 19.3993 11.2541C19.2456 11.1544 19.1485 10.9893 19.1616 10.8098C19.1835 10.507 19.1947 10.2018 19.1947 9.89449ZM10.0969 11.2908L10.0969 11.2908C9.35591 10.8963 8.58064 10.583 7.78775 10.3537C7.49897 10.2702 7.26985 10.0612 7.19316 9.78756C6.75498 8.22442 6.6792 6.62236 6.97815 5.10807C7.06424 4.672 7.51443 4.42473 7.93084 4.58465C8.9799 4.98753 9.96561 5.56933 10.851 6.30187C11.0889 6.49868 11.1818 6.82643 11.1097 7.14547C10.9093 8.03233 10.8051 8.95417 10.8051 9.89449C10.8051 10.2017 10.8162 10.507 10.8382 10.8098C10.8512 10.9893 10.7542 11.1544 10.6005 11.2542C10.4467 11.3539 10.256 11.3756 10.0969 11.2908ZM14.4592 2.95905C14.7459 2.62375 15.254 2.62374 15.5407 2.95904C17.1205 4.80663 18.0089 7.26615 18.0089 9.89441C18.0089 10.8375 17.894 11.7588 17.6742 12.6382C17.6353 12.7936 17.5457 12.935 17.4219 13.0496C16.92 13.5146 16.4675 14.0183 16.0706 14.5537C15.8415 14.8628 15.4298 15.029 15 15.029C14.5702 15.0291 14.1584 14.8628 13.9293 14.5537C13.5324 14.0183 13.0799 13.5146 12.578 13.0496C12.4542 12.935 12.3646 12.7936 12.3257 12.6382C12.1059 11.7589 11.991 10.8375 11.991 9.89449C11.9909 7.26616 12.8794 4.80669 14.4592 2.95905Z" fill="#F1D8FF"/>
<path d="M23.0888 3.05749L23.0888 3.05748L23.0979 3.05536C23.3893 2.98761 23.6852 3.14927 23.7855 3.43109M23.0888 3.05749L1.32673 10.4191L1.31785 10.4221C1.03457 10.5174 0.871628 10.814 0.943065 11.1042L0.943069 11.1042C1.62914 13.89 3.62961 16.3367 6.42239 17.8239C8.13627 18.7365 10.0344 19.2195 11.9122 19.2196C12.8884 19.2196 13.8361 19.0894 14.7365 18.8346C14.9087 18.7858 15.0913 18.7858 15.2635 18.8346C16.1638 19.0894 17.1113 19.2196 18.0878 19.2196C19.9655 19.2196 21.8636 18.7366 23.5777 17.8239C26.3704 16.3367 28.3709 13.89 29.0569 11.1042L29.0569 11.1042C29.1284 10.814 28.9654 10.5174 28.6821 10.4221L28.6733 10.4191C27.6391 10.0711 26.5353 9.89499 25.3929 9.89499L25.3215 9.89523C24.6862 9.89948 24.1622 9.29822 24.2573 8.67196C24.5281 6.88787 24.3769 5.0907 23.7855 3.43109M23.0888 3.05749C21.7611 3.36633 20.5005 3.92358 19.3591 4.68777C18.8561 5.02452 18.1334 4.83801 17.8536 4.30007C17.2312 3.1031 16.4038 2.03112 15.3964 1.14403C15.1698 0.944451 14.8302 0.944449 14.6036 1.14402C13.5962 2.03112 12.7687 3.10321 12.1462 4.30031C11.8664 4.83828 11.1437 5.02479 10.6407 4.688C9.49939 3.92374 8.23885 3.36632 6.91124 3.05749L6.91122 3.05748M23.0888 3.05749L6.91122 3.05748M23.7855 3.43109L23.6405 3.48274L23.7855 3.43108C23.7855 3.43108 23.7855 3.43108 23.7855 3.43109ZM6.91122 3.05748L6.90208 3.05536M6.91122 3.05748L6.90208 3.05536M6.51012 11.2395L6.50897 11.2393C5.87801 11.118 5.24072 11.0561 4.60697 11.0561C4.08038 11.0561 3.56435 11.0981 3.06261 11.1813C2.61111 11.2563 2.35688 11.7214 2.53879 12.1396C3.37103 14.0527 4.93629 15.7109 6.98874 16.8039C8.53093 17.625 10.2342 18.0585 11.9127 18.0585C12.439 18.0585 12.9548 18.0165 13.4565 17.9333C13.908 17.8584 14.1623 17.3931 13.9803 16.9749C13.148 15.062 11.5827 13.4038 9.53036 12.3109C8.89172 11.9709 8.22519 11.6983 7.54419 11.4944C7.46379 11.4703 7.38303 11.4473 7.30198 11.425L7.30138 11.4249L7.26664 11.4154L7.26654 11.4154C7.1928 11.3953 7.1189 11.3761 7.04482 11.3577C7.04478 11.3577 7.04473 11.3577 7.04469 11.3576L6.51012 11.2395ZM6.51012 11.2395L6.51015 11.2395C6.51021 11.2395 6.51043 11.2396 6.51084 11.2396L6.51319 11.2401L6.52285 11.2422L6.52392 11.2424C6.60805 11.2587 6.69205 11.2761 6.77604 11.2945L6.80903 11.1442L6.51012 11.2395ZM22.6926 11.2668L22.6573 11.2763C22.5752 11.299 22.4932 11.3223 22.4114 11.3468L22.4555 11.4943C21.7746 11.6982 21.108 11.9708 20.4695 12.3108C18.417 13.4037 16.8517 15.062 16.0194 16.9751C15.8375 17.3932 16.0917 17.8583 16.5432 17.9333C17.045 18.0166 17.5611 18.0586 18.0877 18.0586C19.766 18.0586 21.4687 17.6251 23.0111 16.804C25.0635 15.711 26.6287 14.0527 27.461 12.1395C27.6429 11.7214 27.3886 11.2562 26.9371 11.1813C26.4354 11.098 25.9194 11.056 25.3928 11.056C24.7592 11.056 24.1222 11.118 23.4914 11.2391C23.4912 11.2391 23.491 11.2392 23.4907 11.2392L23.4853 11.2403L23.4761 11.2422L23.4756 11.2423C23.3916 11.2586 23.3077 11.276 23.2237 11.2944C23.1607 11.3083 23.0974 11.3234 23.033 11.3389L22.997 11.1892L23.033 11.3389C23.0216 11.3416 23.0111 11.3441 23.001 11.3465C22.9855 11.3502 22.9708 11.3536 22.955 11.3575C22.8808 11.376 22.8067 11.3953 22.733 11.4153L22.7325 11.4155L22.6982 11.4247L22.6982 11.4247L22.6926 11.2668ZM22.6926 11.2668C22.7676 11.2464 22.8428 11.2269 22.9181 11.2081L22.6926 11.2668ZM6.90208 3.05536C6.61069 2.98761 6.31485 3.14926 6.21445 3.43107M6.90208 3.05536L6.21445 3.43107M6.21445 3.43107C5.6231 5.09064 5.47187 6.88782 5.74274 8.67198M6.21445 3.43107L5.74274 8.67198M5.74274 8.67198C5.83782 9.29823 5.31383 9.89948 4.67849 9.89523M5.74274 8.67198L4.67849 9.89523M4.67849 9.89523L4.60715 9.89499M4.67849 9.89523L4.60715 9.89499M4.60715 9.89499C3.46467 9.89499 2.36092 10.0711 1.32675 10.4191L4.60715 9.89499ZM18.7379 6.54378L18.5968 6.57966C18.6324 6.54688 18.6681 6.51434 18.7041 6.48206C18.7196 6.49921 18.7316 6.5204 18.7383 6.54509C18.7381 6.54465 18.738 6.54421 18.7379 6.54378ZM19.1947 9.89449C19.1947 8.7727 19.0465 7.67719 18.7633 6.63595C19.7446 5.74496 20.8651 5.04692 22.069 4.5846C22.4854 4.4247 22.9356 4.67197 23.0217 5.10802C23.3206 6.62235 23.2448 8.22447 22.8066 9.7876C22.7299 10.0612 22.5008 10.2702 22.212 10.3537C21.4191 10.583 20.6438 10.8963 19.9028 11.2908C19.7438 11.3755 19.553 11.3539 19.3993 11.2541C19.2456 11.1544 19.1485 10.9893 19.1616 10.8098C19.1835 10.507 19.1947 10.2018 19.1947 9.89449ZM10.0969 11.2908L10.0969 11.2908C9.35591 10.8963 8.58064 10.583 7.78775 10.3537C7.49897 10.2702 7.26985 10.0612 7.19316 9.78756C6.75498 8.22442 6.6792 6.62236 6.97815 5.10807C7.06424 4.672 7.51443 4.42473 7.93084 4.58465C8.9799 4.98753 9.96561 5.56933 10.851 6.30187C11.0889 6.49868 11.1818 6.82643 11.1097 7.14547C10.9093 8.03233 10.8051 8.95417 10.8051 9.89449C10.8051 10.2017 10.8162 10.507 10.8382 10.8098C10.8512 10.9893 10.7542 11.1544 10.6005 11.2542C10.4467 11.3539 10.256 11.3756 10.0969 11.2908ZM14.4592 2.95905C14.7459 2.62375 15.254 2.62374 15.5407 2.95904C17.1205 4.80663 18.0089 7.26615 18.0089 9.89441C18.0089 10.8375 17.894 11.7588 17.6742 12.6382C17.6353 12.7936 17.5457 12.935 17.4219 13.0496C16.92 13.5146 16.4675 14.0183 16.0706 14.5537C15.8415 14.8628 15.4298 15.029 15 15.029C14.5702 15.0291 14.1584 14.8628 13.9293 14.5537C13.5324 14.0183 13.0799 13.5146 12.578 13.0496C12.4542 12.935 12.3646 12.7936 12.3257 12.6382C12.1059 11.7589 11.991 10.8375 11.991 9.89449C11.9909 7.26616 12.8794 4.80669 14.4592 2.95905Z" fill="#C7B3FF"/>
<path d="M23.0888 3.05749L23.0888 3.05748L23.0979 3.05536C23.3893 2.98761 23.6852 3.14927 23.7855 3.43109M23.0888 3.05749L1.32673 10.4191L1.31785 10.4221C1.03457 10.5174 0.871628 10.814 0.943065 11.1042L0.943069 11.1042C1.62914 13.89 3.62961 16.3367 6.42239 17.8239C8.13627 18.7365 10.0344 19.2195 11.9122 19.2196C12.8884 19.2196 13.8361 19.0894 14.7365 18.8346C14.9087 18.7858 15.0913 18.7858 15.2635 18.8346C16.1638 19.0894 17.1113 19.2196 18.0878 19.2196C19.9655 19.2196 21.8636 18.7366 23.5777 17.8239C26.3704 16.3367 28.3709 13.89 29.0569 11.1042L29.0569 11.1042C29.1284 10.814 28.9654 10.5174 28.6821 10.4221L28.6733 10.4191C27.6391 10.0711 26.5353 9.89499 25.3929 9.89499L25.3215 9.89523C24.6862 9.89948 24.1622 9.29822 24.2573 8.67196C24.5281 6.88787 24.3769 5.0907 23.7855 3.43109M23.0888 3.05749C21.7611 3.36633 20.5005 3.92358 19.3591 4.68777C18.8561 5.02452 18.1334 4.83801 17.8536 4.30007C17.2312 3.1031 16.4038 2.03112 15.3964 1.14403C15.1698 0.944451 14.8302 0.944449 14.6036 1.14402C13.5962 2.03112 12.7687 3.10321 12.1462 4.30031C11.8664 4.83828 11.1437 5.02479 10.6407 4.688C9.49939 3.92374 8.23885 3.36632 6.91124 3.05749L6.91122 3.05748M23.0888 3.05749L6.91122 3.05748M23.7855 3.43109L23.6405 3.48274L23.7855 3.43108C23.7855 3.43108 23.7855 3.43108 23.7855 3.43109ZM6.91122 3.05748L6.90208 3.05536M6.91122 3.05748L6.90208 3.05536M6.51012 11.2395L6.50897 11.2393C5.87801 11.118 5.24072 11.0561 4.60697 11.0561C4.08038 11.0561 3.56435 11.0981 3.06261 11.1813C2.61111 11.2563 2.35688 11.7214 2.53879 12.1396C3.37103 14.0527 4.93629 15.7109 6.98874 16.8039C8.53093 17.625 10.2342 18.0585 11.9127 18.0585C12.439 18.0585 12.9548 18.0165 13.4565 17.9333C13.908 17.8584 14.1623 17.3931 13.9803 16.9749C13.148 15.062 11.5827 13.4038 9.53036 12.3109C8.89172 11.9709 8.22519 11.6983 7.54419 11.4944C7.46379 11.4703 7.38303 11.4473 7.30198 11.425L7.30138 11.4249L7.26664 11.4154L7.26654 11.4154C7.1928 11.3953 7.1189 11.3761 7.04482 11.3577C7.04478 11.3577 7.04473 11.3577 7.04469 11.3576L6.51012 11.2395ZM6.51012 11.2395L6.51015 11.2395C6.51021 11.2395 6.51043 11.2396 6.51084 11.2396L6.51319 11.2401L6.52285 11.2422L6.52392 11.2424C6.60805 11.2587 6.69205 11.2761 6.77604 11.2945L6.80903 11.1442L6.51012 11.2395ZM22.6926 11.2668L22.6573 11.2763C22.5752 11.299 22.4932 11.3223 22.4114 11.3468L22.4555 11.4943C21.7746 11.6982 21.108 11.9708 20.4695 12.3108C18.417 13.4037 16.8517 15.062 16.0194 16.9751C15.8375 17.3932 16.0917 17.8583 16.5432 17.9333C17.045 18.0166 17.5611 18.0586 18.0877 18.0586C19.766 18.0586 21.4687 17.6251 23.0111 16.804C25.0635 15.711 26.6287 14.0527 27.461 12.1395C27.6429 11.7214 27.3886 11.2562 26.9371 11.1813C26.4354 11.098 25.9194 11.056 25.3928 11.056C24.7592 11.056 24.1222 11.118 23.4914 11.2391C23.4912 11.2391 23.491 11.2392 23.4907 11.2392L23.4853 11.2403L23.4761 11.2422L23.4756 11.2423C23.3916 11.2586 23.3077 11.276 23.2237 11.2944C23.1607 11.3083 23.0974 11.3234 23.033 11.3389L22.997 11.1892L23.033 11.3389C23.0216 11.3416 23.0111 11.3441 23.001 11.3465C22.9855 11.3502 22.9708 11.3536 22.955 11.3575C22.8808 11.376 22.8067 11.3953 22.733 11.4153L22.7325 11.4155L22.6982 11.4247L22.6982 11.4247L22.6926 11.2668ZM22.6926 11.2668C22.7676 11.2464 22.8428 11.2269 22.9181 11.2081L22.6926 11.2668ZM6.90208 3.05536C6.61069 2.98761 6.31485 3.14926 6.21445 3.43107M6.90208 3.05536L6.21445 3.43107M6.21445 3.43107C5.6231 5.09064 5.47187 6.88782 5.74274 8.67198M6.21445 3.43107L5.74274 8.67198M5.74274 8.67198C5.83782 9.29823 5.31383 9.89948 4.67849 9.89523M5.74274 8.67198L4.67849 9.89523M4.67849 9.89523L4.60715 9.89499M4.67849 9.89523L4.60715 9.89499M4.60715 9.89499C3.46467 9.89499 2.36092 10.0711 1.32675 10.4191L4.60715 9.89499ZM18.7379 6.54378L18.5968 6.57966C18.6324 6.54688 18.6681 6.51434 18.7041 6.48206C18.7196 6.49921 18.7316 6.5204 18.7383 6.54509C18.7381 6.54465 18.738 6.54421 18.7379 6.54378ZM19.1947 9.89449C19.1947 8.7727 19.0465 7.67719 18.7633 6.63595C19.7446 5.74496 20.8651 5.04692 22.069 4.5846C22.4854 4.4247 22.9356 4.67197 23.0217 5.10802C23.3206 6.62235 23.2448 8.22447 22.8066 9.7876C22.7299 10.0612 22.5008 10.2702 22.212 10.3537C21.4191 10.583 20.6438 10.8963 19.9028 11.2908C19.7438 11.3755 19.553 11.3539 19.3993 11.2541C19.2456 11.1544 19.1485 10.9893 19.1616 10.8098C19.1835 10.507 19.1947 10.2018 19.1947 9.89449ZM10.0969 11.2908L10.0969 11.2908C9.35591 10.8963 8.58064 10.583 7.78775 10.3537C7.49897 10.2702 7.26985 10.0612 7.19316 9.78756C6.75498 8.22442 6.6792 6.62236 6.97815 5.10807C7.06424 4.672 7.51443 4.42473 7.93084 4.58465C8.9799 4.98753 9.96561 5.56933 10.851 6.30187C11.0889 6.49868 11.1818 6.82643 11.1097 7.14547C10.9093 8.03233 10.8051 8.95417 10.8051 9.89449C10.8051 10.2017 10.8162 10.507 10.8382 10.8098C10.8512 10.9893 10.7542 11.1544 10.6005 11.2542C10.4467 11.3539 10.256 11.3756 10.0969 11.2908ZM14.4592 2.95905C14.7459 2.62375 15.254 2.62374 15.5407 2.95904C17.1205 4.80663 18.0089 7.26615 18.0089 9.89441C18.0089 10.8375 17.894 11.7588 17.6742 12.6382C17.6353 12.7936 17.5457 12.935 17.4219 13.0496C16.92 13.5146 16.4675 14.0183 16.0706 14.5537C15.8415 14.8628 15.4298 15.029 15 15.029C14.5702 15.0291 14.1584 14.8628 13.9293 14.5537C13.5324 14.0183 13.0799 13.5146 12.578 13.0496C12.4542 12.935 12.3646 12.7936 12.3257 12.6382C12.1059 11.7589 11.991 10.8375 11.991 9.89449C11.9909 7.26616 12.8794 4.80669 14.4592 2.95905Z" stroke="#FFCAC2" stroke-width="0.307857"/>
<path d="M23.0888 3.05749L23.0888 3.05748L23.0979 3.05536C23.3893 2.98761 23.6852 3.14927 23.7855 3.43109M23.0888 3.05749L1.32673 10.4191L1.31785 10.4221C1.03457 10.5174 0.871628 10.814 0.943065 11.1042L0.943069 11.1042C1.62914 13.89 3.62961 16.3367 6.42239 17.8239C8.13627 18.7365 10.0344 19.2195 11.9122 19.2196C12.8884 19.2196 13.8361 19.0894 14.7365 18.8346C14.9087 18.7858 15.0913 18.7858 15.2635 18.8346C16.1638 19.0894 17.1113 19.2196 18.0878 19.2196C19.9655 19.2196 21.8636 18.7366 23.5777 17.8239C26.3704 16.3367 28.3709 13.89 29.0569 11.1042L29.0569 11.1042C29.1284 10.814 28.9654 10.5174 28.6821 10.4221L28.6733 10.4191C27.6391 10.0711 26.5353 9.89499 25.3929 9.89499L25.3215 9.89523C24.6862 9.89948 24.1622 9.29822 24.2573 8.67196C24.5281 6.88787 24.3769 5.0907 23.7855 3.43109M23.0888 3.05749C21.7611 3.36633 20.5005 3.92358 19.3591 4.68777C18.8561 5.02452 18.1334 4.83801 17.8536 4.30007C17.2312 3.1031 16.4038 2.03112 15.3964 1.14403C15.1698 0.944451 14.8302 0.944449 14.6036 1.14402C13.5962 2.03112 12.7687 3.10321 12.1462 4.30031C11.8664 4.83828 11.1437 5.02479 10.6407 4.688C9.49939 3.92374 8.23885 3.36632 6.91124 3.05749L6.91122 3.05748M23.0888 3.05749L6.91122 3.05748M23.7855 3.43109L23.6405 3.48274L23.7855 3.43108C23.7855 3.43108 23.7855 3.43108 23.7855 3.43109ZM6.91122 3.05748L6.90208 3.05536M6.91122 3.05748L6.90208 3.05536M6.51012 11.2395L6.50897 11.2393C5.87801 11.118 5.24072 11.0561 4.60697 11.0561C4.08038 11.0561 3.56435 11.0981 3.06261 11.1813C2.61111 11.2563 2.35688 11.7214 2.53879 12.1396C3.37103 14.0527 4.93629 15.7109 6.98874 16.8039C8.53093 17.625 10.2342 18.0585 11.9127 18.0585C12.439 18.0585 12.9548 18.0165 13.4565 17.9333C13.908 17.8584 14.1623 17.3931 13.9803 16.9749C13.148 15.062 11.5827 13.4038 9.53036 12.3109C8.89172 11.9709 8.22519 11.6983 7.54419 11.4944C7.46379 11.4703 7.38303 11.4473 7.30198 11.425L7.30138 11.4249L7.26664 11.4154L7.26654 11.4154C7.1928 11.3953 7.1189 11.3761 7.04482 11.3577C7.04478 11.3577 7.04473 11.3577 7.04469 11.3576L6.51012 11.2395ZM6.51012 11.2395L6.51015 11.2395C6.51021 11.2395 6.51043 11.2396 6.51084 11.2396L6.51319 11.2401L6.52285 11.2422L6.52392 11.2424C6.60805 11.2587 6.69205 11.2761 6.77604 11.2945L6.80903 11.1442L6.51012 11.2395ZM22.6926 11.2668L22.6573 11.2763C22.5752 11.299 22.4932 11.3223 22.4114 11.3468L22.4555 11.4943C21.7746 11.6982 21.108 11.9708 20.4695 12.3108C18.417 13.4037 16.8517 15.062 16.0194 16.9751C15.8375 17.3932 16.0917 17.8583 16.5432 17.9333C17.045 18.0166 17.5611 18.0586 18.0877 18.0586C19.766 18.0586 21.4687 17.6251 23.0111 16.804C25.0635 15.711 26.6287 14.0527 27.461 12.1395C27.6429 11.7214 27.3886 11.2562 26.9371 11.1813C26.4354 11.098 25.9194 11.056 25.3928 11.056C24.7592 11.056 24.1222 11.118 23.4914 11.2391C23.4912 11.2391 23.491 11.2392 23.4907 11.2392L23.4853 11.2403L23.4761 11.2422L23.4756 11.2423C23.3916 11.2586 23.3077 11.276 23.2237 11.2944C23.1607 11.3083 23.0974 11.3234 23.033 11.3389L22.997 11.1892L23.033 11.3389C23.0216 11.3416 23.0111 11.3441 23.001 11.3465C22.9855 11.3502 22.9708 11.3536 22.955 11.3575C22.8808 11.376 22.8067 11.3953 22.733 11.4153L22.7325 11.4155L22.6982 11.4247L22.6982 11.4247L22.6926 11.2668ZM22.6926 11.2668C22.7676 11.2464 22.8428 11.2269 22.9181 11.2081L22.6926 11.2668ZM6.90208 3.05536C6.61069 2.98761 6.31485 3.14926 6.21445 3.43107M6.90208 3.05536L6.21445 3.43107M6.21445 3.43107C5.6231 5.09064 5.47187 6.88782 5.74274 8.67198M6.21445 3.43107L5.74274 8.67198M5.74274 8.67198C5.83782 9.29823 5.31383 9.89948 4.67849 9.89523M5.74274 8.67198L4.67849 9.89523M4.67849 9.89523L4.60715 9.89499M4.67849 9.89523L4.60715 9.89499M4.60715 9.89499C3.46467 9.89499 2.36092 10.0711 1.32675 10.4191L4.60715 9.89499ZM18.7379 6.54378L18.5968 6.57966C18.6324 6.54688 18.6681 6.51434 18.7041 6.48206C18.7196 6.49921 18.7316 6.5204 18.7383 6.54509C18.7381 6.54465 18.738 6.54421 18.7379 6.54378ZM19.1947 9.89449C19.1947 8.7727 19.0465 7.67719 18.7633 6.63595C19.7446 5.74496 20.8651 5.04692 22.069 4.5846C22.4854 4.4247 22.9356 4.67197 23.0217 5.10802C23.3206 6.62235 23.2448 8.22447 22.8066 9.7876C22.7299 10.0612 22.5008 10.2702 22.212 10.3537C21.4191 10.583 20.6438 10.8963 19.9028 11.2908C19.7438 11.3755 19.553 11.3539 19.3993 11.2541C19.2456 11.1544 19.1485 10.9893 19.1616 10.8098C19.1835 10.507 19.1947 10.2018 19.1947 9.89449ZM10.0969 11.2908L10.0969 11.2908C9.35591 10.8963 8.58064 10.583 7.78775 10.3537C7.49897 10.2702 7.26985 10.0612 7.19316 9.78756C6.75498 8.22442 6.6792 6.62236 6.97815 5.10807C7.06424 4.672 7.51443 4.42473 7.93084 4.58465C8.9799 4.98753 9.96561 5.56933 10.851 6.30187C11.0889 6.49868 11.1818 6.82643 11.1097 7.14547C10.9093 8.03233 10.8051 8.95417 10.8051 9.89449C10.8051 10.2017 10.8162 10.507 10.8382 10.8098C10.8512 10.9893 10.7542 11.1544 10.6005 11.2542C10.4467 11.3539 10.256 11.3756 10.0969 11.2908ZM14.4592 2.95905C14.7459 2.62375 15.254 2.62374 15.5407 2.95904C17.1205 4.80663 18.0089 7.26615 18.0089 9.89441C18.0089 10.8375 17.894 11.7588 17.6742 12.6382C17.6353 12.7936 17.5457 12.935 17.4219 13.0496C16.92 13.5146 16.4675 14.0183 16.0706 14.5537C15.8415 14.8628 15.4298 15.029 15 15.029C14.5702 15.0291 14.1584 14.8628 13.9293 14.5537C13.5324 14.0183 13.0799 13.5146 12.578 13.0496C12.4542 12.935 12.3646 12.7936 12.3257 12.6382C12.1059 11.7589 11.991 10.8375 11.991 9.89449C11.9909 7.26616 12.8794 4.80669 14.4592 2.95905Z" stroke="#F1D8FF" stroke-width="0.307857"/>
<path d="M23.0888 3.05749L23.0888 3.05748L23.0979 3.05536C23.3893 2.98761 23.6852 3.14927 23.7855 3.43109M23.0888 3.05749L1.32673 10.4191L1.31785 10.4221C1.03457 10.5174 0.871628 10.814 0.943065 11.1042L0.943069 11.1042C1.62914 13.89 3.62961 16.3367 6.42239 17.8239C8.13627 18.7365 10.0344 19.2195 11.9122 19.2196C12.8884 19.2196 13.8361 19.0894 14.7365 18.8346C14.9087 18.7858 15.0913 18.7858 15.2635 18.8346C16.1638 19.0894 17.1113 19.2196 18.0878 19.2196C19.9655 19.2196 21.8636 18.7366 23.5777 17.8239C26.3704 16.3367 28.3709 13.89 29.0569 11.1042L29.0569 11.1042C29.1284 10.814 28.9654 10.5174 28.6821 10.4221L28.6733 10.4191C27.6391 10.0711 26.5353 9.89499 25.3929 9.89499L25.3215 9.89523C24.6862 9.89948 24.1622 9.29822 24.2573 8.67196C24.5281 6.88787 24.3769 5.0907 23.7855 3.43109M23.0888 3.05749C21.7611 3.36633 20.5005 3.92358 19.3591 4.68777C18.8561 5.02452 18.1334 4.83801 17.8536 4.30007C17.2312 3.1031 16.4038 2.03112 15.3964 1.14403C15.1698 0.944451 14.8302 0.944449 14.6036 1.14402C13.5962 2.03112 12.7687 3.10321 12.1462 4.30031C11.8664 4.83828 11.1437 5.02479 10.6407 4.688C9.49939 3.92374 8.23885 3.36632 6.91124 3.05749L6.91122 3.05748M23.0888 3.05749L6.91122 3.05748M23.7855 3.43109L23.6405 3.48274L23.7855 3.43108C23.7855 3.43108 23.7855 3.43108 23.7855 3.43109ZM6.91122 3.05748L6.90208 3.05536M6.91122 3.05748L6.90208 3.05536M6.51012 11.2395L6.50897 11.2393C5.87801 11.118 5.24072 11.0561 4.60697 11.0561C4.08038 11.0561 3.56435 11.0981 3.06261 11.1813C2.61111 11.2563 2.35688 11.7214 2.53879 12.1396C3.37103 14.0527 4.93629 15.7109 6.98874 16.8039C8.53093 17.625 10.2342 18.0585 11.9127 18.0585C12.439 18.0585 12.9548 18.0165 13.4565 17.9333C13.908 17.8584 14.1623 17.3931 13.9803 16.9749C13.148 15.062 11.5827 13.4038 9.53036 12.3109C8.89172 11.9709 8.22519 11.6983 7.54419 11.4944C7.46379 11.4703 7.38303 11.4473 7.30198 11.425L7.30138 11.4249L7.26664 11.4154L7.26654 11.4154C7.1928 11.3953 7.1189 11.3761 7.04482 11.3577C7.04478 11.3577 7.04473 11.3577 7.04469 11.3576L6.51012 11.2395ZM6.51012 11.2395L6.51015 11.2395C6.51021 11.2395 6.51043 11.2396 6.51084 11.2396L6.51319 11.2401L6.52285 11.2422L6.52392 11.2424C6.60805 11.2587 6.69205 11.2761 6.77604 11.2945L6.80903 11.1442L6.51012 11.2395ZM22.6926 11.2668L22.6573 11.2763C22.5752 11.299 22.4932 11.3223 22.4114 11.3468L22.4555 11.4943C21.7746 11.6982 21.108 11.9708 20.4695 12.3108C18.417 13.4037 16.8517 15.062 16.0194 16.9751C15.8375 17.3932 16.0917 17.8583 16.5432 17.9333C17.045 18.0166 17.5611 18.0586 18.0877 18.0586C19.766 18.0586 21.4687 17.6251 23.0111 16.804C25.0635 15.711 26.6287 14.0527 27.461 12.1395C27.6429 11.7214 27.3886 11.2562 26.9371 11.1813C26.4354 11.098 25.9194 11.056 25.3928 11.056C24.7592 11.056 24.1222 11.118 23.4914 11.2391C23.4912 11.2391 23.491 11.2392 23.4907 11.2392L23.4853 11.2403L23.4761 11.2422L23.4756 11.2423C23.3916 11.2586 23.3077 11.276 23.2237 11.2944C23.1607 11.3083 23.0974 11.3234 23.033 11.3389L22.997 11.1892L23.033 11.3389C23.0216 11.3416 23.0111 11.3441 23.001 11.3465C22.9855 11.3502 22.9708 11.3536 22.955 11.3575C22.8808 11.376 22.8067 11.3953 22.733 11.4153L22.7325 11.4155L22.6982 11.4247L22.6982 11.4247L22.6926 11.2668ZM22.6926 11.2668C22.7676 11.2464 22.8428 11.2269 22.9181 11.2081L22.6926 11.2668ZM6.90208 3.05536C6.61069 2.98761 6.31485 3.14926 6.21445 3.43107M6.90208 3.05536L6.21445 3.43107M6.21445 3.43107C5.6231 5.09064 5.47187 6.88782 5.74274 8.67198M6.21445 3.43107L5.74274 8.67198M5.74274 8.67198C5.83782 9.29823 5.31383 9.89948 4.67849 9.89523M5.74274 8.67198L4.67849 9.89523M4.67849 9.89523L4.60715 9.89499M4.67849 9.89523L4.60715 9.89499M4.60715 9.89499C3.46467 9.89499 2.36092 10.0711 1.32675 10.4191L4.60715 9.89499ZM18.7379 6.54378L18.5968 6.57966C18.6324 6.54688 18.6681 6.51434 18.7041 6.48206C18.7196 6.49921 18.7316 6.5204 18.7383 6.54509C18.7381 6.54465 18.738 6.54421 18.7379 6.54378ZM19.1947 9.89449C19.1947 8.7727 19.0465 7.67719 18.7633 6.63595C19.7446 5.74496 20.8651 5.04692 22.069 4.5846C22.4854 4.4247 22.9356 4.67197 23.0217 5.10802C23.3206 6.62235 23.2448 8.22447 22.8066 9.7876C22.7299 10.0612 22.5008 10.2702 22.212 10.3537C21.4191 10.583 20.6438 10.8963 19.9028 11.2908C19.7438 11.3755 19.553 11.3539 19.3993 11.2541C19.2456 11.1544 19.1485 10.9893 19.1616 10.8098C19.1835 10.507 19.1947 10.2018 19.1947 9.89449ZM10.0969 11.2908L10.0969 11.2908C9.35591 10.8963 8.58064 10.583 7.78775 10.3537C7.49897 10.2702 7.26985 10.0612 7.19316 9.78756C6.75498 8.22442 6.6792 6.62236 6.97815 5.10807C7.06424 4.672 7.51443 4.42473 7.93084 4.58465C8.9799 4.98753 9.96561 5.56933 10.851 6.30187C11.0889 6.49868 11.1818 6.82643 11.1097 7.14547C10.9093 8.03233 10.8051 8.95417 10.8051 9.89449C10.8051 10.2017 10.8162 10.507 10.8382 10.8098C10.8512 10.9893 10.7542 11.1544 10.6005 11.2542C10.4467 11.3539 10.256 11.3756 10.0969 11.2908ZM14.4592 2.95905C14.7459 2.62375 15.254 2.62374 15.5407 2.95904C17.1205 4.80663 18.0089 7.26615 18.0089 9.89441C18.0089 10.8375 17.894 11.7588 17.6742 12.6382C17.6353 12.7936 17.5457 12.935 17.4219 13.0496C16.92 13.5146 16.4675 14.0183 16.0706 14.5537C15.8415 14.8628 15.4298 15.029 15 15.029C14.5702 15.0291 14.1584 14.8628 13.9293 14.5537C13.5324 14.0183 13.0799 13.5146 12.578 13.0496C12.4542 12.935 12.3646 12.7936 12.3257 12.6382C12.1059 11.7589 11.991 10.8375 11.991 9.89449C11.9909 7.26616 12.8794 4.80669 14.4592 2.95905Z" stroke="#C7B3FF" stroke-width="0.307857"/>
</svg>
