<svg width="47" height="48" viewBox="0 0 47 48" fill="none" xmlns="http://www.w3.org/2000/svg">
<path d="M23.4995 0.719818C10.6627 0.719818 0.21933 11.1632 0.21933 24C0.21933 36.8369 10.6627 47.2802 23.4995 47.2802C36.3364 47.2802 46.7798 36.8369 46.7798 24C46.7798 11.1632 36.3364 0.719818 23.4995 0.719818ZM23.4995 44.9733C11.9348 44.9733 2.5263 35.5648 2.5263 24C2.5263 12.4353 11.9348 3.02679 23.4995 3.02679C35.0643 3.02679 44.4728 12.4353 44.4728 24C44.4728 35.5648 35.0643 44.9733 23.4995 44.9733Z" fill="white" stroke="white" stroke-width="0.321106"/>
<path d="M11.4516 15.8433L11.4516 15.8433C11.3656 15.2158 10.7916 14.7707 10.1794 14.8623C9.56103 14.9522 9.1367 15.537 9.22257 16.1629L11.4516 15.8433ZM11.4516 15.8433C11.6207 17.0783 12.6628 18.0049 13.8678 18.0049C15.0723 18.0049 16.1144 17.0783 16.2835 15.8433M11.4516 15.8433L17.3966 14.8509M16.2835 15.8433C16.3619 15.2702 16.8412 14.8509 17.3966 14.8509M16.2835 15.8433L16.4425 15.8651L16.2835 15.8433ZM17.3966 14.8509C17.4479 14.8509 17.5014 14.8542 17.5553 14.8623M17.3966 14.8509L17.5553 14.8623M17.5553 14.8623C18.1744 14.9519 18.5984 15.537 18.5125 16.1629C18.1893 18.5239 16.1959 20.3092 13.8678 20.3092C11.5398 20.3092 9.54587 18.5239 9.22258 16.1629L17.5553 14.8623Z" fill="white" stroke="white" stroke-width="0.321106"/>
<path d="M34.264 15.8428C34.3424 15.2697 34.8216 14.8504 35.3771 14.8504C35.4284 14.8504 35.4819 14.8537 35.5358 14.8618C36.1544 14.9515 36.5789 15.5364 36.493 16.1624C36.1698 18.5234 34.1758 20.3087 31.8478 20.3087C29.5197 20.3087 27.5263 18.5234 27.2031 16.1624L36.3339 16.1406C36.0211 18.4255 34.0923 20.1482 31.8478 20.1482C29.6033 20.1482 27.675 18.4255 27.3621 16.1406C27.2877 15.5983 27.6552 15.0972 28.1833 15.0207C28.7053 14.9427 29.1991 15.3213 29.273 15.8646M34.264 15.8428L34.423 15.8646M34.264 15.8428L34.423 15.8646M34.264 15.8428C34.0949 17.0778 33.0528 18.0044 31.8478 18.0044C30.6433 18.0044 29.6013 17.0779 29.4321 15.8429C29.4321 15.8429 29.4321 15.8429 29.4321 15.8428L29.273 15.8646M34.423 15.8646C34.2435 17.1758 33.1364 18.165 31.8478 18.165C30.5597 18.165 29.4525 17.1758 29.273 15.8646M34.423 15.8646C34.4909 15.3688 34.9041 15.011 35.3771 15.011C35.4218 15.011 35.4675 15.0139 35.5128 15.0207L29.273 15.8646M27.203 16.1624C27.1172 15.5366 27.541 14.9517 28.1599 14.8618L27.203 16.1624Z" fill="white" stroke="white" stroke-width="0.321106"/>
<path d="M17.5554 33.2126L17.5553 33.2126C17.1476 32.7397 16.4467 32.7014 15.9935 33.131L15.9934 33.131C15.5451 33.5565 15.5112 34.2784 15.9157 34.7473C17.8559 36.998 20.6196 38.2907 23.5005 38.2907C26.3815 38.2907 29.1451 36.998 31.0853 34.7473C31.4898 34.2783 31.4559 33.5565 31.0076 33.131L31.0075 33.1309C30.554 32.7016 29.8526 32.7395 29.4456 33.2126C27.9203 34.982 25.7531 35.9945 23.5005 35.9945C21.2479 35.9945 19.0807 34.982 17.5554 33.2126Z" fill="white" stroke="white" stroke-width="0.321106"/>
</svg>
