<svg width="47" height="48" viewBox="0 0 47 48" fill="none" xmlns="http://www.w3.org/2000/svg">
    <path
        d="M23.5 0.719818C10.6632 0.719818 0.219818 11.1632 0.219818 24C0.219818 36.8368 10.6632 47.2802 23.5 47.2802C36.3368 47.2802 46.7802 36.8368 46.7802 24C46.7802 11.1632 36.3368 0.719818 23.5 0.719818ZM23.5 44.9733C11.9353 44.9733 2.52679 35.5648 2.52679 24C2.52679 12.4353 11.9353 3.02679 23.5 3.02679C35.0648 3.02679 44.4733 12.4353 44.4733 24C44.4733 35.5648 35.0648 44.9733 23.5 44.9733Z"
        fill="#1D2B49" stroke="#1D2B49" stroke-width="0.321106" />
    <path
        d="M11.4521 15.8433L11.4521 15.8433C11.3661 15.2158 10.7921 14.7707 10.1799 14.8623C9.56151 14.9522 9.13718 15.537 9.22306 16.1629L11.4521 15.8433ZM11.4521 15.8433C11.6212 17.0783 12.6633 18.0049 13.8683 18.0049C15.0728 18.0049 16.1149 17.0783 16.284 15.8433C16.3624 15.2702 16.8416 14.8509 17.3971 14.8509M11.4521 15.8433L17.3971 14.8509M17.3971 14.8509C17.4484 14.8509 17.5019 14.8542 17.5558 14.8623M17.3971 14.8509L17.5558 14.8623M17.5558 14.8623C18.1749 14.9519 18.5989 15.537 18.513 16.1629M17.5558 14.8623L18.513 16.1629M18.513 16.1629C18.1898 18.5239 16.1964 20.3092 13.8683 20.3092C11.5402 20.3092 9.54636 18.5239 9.22307 16.1629L18.513 16.1629Z"
        fill="#1D2B49" stroke="#1D2B49" stroke-width="0.321106" />
    <path
        d="M31.8478 20.3087C29.5197 20.3087 27.5263 18.5234 27.2031 16.1624L28.1833 15.0207C28.7053 14.9427 29.1991 15.3213 29.273 15.8646L29.4321 15.8428C29.4321 15.8429 29.4321 15.8429 29.4321 15.8429C29.6013 17.0779 30.6433 18.0044 31.8478 18.0044C33.0528 18.0044 34.0949 17.0778 34.264 15.8428C34.3424 15.2697 34.8216 14.8504 35.3771 14.8504C35.4284 14.8504 35.4819 14.8537 35.5358 14.8618C36.1544 14.9515 36.5789 15.5364 36.493 16.1624C36.1698 18.5234 34.1758 20.3087 31.8478 20.3087ZM27.203 16.1624C27.1172 15.5366 27.541 14.9517 28.1599 14.8618L27.203 16.1624Z"
        fill="#1D2B49" stroke="#1D2B49" stroke-width="0.321106" />
    <path
        d="M17.5561 33.2126L17.5561 33.2126C19.0814 34.982 21.2487 35.9945 23.5012 35.9945C25.7538 35.9945 27.921 34.982 29.4464 33.2126C29.8534 32.7395 30.5547 32.7016 31.0082 33.1309L31.0083 33.131C31.4566 33.5565 31.4905 34.2784 31.086 34.7473C29.1459 36.998 26.3822 38.2907 23.5012 38.2907C20.6203 38.2907 17.8566 36.998 15.9164 34.7473L17.5561 33.2126ZM17.5561 33.2126C17.1483 32.7397 16.4474 32.7014 15.9942 33.131L15.9941 33.131M17.5561 33.2126L15.9941 33.131M15.9941 33.131C15.5458 33.5565 15.512 34.2783 15.9164 34.7473L15.9941 33.131Z"
        fill="#1D2B49" stroke="#1D2B49" stroke-width="0.321106" />
</svg>