<svg width="24" height="26" viewBox="0 0 24 26" fill="none" xmlns="http://www.w3.org/2000/svg">
    <path
        d="M22.7658 1.19071C22.6605 1.10779 22.5379 1.04973 22.4071 1.02087C22.2763 0.992007 22.1406 0.993096 22.0103 1.02405L7.78912 4.57934C7.59527 4.62673 7.42301 4.73798 7.30007 4.89518C7.17713 5.05238 7.11068 5.24638 7.1114 5.44594V17.6783C6.45615 17.2332 5.68147 16.9969 4.88934 17.0006C4.09828 17.0006 3.32498 17.2352 2.66723 17.6747C2.00949 18.1142 1.49684 18.7388 1.19411 19.4697C0.891381 20.2005 0.812174 21.0047 0.966503 21.7806C1.12083 22.5565 1.50177 23.2691 2.06113 23.8285C2.6205 24.3879 3.33318 24.7688 4.10904 24.9231C4.88491 25.0775 5.68911 24.9983 6.41996 24.6955C7.15081 24.3928 7.77548 23.8802 8.21497 23.2224C8.65446 22.5647 8.88904 21.7914 8.88904 21.0003V11.4677L21.3325 8.35682V14.1231C20.6773 13.6779 19.9026 13.4416 19.1105 13.4453C18.3194 13.4453 17.5461 13.6799 16.8884 14.1194C16.2306 14.5589 15.718 15.1836 15.4152 15.9144C15.1125 16.6453 15.0333 17.4495 15.1876 18.2253C15.342 19.0012 15.7229 19.7139 16.2823 20.2732C16.8416 20.8326 17.5543 21.2135 18.3302 21.3679C19.106 21.5222 19.9102 21.443 20.6411 21.1403C21.3719 20.8375 21.9966 20.3249 22.4361 19.6671C22.8756 19.0094 23.1102 18.2361 23.1102 17.445V1.89065C23.1115 1.75518 23.081 1.62129 23.0212 1.49973C22.9614 1.37818 22.8739 1.27233 22.7658 1.19071ZM4.88934 23.2224C4.44986 23.2224 4.02025 23.092 3.65484 22.8479C3.28942 22.6037 3.00462 22.2567 2.83644 21.8506C2.66825 21.4446 2.62425 20.9978 2.70999 20.5668C2.79573 20.1358 3.00736 19.7398 3.31812 19.4291C3.62888 19.1183 4.02481 18.9067 4.45584 18.8209C4.88688 18.7352 5.33366 18.7792 5.73969 18.9474C6.14571 19.1156 6.49275 19.4004 6.73691 19.7658C6.98108 20.1312 7.1114 20.5608 7.1114 21.0003C7.10848 21.5887 6.87343 22.1522 6.45735 22.5683C6.04126 22.9844 5.47777 23.2194 4.88934 23.2224ZM8.88904 9.64562V6.13477L21.3325 3.0239V6.53474L8.88904 9.64562ZM19.1105 19.6671C18.671 19.6671 18.2414 19.5368 17.876 19.2926C17.5106 19.0484 17.2258 18.7014 17.0576 18.2954C16.8894 17.8893 16.8454 17.4426 16.9311 17.0115C17.0169 16.5805 17.2285 16.1845 17.5393 15.8738C17.85 15.563 18.2459 15.3514 18.677 15.2657C19.108 15.1799 19.5548 15.2239 19.9608 15.3921C20.3668 15.5603 20.7139 15.8451 20.958 16.2105C21.2022 16.5759 21.3325 17.0055 21.3325 17.445C21.3296 18.0334 21.0946 18.5969 20.6785 19.013C20.2624 19.4291 19.6989 19.6642 19.1105 19.6671Z"
        fill="#fff" stroke="#fff" stroke-width="0.75" />
</svg>