<svg width="46" height="50" viewBox="0 0 46 50" fill="none" xmlns="http://www.w3.org/2000/svg">
<mask id="path-1-outside-1_1272_4163" maskUnits="userSpaceOnUse" x="0" y="0" width="46" height="50" fill="black">
<rect fill="white" width="46" height="50"/>
<path d="M1 15.1818C1 14.8925 1.10536 14.615 1.29289 14.4104C1.48043 14.2058 1.73478 14.0909 2 14.0909H22C22.9889 14.0909 23.9556 13.771 24.7778 13.1717C25.6001 12.5723 26.241 11.7204 26.6194 10.7237C26.9978 9.72704 27.0969 8.63031 26.9039 7.57224C26.711 6.51416 26.2348 5.54225 25.5355 4.77942C24.8363 4.01659 23.9454 3.49709 22.9755 3.28663C22.0055 3.07616 21.0002 3.18418 20.0866 3.59702C19.173 4.00987 18.3921 4.70899 17.8426 5.60598C17.2932 6.50298 17 7.55756 17 8.63637C17 8.92569 16.8946 9.20317 16.7071 9.40775C16.5196 9.61234 16.2652 9.72727 16 9.72727C15.7348 9.72727 15.4804 9.61234 15.2929 9.40775C15.1054 9.20317 15 8.92569 15 8.63637C15 7.12604 15.4105 5.64962 16.1797 4.39383C16.9489 3.13804 18.0421 2.15927 19.3212 1.58129C20.6003 1.00331 22.0078 0.852083 23.3656 1.14673C24.7235 1.44138 25.9708 2.16868 26.9497 3.23664C27.9287 4.30461 28.5954 5.66528 28.8655 7.14658C29.1356 8.62789 28.997 10.1633 28.4672 11.5587C27.9373 12.954 27.0401 14.1467 25.889 14.9858C24.7378 15.8249 23.3845 16.2727 22 16.2727H2C1.73478 16.2727 1.48043 16.1578 1.29289 15.9532C1.10536 15.7486 1 15.4711 1 15.1818ZM2 22.8182H38C39.3845 22.8182 40.7378 22.3703 41.889 21.5312C43.0401 20.6921 43.9373 19.4995 44.4672 18.1041C44.997 16.7088 45.1356 15.1733 44.8655 13.692C44.5954 12.2107 43.9287 10.8501 42.9497 9.7821C41.9708 8.71413 40.7235 7.98684 39.3656 7.69219C38.0078 7.39754 36.6003 7.54876 35.3212 8.12674C34.0421 8.70472 32.9489 9.68349 32.1797 10.9393C31.4105 12.1951 31 13.6715 31 15.1818C31 15.4711 31.1054 15.7486 31.2929 15.9532C31.4804 16.1578 31.7348 16.2727 32 16.2727C32.2652 16.2727 32.5196 16.1578 32.7071 15.9532C32.8946 15.7486 33 15.4711 33 15.1818C33 14.103 33.2932 13.0484 33.8426 12.1514C34.3921 11.2544 35.173 10.5553 36.0866 10.1425C37.0002 9.72963 38.0055 9.62162 38.9754 9.83208C39.9454 10.0425 40.8363 10.562 41.5355 11.3249C42.2348 12.0877 42.711 13.0596 42.9039 14.1177C43.0969 15.1758 42.9978 16.2725 42.6194 17.2692C42.241 18.2659 41.6001 19.1178 40.7778 19.7171C39.9556 20.3165 38.9889 20.6364 38 20.6364H2C1.73478 20.6364 1.48043 20.7513 1.29289 20.9559C1.10536 21.1605 1 21.4379 1 21.7273C1 22.0166 1.10536 22.2941 1.29289 22.4987C1.48043 22.7032 1.73478 22.8182 2 22.8182ZM38 27.1818H2C1.73478 27.1818 1.48043 27.2968 1.29289 27.5013C1.10536 27.7059 1 27.9834 1 28.2727C1 28.5621 1.10536 28.8395 1.29289 29.0441C1.48043 29.2487 1.73478 29.3636 2 29.3636H38C38.9889 29.3636 39.9556 29.6835 40.7778 30.2829C41.6001 30.8822 42.241 31.7341 42.6194 32.7308C42.9978 33.7275 43.0969 34.8242 42.9039 35.8823C42.711 36.9404 42.2348 37.9123 41.5355 38.6751C40.8363 39.438 39.9454 39.9575 38.9754 40.1679C38.0055 40.3784 37.0002 40.2704 36.0866 39.8575C35.173 39.4447 34.3921 38.7456 33.8426 37.8486C33.2932 36.9516 33 35.897 33 34.8182C33 34.5289 32.8946 34.2514 32.7071 34.0468C32.5196 33.8422 32.2652 33.7273 32 33.7273C31.7348 33.7273 31.4804 33.8422 31.2929 34.0468C31.1054 34.2514 31 34.5289 31 34.8182C31 36.3285 31.4105 37.8049 32.1797 39.0607C32.9489 40.3165 34.0421 41.2953 35.3212 41.8733C36.6003 42.4512 38.0078 42.6025 39.3656 42.3078C40.7235 42.0132 41.9708 41.2859 42.9497 40.2179C43.9287 39.1499 44.5954 37.7893 44.8655 36.308C45.1356 34.8266 44.997 33.2912 44.4672 31.8959C43.9373 30.5005 43.0401 29.3079 41.889 28.4688C40.7378 27.6297 39.3845 27.1818 38 27.1818ZM22 33.7273H2C1.73478 33.7273 1.48043 33.8422 1.29289 34.0468C1.10536 34.2514 1 34.5289 1 34.8182C1 35.1075 1.10536 35.385 1.29289 35.5896C1.48043 35.7942 1.73478 35.9091 2 35.9091H22C22.9889 35.9091 23.9556 36.229 24.7778 36.8283C25.6001 37.4277 26.241 38.2796 26.6194 39.2763C26.9978 40.273 27.0969 41.3697 26.9039 42.4278C26.711 43.4858 26.2348 44.4577 25.5355 45.2206C24.8363 45.9834 23.9454 46.5029 22.9755 46.7134C22.0055 46.9238 21.0002 46.8158 20.0866 46.403C19.173 45.9901 18.3921 45.291 17.8426 44.394C17.2932 43.497 17 42.4424 17 41.3636C17 41.0743 16.8946 40.7968 16.7071 40.5922C16.5196 40.3877 16.2652 40.2727 16 40.2727C15.7348 40.2727 15.4804 40.3877 15.2929 40.5922C15.1054 40.7968 15 41.0743 15 41.3636C15 42.874 15.4105 44.3504 16.1797 45.6062C16.9489 46.862 18.0421 47.8407 19.3212 48.4187C20.6003 48.9967 22.0078 49.1479 23.3656 48.8533C24.7235 48.5586 25.9708 47.8313 26.9497 46.7634C27.9287 45.6954 28.5954 44.3347 28.8655 42.8534C29.1356 41.3721 28.997 39.8367 28.4672 38.4413C27.9373 37.046 27.0401 35.8533 25.889 35.0142C24.7378 34.1751 23.3845 33.7273 22 33.7273Z"/>
</mask>
<path d="M1 15.1818C1 14.8925 1.10536 14.615 1.29289 14.4104C1.48043 14.2058 1.73478 14.0909 2 14.0909H22C22.9889 14.0909 23.9556 13.771 24.7778 13.1717C25.6001 12.5723 26.241 11.7204 26.6194 10.7237C26.9978 9.72704 27.0969 8.63031 26.9039 7.57224C26.711 6.51416 26.2348 5.54225 25.5355 4.77942C24.8363 4.01659 23.9454 3.49709 22.9755 3.28663C22.0055 3.07616 21.0002 3.18418 20.0866 3.59702C19.173 4.00987 18.3921 4.70899 17.8426 5.60598C17.2932 6.50298 17 7.55756 17 8.63637C17 8.92569 16.8946 9.20317 16.7071 9.40775C16.5196 9.61234 16.2652 9.72727 16 9.72727C15.7348 9.72727 15.4804 9.61234 15.2929 9.40775C15.1054 9.20317 15 8.92569 15 8.63637C15 7.12604 15.4105 5.64962 16.1797 4.39383C16.9489 3.13804 18.0421 2.15927 19.3212 1.58129C20.6003 1.00331 22.0078 0.852083 23.3656 1.14673C24.7235 1.44138 25.9708 2.16868 26.9497 3.23664C27.9287 4.30461 28.5954 5.66528 28.8655 7.14658C29.1356 8.62789 28.997 10.1633 28.4672 11.5587C27.9373 12.954 27.0401 14.1467 25.889 14.9858C24.7378 15.8249 23.3845 16.2727 22 16.2727H2C1.73478 16.2727 1.48043 16.1578 1.29289 15.9532C1.10536 15.7486 1 15.4711 1 15.1818ZM2 22.8182H38C39.3845 22.8182 40.7378 22.3703 41.889 21.5312C43.0401 20.6921 43.9373 19.4995 44.4672 18.1041C44.997 16.7088 45.1356 15.1733 44.8655 13.692C44.5954 12.2107 43.9287 10.8501 42.9497 9.7821C41.9708 8.71413 40.7235 7.98684 39.3656 7.69219C38.0078 7.39754 36.6003 7.54876 35.3212 8.12674C34.0421 8.70472 32.9489 9.68349 32.1797 10.9393C31.4105 12.1951 31 13.6715 31 15.1818C31 15.4711 31.1054 15.7486 31.2929 15.9532C31.4804 16.1578 31.7348 16.2727 32 16.2727C32.2652 16.2727 32.5196 16.1578 32.7071 15.9532C32.8946 15.7486 33 15.4711 33 15.1818C33 14.103 33.2932 13.0484 33.8426 12.1514C34.3921 11.2544 35.173 10.5553 36.0866 10.1425C37.0002 9.72963 38.0055 9.62162 38.9754 9.83208C39.9454 10.0425 40.8363 10.562 41.5355 11.3249C42.2348 12.0877 42.711 13.0596 42.9039 14.1177C43.0969 15.1758 42.9978 16.2725 42.6194 17.2692C42.241 18.2659 41.6001 19.1178 40.7778 19.7171C39.9556 20.3165 38.9889 20.6364 38 20.6364H2C1.73478 20.6364 1.48043 20.7513 1.29289 20.9559C1.10536 21.1605 1 21.4379 1 21.7273C1 22.0166 1.10536 22.2941 1.29289 22.4987C1.48043 22.7032 1.73478 22.8182 2 22.8182ZM38 27.1818H2C1.73478 27.1818 1.48043 27.2968 1.29289 27.5013C1.10536 27.7059 1 27.9834 1 28.2727C1 28.5621 1.10536 28.8395 1.29289 29.0441C1.48043 29.2487 1.73478 29.3636 2 29.3636H38C38.9889 29.3636 39.9556 29.6835 40.7778 30.2829C41.6001 30.8822 42.241 31.7341 42.6194 32.7308C42.9978 33.7275 43.0969 34.8242 42.9039 35.8823C42.711 36.9404 42.2348 37.9123 41.5355 38.6751C40.8363 39.438 39.9454 39.9575 38.9754 40.1679C38.0055 40.3784 37.0002 40.2704 36.0866 39.8575C35.173 39.4447 34.3921 38.7456 33.8426 37.8486C33.2932 36.9516 33 35.897 33 34.8182C33 34.5289 32.8946 34.2514 32.7071 34.0468C32.5196 33.8422 32.2652 33.7273 32 33.7273C31.7348 33.7273 31.4804 33.8422 31.2929 34.0468C31.1054 34.2514 31 34.5289 31 34.8182C31 36.3285 31.4105 37.8049 32.1797 39.0607C32.9489 40.3165 34.0421 41.2953 35.3212 41.8733C36.6003 42.4512 38.0078 42.6025 39.3656 42.3078C40.7235 42.0132 41.9708 41.2859 42.9497 40.2179C43.9287 39.1499 44.5954 37.7893 44.8655 36.308C45.1356 34.8266 44.997 33.2912 44.4672 31.8959C43.9373 30.5005 43.0401 29.3079 41.889 28.4688C40.7378 27.6297 39.3845 27.1818 38 27.1818ZM22 33.7273H2C1.73478 33.7273 1.48043 33.8422 1.29289 34.0468C1.10536 34.2514 1 34.5289 1 34.8182C1 35.1075 1.10536 35.385 1.29289 35.5896C1.48043 35.7942 1.73478 35.9091 2 35.9091H22C22.9889 35.9091 23.9556 36.229 24.7778 36.8283C25.6001 37.4277 26.241 38.2796 26.6194 39.2763C26.9978 40.273 27.0969 41.3697 26.9039 42.4278C26.711 43.4858 26.2348 44.4577 25.5355 45.2206C24.8363 45.9834 23.9454 46.5029 22.9755 46.7134C22.0055 46.9238 21.0002 46.8158 20.0866 46.403C19.173 45.9901 18.3921 45.291 17.8426 44.394C17.2932 43.497 17 42.4424 17 41.3636C17 41.0743 16.8946 40.7968 16.7071 40.5922C16.5196 40.3877 16.2652 40.2727 16 40.2727C15.7348 40.2727 15.4804 40.3877 15.2929 40.5922C15.1054 40.7968 15 41.0743 15 41.3636C15 42.874 15.4105 44.3504 16.1797 45.6062C16.9489 46.862 18.0421 47.8407 19.3212 48.4187C20.6003 48.9967 22.0078 49.1479 23.3656 48.8533C24.7235 48.5586 25.9708 47.8313 26.9497 46.7634C27.9287 45.6954 28.5954 44.3347 28.8655 42.8534C29.1356 41.3721 28.997 39.8367 28.4672 38.4413C27.9373 37.046 27.0401 35.8533 25.889 35.0142C24.7378 34.1751 23.3845 33.7273 22 33.7273Z" fill="white"/>
<path d="M1 15.1818C1 14.8925 1.10536 14.615 1.29289 14.4104C1.48043 14.2058 1.73478 14.0909 2 14.0909H22C22.9889 14.0909 23.9556 13.771 24.7778 13.1717C25.6001 12.5723 26.241 11.7204 26.6194 10.7237C26.9978 9.72704 27.0969 8.63031 26.9039 7.57224C26.711 6.51416 26.2348 5.54225 25.5355 4.77942C24.8363 4.01659 23.9454 3.49709 22.9755 3.28663C22.0055 3.07616 21.0002 3.18418 20.0866 3.59702C19.173 4.00987 18.3921 4.70899 17.8426 5.60598C17.2932 6.50298 17 7.55756 17 8.63637C17 8.92569 16.8946 9.20317 16.7071 9.40775C16.5196 9.61234 16.2652 9.72727 16 9.72727C15.7348 9.72727 15.4804 9.61234 15.2929 9.40775C15.1054 9.20317 15 8.92569 15 8.63637C15 7.12604 15.4105 5.64962 16.1797 4.39383C16.9489 3.13804 18.0421 2.15927 19.3212 1.58129C20.6003 1.00331 22.0078 0.852083 23.3656 1.14673C24.7235 1.44138 25.9708 2.16868 26.9497 3.23664C27.9287 4.30461 28.5954 5.66528 28.8655 7.14658C29.1356 8.62789 28.997 10.1633 28.4672 11.5587C27.9373 12.954 27.0401 14.1467 25.889 14.9858C24.7378 15.8249 23.3845 16.2727 22 16.2727H2C1.73478 16.2727 1.48043 16.1578 1.29289 15.9532C1.10536 15.7486 1 15.4711 1 15.1818ZM2 22.8182H38C39.3845 22.8182 40.7378 22.3703 41.889 21.5312C43.0401 20.6921 43.9373 19.4995 44.4672 18.1041C44.997 16.7088 45.1356 15.1733 44.8655 13.692C44.5954 12.2107 43.9287 10.8501 42.9497 9.7821C41.9708 8.71413 40.7235 7.98684 39.3656 7.69219C38.0078 7.39754 36.6003 7.54876 35.3212 8.12674C34.0421 8.70472 32.9489 9.68349 32.1797 10.9393C31.4105 12.1951 31 13.6715 31 15.1818C31 15.4711 31.1054 15.7486 31.2929 15.9532C31.4804 16.1578 31.7348 16.2727 32 16.2727C32.2652 16.2727 32.5196 16.1578 32.7071 15.9532C32.8946 15.7486 33 15.4711 33 15.1818C33 14.103 33.2932 13.0484 33.8426 12.1514C34.3921 11.2544 35.173 10.5553 36.0866 10.1425C37.0002 9.72963 38.0055 9.62162 38.9754 9.83208C39.9454 10.0425 40.8363 10.562 41.5355 11.3249C42.2348 12.0877 42.711 13.0596 42.9039 14.1177C43.0969 15.1758 42.9978 16.2725 42.6194 17.2692C42.241 18.2659 41.6001 19.1178 40.7778 19.7171C39.9556 20.3165 38.9889 20.6364 38 20.6364H2C1.73478 20.6364 1.48043 20.7513 1.29289 20.9559C1.10536 21.1605 1 21.4379 1 21.7273C1 22.0166 1.10536 22.2941 1.29289 22.4987C1.48043 22.7032 1.73478 22.8182 2 22.8182ZM38 27.1818H2C1.73478 27.1818 1.48043 27.2968 1.29289 27.5013C1.10536 27.7059 1 27.9834 1 28.2727C1 28.5621 1.10536 28.8395 1.29289 29.0441C1.48043 29.2487 1.73478 29.3636 2 29.3636H38C38.9889 29.3636 39.9556 29.6835 40.7778 30.2829C41.6001 30.8822 42.241 31.7341 42.6194 32.7308C42.9978 33.7275 43.0969 34.8242 42.9039 35.8823C42.711 36.9404 42.2348 37.9123 41.5355 38.6751C40.8363 39.438 39.9454 39.9575 38.9754 40.1679C38.0055 40.3784 37.0002 40.2704 36.0866 39.8575C35.173 39.4447 34.3921 38.7456 33.8426 37.8486C33.2932 36.9516 33 35.897 33 34.8182C33 34.5289 32.8946 34.2514 32.7071 34.0468C32.5196 33.8422 32.2652 33.7273 32 33.7273C31.7348 33.7273 31.4804 33.8422 31.2929 34.0468C31.1054 34.2514 31 34.5289 31 34.8182C31 36.3285 31.4105 37.8049 32.1797 39.0607C32.9489 40.3165 34.0421 41.2953 35.3212 41.8733C36.6003 42.4512 38.0078 42.6025 39.3656 42.3078C40.7235 42.0132 41.9708 41.2859 42.9497 40.2179C43.9287 39.1499 44.5954 37.7893 44.8655 36.308C45.1356 34.8266 44.997 33.2912 44.4672 31.8959C43.9373 30.5005 43.0401 29.3079 41.889 28.4688C40.7378 27.6297 39.3845 27.1818 38 27.1818ZM22 33.7273H2C1.73478 33.7273 1.48043 33.8422 1.29289 34.0468C1.10536 34.2514 1 34.5289 1 34.8182C1 35.1075 1.10536 35.385 1.29289 35.5896C1.48043 35.7942 1.73478 35.9091 2 35.9091H22C22.9889 35.9091 23.9556 36.229 24.7778 36.8283C25.6001 37.4277 26.241 38.2796 26.6194 39.2763C26.9978 40.273 27.0969 41.3697 26.9039 42.4278C26.711 43.4858 26.2348 44.4577 25.5355 45.2206C24.8363 45.9834 23.9454 46.5029 22.9755 46.7134C22.0055 46.9238 21.0002 46.8158 20.0866 46.403C19.173 45.9901 18.3921 45.291 17.8426 44.394C17.2932 43.497 17 42.4424 17 41.3636C17 41.0743 16.8946 40.7968 16.7071 40.5922C16.5196 40.3877 16.2652 40.2727 16 40.2727C15.7348 40.2727 15.4804 40.3877 15.2929 40.5922C15.1054 40.7968 15 41.0743 15 41.3636C15 42.874 15.4105 44.3504 16.1797 45.6062C16.9489 46.862 18.0421 47.8407 19.3212 48.4187C20.6003 48.9967 22.0078 49.1479 23.3656 48.8533C24.7235 48.5586 25.9708 47.8313 26.9497 46.7634C27.9287 45.6954 28.5954 44.3347 28.8655 42.8534C29.1356 41.3721 28.997 39.8367 28.4672 38.4413C27.9373 37.046 27.0401 35.8533 25.889 35.0142C24.7378 34.1751 23.3845 33.7273 22 33.7273Z" stroke="white" stroke-width="0.642213" mask="url(#path-1-outside-1_1272_4163)"/>
</svg>
