<svg width="35" height="49" viewBox="0 0 35 49" fill="none" xmlns="http://www.w3.org/2000/svg">
    <path
        d="M12.9767 5.6882C12.9767 8.3673 15.2062 10.5424 17.9371 10.5424C20.6663 10.5424 22.8975 8.40589 22.8975 5.72516C22.8975 3.04525 20.6293 0.870941 17.9371 0.870941C15.2465 0.870941 12.9767 3.00667 12.9767 5.6882ZM14.8095 5.72516C14.8095 4.04321 16.2082 2.67037 17.9371 2.67037C19.666 2.67037 21.0647 4.04321 21.0647 5.72516C21.0647 7.4071 19.666 8.77995 17.9371 8.77995C16.2082 8.77995 14.8095 7.4071 14.8095 5.72516Z"
        fill="#1D2B49" stroke="#1D2B49" stroke-width="0.321107" />
    <path
        d="M22.6343 17.8116L22.6341 17.8121L22.6466 17.8162L22.6564 17.8193C22.763 17.8541 22.8973 17.898 23.0365 17.898C23.2349 17.898 23.4184 17.8033 23.5399 17.7241L23.5532 17.7154L23.5645 17.7044L23.5838 17.6855C23.6543 17.6507 23.7398 17.6056 23.8248 17.5238L33.5335 9.28593C33.5335 9.28588 33.5336 9.28583 33.5336 9.28579C34.6988 8.30337 34.8189 6.57394 33.815 5.43511L33.8151 5.43503L33.8107 5.43044C33.2541 4.84724 32.4951 4.49374 31.6914 4.49374C31.011 4.49374 30.3702 4.72887 29.8505 5.15888L29.8505 5.15887L29.8487 5.16043L20.9712 12.7332C20.7862 12.8711 20.6461 13.1002 20.6461 13.3764C20.6461 13.639 20.7374 13.8659 20.9212 14.0455C21.6841 14.7916 22.1201 15.8221 22.1201 16.8874V16.9983C22.1201 17.3489 22.3016 17.6722 22.6343 17.8116ZM32.4007 6.60634L32.4015 6.60725C32.7552 7.01607 32.6957 7.58088 32.3039 7.93346L23.6994 15.2281C23.5338 14.6106 23.2391 14.045 22.8407 13.5107L31.0383 6.51469C31.2297 6.3594 31.4901 6.28586 31.7475 6.30209C32.0053 6.31835 32.2449 6.42355 32.4007 6.60634Z"
        fill="#1D2B49" stroke="#1D2B49" stroke-width="0.321107" />
    <path
        d="M1.42304 40.5068L1.42298 40.5069L1.42679 40.5104C2.06042 41.0913 2.85479 41.4026 3.68957 41.4026C4.56018 41.4026 5.35722 41.0924 5.9561 40.5068L16.6429 30.0565H17.5885V45.0118C17.5885 46.73 19.0244 48.129 20.7726 48.129C22.5194 48.129 23.9579 46.7309 23.919 45.01V16.8867C23.919 13.6902 21.2359 11.0716 17.9759 11.0716H17.9003C14.6403 11.0716 11.9572 13.6902 11.9572 16.8867V25.763L1.42304 36.064L1.42298 36.064L1.41939 36.0677C0.82593 36.6867 0.505462 37.428 0.505462 38.2854C0.505462 39.1399 0.823957 39.921 1.42304 40.5068ZM2.63133 37.2876C2.32897 37.5832 2.17779 37.9528 2.17779 38.3224C2.17779 38.692 2.32897 39.0985 2.63133 39.3572C2.93368 39.6529 3.31163 39.8007 3.68957 39.8007C4.06751 39.8007 4.48325 39.6529 4.74781 39.3572L15.7082 28.6394C15.8594 28.4916 16.0483 28.4176 16.2373 28.4176H18.4672C18.8829 28.4176 19.2231 28.7503 19.2231 29.1568V45.0118C19.2231 45.8248 19.9034 46.4901 20.7349 46.4901C21.5663 46.4901 22.2466 45.8248 22.2466 45.0118V16.8867C22.2466 14.5954 20.3191 12.7105 17.9759 12.7105H17.9003C15.557 12.7105 13.6295 14.5954 13.6295 16.8867V26.2002C13.6295 26.3849 13.5539 26.5697 13.4027 26.7176L2.63133 37.2876ZM2.74378 37.4021L13.515 26.8324C13.6957 26.6557 13.7901 26.4301 13.7901 26.2002V16.8867C13.7901 14.6874 15.6423 12.871 17.9003 12.871H17.9759C20.2339 12.871 22.0861 14.6874 22.0861 16.8867V45.0118C22.0861 45.7328 21.4811 46.3295 20.7349 46.3295C19.9886 46.3295 19.3836 45.7328 19.3836 45.0118V29.1568C19.3836 28.6582 18.9682 28.2571 18.4672 28.2571H16.2373C16.0056 28.2571 15.7765 28.348 15.5959 28.5246L4.63556 39.2424L4.63531 39.2421L4.62817 39.2501C4.39988 39.5053 4.03136 39.6401 3.68957 39.6401C3.35439 39.6401 3.01651 39.5093 2.74358 39.2424L2.74383 39.2422L2.73571 39.2352C2.47491 39.0121 2.33835 38.6534 2.33835 38.3224C2.33835 37.9979 2.47072 37.6692 2.74358 37.4023L2.74378 37.4021Z"
        fill="#1D2B49" stroke="#1D2B49" stroke-width="0.321107" />
    <path
        d="M3.03828 25.5288L3.03817 25.5289L3.04288 25.5338C3.59951 26.117 4.35848 26.4705 5.16212 26.4705C5.84853 26.4705 6.48837 26.1942 7.00302 25.7684L7.00303 25.7684L7.0048 25.7669L13.4676 20.2602L13.4679 20.2605L13.4758 20.2528C13.6444 20.0879 13.7886 19.8643 13.7886 19.5836V16.8857C13.7886 15.999 14.0781 15.1478 14.6218 14.4372C14.9077 14.1061 14.848 13.6112 14.5803 13.3058C14.3056 12.9924 13.8083 12.9008 13.4375 13.1228C13.351 13.1659 13.2775 13.2178 13.215 13.2648C13.1941 13.2806 13.1751 13.2952 13.1575 13.3087C13.1175 13.3395 13.0843 13.3651 13.0491 13.388L13.0406 13.3935L13.0329 13.4001L3.3197 21.6417L3.31965 21.6416L3.31565 21.6453C2.76272 22.1473 2.39675 22.7759 2.35619 23.5295C2.3162 24.2725 2.55645 24.9791 3.03828 25.5288ZM4.54545 23.0343L4.54548 23.0343L4.54824 23.032L11.9569 16.7106C11.9557 16.7681 11.9557 16.8243 11.9557 16.8789V16.8857V19.1769L5.81527 24.4126C5.62391 24.5679 5.36342 24.6414 5.10609 24.6252C4.84829 24.6089 4.60862 24.5037 4.45285 24.321L4.44811 24.3154L4.4429 24.3103C4.29827 24.1689 4.22664 23.9248 4.22664 23.649C4.22664 23.4115 4.34764 23.1955 4.54545 23.0343Z"
        fill="#1D2B49" stroke="#1D2B49" stroke-width="0.321107" />
</svg>