<svg width="35" height="49" viewBox="0 0 35 49" fill="none" xmlns="http://www.w3.org/2000/svg">
<path d="M13.0543 5.6882C13.0543 8.3673 15.2839 10.5424 18.0147 10.5424C20.7439 10.5424 22.9752 8.40589 22.9752 5.72516C22.9752 3.04525 20.707 0.870941 18.0147 0.870941C15.3242 0.870941 13.0543 3.00667 13.0543 5.6882ZM14.8872 5.72516C14.8872 4.04321 16.2859 2.67037 18.0147 2.67037C19.7436 2.67037 21.1423 4.04321 21.1423 5.72516C21.1423 7.4071 19.7436 8.77995 18.0147 8.77995C16.2859 8.77995 14.8872 7.4071 14.8872 5.72516Z" fill="white" stroke="white" stroke-width="0.321107"/>
<path d="M22.7124 17.8116L22.7122 17.8121L22.7247 17.8162L22.7345 17.8193C22.8411 17.8541 22.9754 17.898 23.1146 17.898C23.313 17.898 23.4965 17.8033 23.6181 17.7241L23.6313 17.7154L23.6426 17.7044L23.662 17.6855C23.7324 17.6507 23.8179 17.6056 23.9029 17.5238L33.6116 9.28593C33.6116 9.28588 33.6117 9.28583 33.6117 9.28579C34.777 8.30337 34.8971 6.57394 33.8931 5.43511L33.8932 5.43503L33.8888 5.43044C33.3322 4.84724 32.5732 4.49374 31.7696 4.49374C31.0891 4.49374 30.4484 4.72887 29.9287 5.15888L29.9287 5.15887L29.9268 5.16043L21.0494 12.7332C20.8643 12.8711 20.7242 13.1002 20.7242 13.3764C20.7242 13.639 20.8156 13.8659 20.9993 14.0455C21.7623 14.7916 22.1982 15.8221 22.1982 16.8874V16.9983C22.1982 17.3489 22.3798 17.6722 22.7124 17.8116ZM32.4788 6.60634L32.4796 6.60725C32.8334 7.01607 32.7739 7.58088 32.3821 7.93346L23.7775 15.2281C23.612 14.6106 23.3172 14.045 22.9188 13.5107L31.1164 6.51469C31.3078 6.3594 31.5683 6.28586 31.8256 6.30209C32.0834 6.31835 32.3231 6.42355 32.4788 6.60634Z" fill="white" stroke="white" stroke-width="0.321107"/>
<path d="M1.50116 40.5068L1.5011 40.5069L1.50492 40.5104C2.13855 41.0913 2.93291 41.4026 3.76769 41.4026C4.6383 41.4026 5.43535 41.0924 6.03423 40.5068L16.721 30.0565H17.6667V45.0118C17.6667 46.73 19.1026 48.129 20.8508 48.129C22.5975 48.129 24.036 46.7309 23.9971 45.01V16.8867C23.9971 13.6902 21.314 11.0716 18.054 11.0716H17.9784C14.7184 11.0716 12.0353 13.6902 12.0353 16.8867V25.763L1.50116 36.064L1.5011 36.064L1.49752 36.0677C0.904055 36.6867 0.583587 37.428 0.583587 38.2854C0.583587 39.1399 0.902082 39.921 1.50116 40.5068ZM2.70945 37.2876C2.4071 37.5832 2.25592 37.9528 2.25592 38.3224C2.25592 38.692 2.4071 39.0985 2.70945 39.3572C3.01181 39.6529 3.38975 39.8007 3.76769 39.8007C4.14564 39.8007 4.56138 39.6529 4.82594 39.3572L15.7863 28.6394C15.9375 28.4916 16.1265 28.4176 16.3154 28.4176H18.5453C18.9611 28.4176 19.3012 28.7503 19.3012 29.1568V45.0118C19.3012 45.8248 19.9815 46.4901 20.813 46.4901C21.6445 46.4901 22.3248 45.8248 22.3248 45.0118V16.8867C22.3248 14.5954 20.3972 12.7105 18.054 12.7105H17.9784C15.6351 12.7105 13.7076 14.5954 13.7076 16.8867V26.2002C13.7076 26.3849 13.632 26.5697 13.4809 26.7176L2.70945 37.2876ZM2.8219 37.4021L13.5931 26.8324C13.7738 26.6557 13.8682 26.4301 13.8682 26.2002V16.8867C13.8682 14.6874 15.7204 12.871 17.9784 12.871H18.054C20.312 12.871 22.1642 14.6874 22.1642 16.8867V45.0118C22.1642 45.7328 21.5592 46.3295 20.813 46.3295C20.0668 46.3295 19.4618 45.7328 19.4618 45.0118V29.1568C19.4618 28.6582 19.0463 28.2571 18.5453 28.2571H16.3154C16.0837 28.2571 15.8547 28.348 15.6741 28.5246L4.71369 39.2424L4.71344 39.2421L4.70629 39.2501C4.478 39.5053 4.10948 39.6401 3.76769 39.6401C3.43251 39.6401 3.09464 39.5093 2.8217 39.2424L2.82195 39.2422L2.81383 39.2352C2.55303 39.0121 2.41647 38.6534 2.41647 38.3224C2.41647 37.9979 2.54885 37.6692 2.8217 37.4023L2.8219 37.4021Z" fill="white" stroke="white" stroke-width="0.321107"/>
<path d="M3.11665 25.5288L3.11654 25.5289L3.12125 25.5338C3.67788 26.117 4.43685 26.4705 5.24049 26.4705C5.9269 26.4705 6.56674 26.1942 7.08139 25.7684L7.0814 25.7684L7.08316 25.7669L13.546 20.2602L13.5463 20.2605L13.5541 20.2528C13.7228 20.0879 13.867 19.8643 13.867 19.5836V16.8857C13.867 15.999 14.1565 15.1478 14.7001 14.4372C14.9861 14.1061 14.9264 13.6112 14.6587 13.3058C14.3839 12.9924 13.8866 12.9008 13.5158 13.1228C13.4294 13.1659 13.3559 13.2178 13.2934 13.2648C13.2724 13.2806 13.2535 13.2952 13.2359 13.3087C13.1959 13.3395 13.1626 13.3651 13.1274 13.388L13.119 13.3935L13.1112 13.4001L3.39807 21.6417L3.39802 21.6416L3.39402 21.6453C2.84109 22.1473 2.47512 22.7759 2.43456 23.5295C2.39457 24.2725 2.63482 24.9791 3.11665 25.5288ZM4.62382 23.0343L4.62385 23.0343L4.62661 23.032L12.0352 16.7106C12.0341 16.7681 12.0341 16.8243 12.0341 16.8789V16.8857V19.1769L5.89364 24.4126C5.70228 24.5679 5.44179 24.6414 5.18446 24.6252C4.92666 24.6089 4.68699 24.5037 4.53122 24.321L4.52648 24.3154L4.52127 24.3103C4.37664 24.1689 4.30501 23.9248 4.30501 23.649C4.30501 23.4115 4.42601 23.1955 4.62382 23.0343Z" fill="white" stroke="white" stroke-width="0.321107"/>
</svg>
