<svg width="18" height="66" viewBox="0 0 18 66" fill="none" xmlns="http://www.w3.org/2000/svg">
<path d="M9 0.75L0.574229 15.883L17.8926 15.6134L9 0.75ZM8.37215 56.7971C8.37278 56.8379 8.37341 56.8785 8.37404 56.919C8.37467 56.9594 8.3753 56.9997 8.37592 57.0398C8.37655 57.08 8.37717 57.1199 8.37779 57.1597C8.37841 57.1994 8.37903 57.239 8.37964 57.2785C8.38025 57.3179 8.38086 57.3571 8.38147 57.3962C8.38208 57.4353 8.38269 57.4742 8.38329 57.513C8.38389 57.5517 8.38449 57.5903 8.38509 57.6287C8.38569 57.6671 8.38628 57.7053 8.38687 57.7434C8.38747 57.7814 8.38806 57.8193 8.38864 57.857C8.38923 57.8948 8.38982 57.9323 8.3904 57.9697C8.39098 58.0071 8.39156 58.0443 8.39213 58.0813C8.39271 58.1184 8.39329 58.1552 8.39386 58.192C8.39443 58.2287 8.395 58.2652 8.39556 58.3016C8.39613 58.3379 8.39669 58.3742 8.39725 58.4102C8.39781 58.4462 8.39837 58.4821 8.39893 58.5178C8.39948 58.5535 8.40004 58.589 8.40059 58.6244C8.40114 58.6598 8.40169 58.695 8.40223 58.73C8.40278 58.7651 8.40332 58.7999 8.40386 58.8347C8.4044 58.8694 8.40494 58.9039 8.40547 58.9383C8.40601 58.9727 8.40654 59.0069 8.40707 59.0409C8.4076 59.075 8.40813 59.1089 8.40865 59.1426C8.40918 59.1763 8.4097 59.2099 8.41022 59.2433C8.41074 59.2767 8.41126 59.3099 8.41177 59.343C8.41229 59.376 8.4128 59.4089 8.41331 59.4417C8.41382 59.4744 8.41432 59.507 8.41483 59.5394C8.41533 59.5719 8.41584 59.6041 8.41634 59.6362C8.41683 59.6683 8.41733 59.7002 8.41783 59.732C8.41832 59.7638 8.41881 59.7954 8.4193 59.8268C8.41979 59.8583 8.42028 59.8896 8.42076 59.9207C8.42125 59.9519 8.42173 59.9828 8.42221 60.0136C8.42269 60.0444 8.42317 60.0751 8.42364 60.1056C8.42412 60.1361 8.42459 60.1664 8.42506 60.1966C8.42553 60.2268 8.42599 60.2568 8.42646 60.2866C8.42692 60.3165 8.42739 60.3462 8.42785 60.3758C8.42831 60.4053 8.42876 60.4347 8.42922 60.4639C8.42967 60.4931 8.43013 60.5222 8.43058 60.5511C8.43103 60.58 8.43147 60.6088 8.43192 60.6374C8.43236 60.666 8.43281 60.6944 8.43325 60.7227C8.43369 60.751 8.43412 60.7791 8.43456 60.8071C8.435 60.8351 8.43543 60.8629 8.43586 60.8906C8.43629 60.9183 8.43672 60.9458 8.43714 60.9731C8.43757 61.0005 8.43799 61.0277 8.43841 61.0547C8.43883 61.0818 8.43925 61.1087 8.43967 61.1354C8.44009 61.1622 8.4405 61.1888 8.44091 61.2152C8.44132 61.2416 8.44173 61.2679 8.44214 61.294C8.44254 61.3202 8.44295 61.3461 8.44335 61.372C8.44375 61.3978 8.44415 61.4235 8.44455 61.449C8.44495 61.4745 8.44534 61.4999 8.44573 61.5251C8.44613 61.5503 8.44652 61.5754 8.4469 61.6003C8.44729 61.6252 8.44768 61.65 8.44806 61.6746C8.44844 61.6992 8.44883 61.7237 8.4492 61.748C8.44958 61.7723 8.44996 61.7965 8.45033 61.8205C8.45071 61.8445 8.45108 61.8684 8.45145 61.8921C8.45182 61.9158 8.45218 61.9394 8.45255 61.9628C8.45291 61.9862 8.45327 62.0095 8.45363 62.0326C8.45399 62.0557 8.45435 62.0787 8.45471 62.1016C8.45506 62.1244 8.45541 62.1471 8.45577 62.1696C8.45612 62.1921 8.45646 62.2145 8.45681 62.2368C8.45716 62.259 8.4575 62.2811 8.45784 62.303C8.45818 62.325 8.45852 62.3468 8.45886 62.3685C8.4592 62.3901 8.45953 62.4116 8.45986 62.433C8.4602 62.4544 8.46053 62.4756 8.46086 62.4967C8.46118 62.5177 8.46151 62.5387 8.46183 62.5595C8.46216 62.5802 8.46248 62.6009 8.4628 62.6214C8.46312 62.6419 8.46343 62.6623 8.46375 62.6825C8.46406 62.7027 8.46437 62.7227 8.46468 62.7427C8.465 62.7626 8.4653 62.7824 8.46561 62.802C8.46591 62.8217 8.46622 62.8412 8.46652 62.8605C8.46682 62.8799 8.46712 62.8991 8.46742 62.9182C8.46771 62.9373 8.46801 62.9562 8.4683 62.975C8.46859 62.9938 8.46888 63.0124 8.46917 63.0309C8.46946 63.0494 8.46975 63.0678 8.47003 63.0861C8.47031 63.1043 8.47059 63.1224 8.47087 63.1403C8.47115 63.1583 8.47143 63.1761 8.47171 63.1938C8.47198 63.2114 8.47225 63.229 8.47252 63.2464C8.4728 63.2638 8.47306 63.281 8.47333 63.2981C8.4736 63.3153 8.47386 63.3322 8.47412 63.3491C8.47439 63.3659 8.47465 63.3826 8.4749 63.3992C8.47516 63.4158 8.47542 63.4322 8.47567 63.4485C8.47592 63.4648 8.47618 63.4809 8.47642 63.497C8.47667 63.513 8.47692 63.5289 8.47717 63.5446C8.47741 63.5604 8.47765 63.576 8.4779 63.5915C8.47814 63.6069 8.47838 63.6223 8.47861 63.6375C8.47885 63.6527 8.47908 63.6678 8.47932 63.6827C8.47955 63.6977 8.47978 63.7125 8.48001 63.7271C8.48024 63.7418 8.48046 63.7563 8.48069 63.7707C8.48091 63.7851 8.48113 63.7994 8.48135 63.8136C8.48157 63.8277 8.48179 63.8417 8.48201 63.8556C8.48222 63.8694 8.48244 63.8832 8.48265 63.8968C8.48286 63.9104 8.48307 63.9239 8.48328 63.9372C8.48348 63.9506 8.48369 63.9638 8.48389 63.9768C8.4841 63.9899 8.4843 64.0029 8.4845 64.0157C8.4847 64.0285 8.4849 64.0412 8.48509 64.0538C8.48529 64.0663 8.48548 64.0788 8.48567 64.0911C8.48586 64.1033 8.48605 64.1155 8.48624 64.1276C8.48643 64.1396 8.48661 64.1515 8.4868 64.1633C8.48698 64.1751 8.48716 64.1867 8.48734 64.1983C8.48752 64.2098 8.4877 64.2212 8.48787 64.2324C8.48805 64.2437 8.48822 64.2549 8.48839 64.2659C8.48856 64.2769 8.48873 64.2878 8.4889 64.2985C8.48907 64.3093 8.48923 64.3199 8.4894 64.3304C8.48956 64.3409 8.48972 64.3513 8.48988 64.3616C8.49004 64.3718 8.4902 64.3819 8.49035 64.3919C8.49051 64.4019 8.49066 64.4118 8.49082 64.4216C8.49097 64.4313 8.49112 64.441 8.49127 64.4505C8.49141 64.46 8.49156 64.4693 8.4917 64.4786C8.49185 64.4878 8.49199 64.497 8.49213 64.506C8.49227 64.515 8.49241 64.5239 8.49254 64.5326C8.49268 64.5414 8.49281 64.55 8.49295 64.5585C8.49308 64.567 8.49321 64.5754 8.49334 64.5837C8.49347 64.592 8.49359 64.6001 8.49372 64.6081C8.49384 64.6162 8.49397 64.6241 8.49409 64.6318C8.49421 64.6396 8.49433 64.6473 8.49445 64.6548C8.49456 64.6624 8.49468 64.6698 8.49479 64.6771C8.49491 64.6844 8.49502 64.6916 8.49513 64.6986C8.49524 64.7057 8.49535 64.7126 8.49545 64.7194C8.49556 64.7263 8.49566 64.733 8.49576 64.7395C8.49587 64.7461 8.49597 64.7526 8.49607 64.7589C8.49616 64.7653 8.49626 64.7715 8.49636 64.7776C8.49645 64.7837 8.49654 64.7897 8.49664 64.7956C8.49673 64.8014 8.49682 64.8072 8.49691 64.8128C8.49699 64.8184 8.49708 64.824 8.49716 64.8294C8.49725 64.8348 8.49733 64.8401 8.49741 64.8452C8.49749 64.8504 8.49757 64.8555 8.49765 64.8604C8.49772 64.8653 8.4978 64.8702 8.49787 64.8749C8.49794 64.8796 8.49802 64.8842 8.49809 64.8886C8.49815 64.8931 8.49822 64.8975 8.49829 64.9017C8.49835 64.906 8.49842 64.9101 8.49848 64.9141C8.49854 64.9181 8.49861 64.9221 8.49866 64.9258C8.49872 64.9296 8.49878 64.9333 8.49884 64.9369C8.49889 64.9405 8.49895 64.9439 8.499 64.9472C8.49905 64.9506 8.4991 64.9538 8.49915 64.9569C8.4992 64.96 8.49924 64.9631 8.49929 64.9659C8.49933 64.9688 8.49938 64.9716 8.49942 64.9743C8.49946 64.977 8.4995 64.9795 8.49954 64.982C8.49958 64.9844 8.49961 64.9868 8.49965 64.989C8.49968 64.9912 8.49971 64.9933 8.49975 64.9953C8.49978 64.9974 8.49981 64.9993 8.49983 65.001C8.49986 65.0028 8.49989 65.0045 8.49991 65.0061C8.49994 65.0077 8.49996 65.0091 8.49998 65.0105C8.5 65.0118 8.50002 65.0131 8.50004 65.0142C8.50006 65.0154 8.50007 65.0164 8.50009 65.0173C8.5001 65.0182 8.50012 65.0191 8.50013 65.0198C8.50014 65.0205 8.50015 65.0211 8.50015 65.0216C8.50016 65.0221 8.50017 65.0225 8.50017 65.0228C8.50018 65.023 8.50018 65.0232 8.50018 65.0233C10 65 11.4998 64.9767 11.4998 64.9765C11.4998 64.9764 11.4998 64.9761 11.4998 64.9758C11.4998 64.9755 11.4998 64.975 11.4998 64.9745C11.4998 64.9739 11.4998 64.9732 11.4998 64.9725C11.4997 64.9717 11.4997 64.9709 11.4997 64.9699C11.4997 64.9689 11.4997 64.9678 11.4997 64.9667C11.4996 64.9655 11.4996 64.9642 11.4996 64.9628C11.4996 64.9615 11.4996 64.96 11.4995 64.9584C11.4995 64.9568 11.4995 64.9551 11.4995 64.9533C11.4994 64.9516 11.4994 64.9497 11.4994 64.9477C11.4993 64.9457 11.4993 64.9436 11.4993 64.9414C11.4992 64.9392 11.4992 64.9369 11.4992 64.9346C11.4991 64.9322 11.4991 64.9297 11.499 64.9271C11.499 64.9245 11.499 64.9218 11.4989 64.919C11.4989 64.9163 11.4988 64.9134 11.4988 64.9104C11.4987 64.9074 11.4987 64.9043 11.4986 64.9011C11.4986 64.898 11.4985 64.8947 11.4985 64.8913C11.4984 64.8879 11.4984 64.8845 11.4983 64.8809C11.4983 64.8773 11.4982 64.8737 11.4982 64.8699C11.4981 64.8661 11.498 64.8623 11.498 64.8583C11.4979 64.8544 11.4979 64.8503 11.4978 64.8462C11.4977 64.842 11.4977 64.8378 11.4976 64.8334C11.4975 64.8291 11.4975 64.8247 11.4974 64.8201C11.4973 64.8156 11.4972 64.811 11.4972 64.8063C11.4971 64.8016 11.497 64.7968 11.4969 64.7918C11.4969 64.7869 11.4968 64.7819 11.4967 64.7769C11.4966 64.7718 11.4965 64.7666 11.4965 64.7613C11.4964 64.756 11.4963 64.7507 11.4962 64.7452C11.4961 64.7397 11.496 64.7342 11.496 64.7285C11.4959 64.7229 11.4958 64.7172 11.4957 64.7113C11.4956 64.7055 11.4955 64.6996 11.4954 64.6936C11.4953 64.6875 11.4952 64.6814 11.4951 64.6753C11.495 64.6691 11.4949 64.6628 11.4948 64.6564C11.4947 64.65 11.4946 64.6436 11.4945 64.637C11.4944 64.6305 11.4943 64.6238 11.4942 64.6171C11.4941 64.6103 11.494 64.6035 11.4939 64.5966C11.4938 64.5897 11.4937 64.5827 11.4936 64.5756C11.4935 64.5685 11.4934 64.5614 11.4932 64.5541C11.4931 64.5468 11.493 64.5395 11.4929 64.5321C11.4928 64.5246 11.4927 64.5171 11.4925 64.5095C11.4924 64.5019 11.4923 64.4942 11.4922 64.4864C11.4921 64.4786 11.4919 64.4707 11.4918 64.4628C11.4917 64.4548 11.4916 64.4468 11.4914 64.4387C11.4913 64.4305 11.4912 64.4223 11.4911 64.414C11.4909 64.4057 11.4908 64.3973 11.4907 64.3889C11.4905 64.3804 11.4904 64.3719 11.4903 64.3632C11.4901 64.3546 11.49 64.3459 11.4899 64.3371C11.4897 64.3283 11.4896 64.3194 11.4894 64.3104C11.4893 64.3015 11.4892 64.2924 11.489 64.2833C11.4889 64.2741 11.4887 64.2649 11.4886 64.2556C11.4885 64.2463 11.4883 64.2369 11.4882 64.2275C11.488 64.218 11.4879 64.2085 11.4877 64.1988C11.4876 64.1892 11.4874 64.1795 11.4873 64.1697C11.4871 64.1599 11.487 64.1501 11.4868 64.1401C11.4866 64.1302 11.4865 64.1202 11.4863 64.1101C11.4862 64.0999 11.486 64.0898 11.4859 64.0795C11.4857 64.0692 11.4855 64.0589 11.4854 64.0485C11.4852 64.038 11.485 64.0275 11.4849 64.0169C11.4847 64.0064 11.4846 63.9957 11.4844 63.985C11.4842 63.9742 11.484 63.9634 11.4839 63.9525C11.4837 63.9416 11.4835 63.9307 11.4834 63.9196C11.4832 63.9086 11.483 63.8974 11.4828 63.8862C11.4827 63.875 11.4825 63.8638 11.4823 63.8524C11.4821 63.8411 11.482 63.8296 11.4818 63.8181C11.4816 63.8066 11.4814 63.7951 11.4812 63.7834C11.4811 63.7717 11.4809 63.76 11.4807 63.7482C11.4805 63.7364 11.4803 63.7245 11.4801 63.7126C11.48 63.7006 11.4798 63.6886 11.4796 63.6765C11.4794 63.6644 11.4792 63.6522 11.479 63.64C11.4788 63.6277 11.4786 63.6154 11.4784 63.603C11.4782 63.5906 11.4781 63.5782 11.4779 63.5656C11.4777 63.5531 11.4775 63.5405 11.4773 63.5278C11.4771 63.5151 11.4769 63.5023 11.4767 63.4895C11.4765 63.4767 11.4763 63.4638 11.4761 63.4508C11.4759 63.4379 11.4757 63.4248 11.4755 63.4117C11.4753 63.3986 11.4751 63.3854 11.4748 63.3722C11.4746 63.3589 11.4744 63.3456 11.4742 63.3322C11.474 63.3188 11.4738 63.3054 11.4736 63.2919C11.4734 63.2783 11.4732 63.2647 11.473 63.2511C11.4727 63.2374 11.4725 63.2237 11.4723 63.2099C11.4721 63.1961 11.4719 63.1822 11.4717 63.1683C11.4715 63.1543 11.4712 63.1403 11.471 63.1263C11.4708 63.1122 11.4706 63.098 11.4704 63.0838C11.4701 63.0696 11.4699 63.0554 11.4697 63.041C11.4695 63.0267 11.4692 63.0123 11.469 62.9978C11.4688 62.9833 11.4686 62.9688 11.4683 62.9542C11.4681 62.9396 11.4679 62.9249 11.4677 62.9102C11.4674 62.8955 11.4672 62.8807 11.467 62.8658C11.4667 62.851 11.4665 62.836 11.4663 62.8211C11.466 62.8061 11.4658 62.791 11.4656 62.7759C11.4653 62.7608 11.4651 62.7456 11.4649 62.7304C11.4646 62.7151 11.4644 62.6998 11.4641 62.6845C11.4639 62.6691 11.4637 62.6537 11.4634 62.6382C11.4632 62.6227 11.4629 62.6071 11.4627 62.5915C11.4625 62.5759 11.4622 62.5602 11.462 62.5445C11.4617 62.5288 11.4615 62.513 11.4612 62.4971C11.461 62.4812 11.4607 62.4653 11.4605 62.4493C11.4602 62.4334 11.46 62.4173 11.4597 62.4012C11.4595 62.3851 11.4592 62.369 11.459 62.3528C11.4587 62.3365 11.4585 62.3203 11.4582 62.3039C11.458 62.2876 11.4577 62.2712 11.4575 62.2547C11.4572 62.2383 11.4569 62.2218 11.4567 62.2052C11.4564 62.1886 11.4562 62.172 11.4559 62.1553C11.4556 62.1387 11.4554 62.1219 11.4551 62.1051C11.4549 62.0883 11.4546 62.0715 11.4543 62.0546C11.4541 62.0376 11.4538 62.0207 11.4535 62.0037C11.4533 61.9866 11.453 61.9696 11.4527 61.9524C11.4525 61.9353 11.4522 61.9181 11.4519 61.9009C11.4517 61.8836 11.4514 61.8663 11.4511 61.849C11.4509 61.8316 11.4506 61.8142 11.4503 61.7967C11.4501 61.7793 11.4498 61.7618 11.4495 61.7442C11.4492 61.7266 11.449 61.709 11.4487 61.6913C11.4484 61.6736 11.4481 61.6559 11.4479 61.6381C11.4476 61.6203 11.4473 61.6025 11.447 61.5846C11.4467 61.5667 11.4465 61.5488 11.4462 61.5308C11.4459 61.5128 11.4456 61.4948 11.4453 61.4767C11.4451 61.4586 11.4448 61.4404 11.4445 61.4222C11.4442 61.404 11.4439 61.3858 11.4436 61.3675C11.4434 61.3492 11.4431 61.3309 11.4428 61.3125C11.4425 61.2941 11.4422 61.2756 11.4419 61.2571C11.4416 61.2386 11.4414 61.2201 11.4411 61.2015C11.4408 61.1829 11.4405 61.1642 11.4402 61.1456C11.4399 61.1269 11.4396 61.1081 11.4393 61.0893C11.439 61.0706 11.4387 61.0517 11.4384 61.0328C11.4381 61.0139 11.4378 60.995 11.4376 60.976C11.4373 60.9571 11.437 60.938 11.4367 60.919C11.4364 60.8999 11.4361 60.8808 11.4358 60.8616C11.4355 60.8424 11.4352 60.8232 11.4349 60.804C11.4346 60.7847 11.4343 60.7654 11.434 60.7461C11.4337 60.7267 11.4334 60.7073 11.4331 60.6879C11.4328 60.6685 11.4325 60.649 11.4322 60.6295C11.4319 60.6099 11.4315 60.5904 11.4312 60.5708C11.4309 60.5511 11.4306 60.5315 11.4303 60.5118C11.43 60.4921 11.4297 60.4723 11.4294 60.4525C11.4291 60.4328 11.4288 60.4129 11.4285 60.3931C11.4282 60.3732 11.4279 60.3533 11.4275 60.3333C11.4272 60.3134 11.4269 60.2934 11.4266 60.2733C11.4263 60.2533 11.426 60.2332 11.4257 60.2131C11.4254 60.193 11.4251 60.1728 11.4247 60.1526C11.4244 60.1324 11.4241 60.1122 11.4238 60.0919C11.4235 60.0716 11.4232 60.0513 11.4228 60.0309C11.4225 60.0105 11.4222 59.9901 11.4219 59.9697C11.4216 59.9493 11.4213 59.9288 11.4209 59.9083C11.4206 59.8877 11.4203 59.8672 11.42 59.8466C11.4197 59.826 11.4193 59.8054 11.419 59.7847C11.4187 59.764 11.4184 59.7433 11.418 59.7226C11.4177 59.7018 11.4174 59.681 11.4171 59.6602C11.4167 59.6394 11.4164 59.6185 11.4161 59.5976C11.4158 59.5767 11.4154 59.5558 11.4151 59.5348C11.4148 59.5139 11.4145 59.4929 11.4141 59.4718C11.4138 59.4508 11.4135 59.4297 11.4132 59.4086C11.4128 59.3875 11.4125 59.3664 11.4122 59.3452C11.4118 59.324 11.4115 59.3028 11.4112 59.2816C11.4108 59.2603 11.4105 59.239 11.4102 59.2177C11.4099 59.1964 11.4095 59.1751 11.4092 59.1537C11.4089 59.1323 11.4085 59.1109 11.4082 59.0895C11.4079 59.068 11.4075 59.0465 11.4072 59.025C11.4069 59.0035 11.4065 58.982 11.4062 58.9604C11.4058 58.9388 11.4055 58.9172 11.4052 58.8956C11.4048 58.874 11.4045 58.8523 11.4042 58.8306C11.4038 58.8089 11.4035 58.7872 11.4031 58.7654C11.4028 58.7437 11.4025 58.7219 11.4021 58.7001C11.4018 58.6782 11.4014 58.6564 11.4011 58.6345C11.4008 58.6126 11.4004 58.5907 11.4001 58.5688C11.3997 58.5469 11.3994 58.5249 11.3991 58.5029C11.3987 58.4809 11.3984 58.4589 11.398 58.4368C11.3977 58.4148 11.3973 58.3927 11.397 58.3706C11.3967 58.3485 11.3963 58.3264 11.396 58.3042C11.3956 58.2821 11.3953 58.2599 11.3949 58.2377C11.3946 58.2155 11.3942 58.1932 11.3939 58.171C11.3935 58.1487 11.3932 58.1264 11.3929 58.1041C11.3925 58.0818 11.3922 58.0594 11.3918 58.0371C11.3915 58.0147 11.3911 57.9923 11.3908 57.9699C11.3904 57.9475 11.3901 57.925 11.3897 57.9026C11.3894 57.8801 11.389 57.8576 11.3887 57.8351C11.3883 57.8126 11.388 57.7901 11.3876 57.7675C11.3873 57.745 11.3869 57.7224 11.3866 57.6998C11.3862 57.6772 11.3859 57.6545 11.3855 57.6319C11.3852 57.6092 11.3848 57.5866 11.3844 57.5639C11.3841 57.5412 11.3837 57.5185 11.3834 57.4957C11.383 57.473 11.3827 57.4502 11.3823 57.4275C11.382 57.4047 11.3816 57.3819 11.3813 57.3591C11.3809 57.3362 11.3805 57.3134 11.3802 57.2905C11.3798 57.2677 11.3795 57.2448 11.3791 57.2219C11.3788 57.199 11.3784 57.1761 11.3781 57.1531C11.3777 57.1302 11.3773 57.1072 11.377 57.0843C11.3766 57.0613 11.3763 57.0383 11.3759 57.0153C11.3755 56.9923 11.3752 56.9692 11.3748 56.9462C11.3745 56.9231 11.3741 56.9001 11.3738 56.877C11.3734 56.8539 11.373 56.8308 11.3727 56.8077C11.3723 56.7846 11.372 56.7614 11.3716 56.7383C11.3712 56.7151 11.3709 56.692 11.3705 56.6688C11.3702 56.6456 11.3698 56.6224 11.3694 56.5992C11.3691 56.576 11.3687 56.5528 11.3683 56.5295C11.368 56.5063 11.3676 56.483 11.3673 56.4598C11.3669 56.4365 11.3665 56.4132 11.3662 56.3899C11.3658 56.3666 11.3654 56.3433 11.3651 56.32C11.3647 56.2966 11.3644 56.2733 11.364 56.2499C11.3636 56.2266 11.3633 56.2032 11.3629 56.1798C11.3625 56.1565 11.3622 56.1331 11.3618 56.1097C11.3614 56.0863 11.3611 56.0628 11.3607 56.0394C11.3604 56.016 11.36 55.9926 11.3596 55.9691C11.3593 55.9457 11.3589 55.9222 11.3585 55.8987C11.3582 55.8753 11.3578 55.8518 11.3574 55.8283C11.3571 55.8048 11.3567 55.7813 11.3563 55.7578C11.356 55.7343 11.3556 55.7107 11.3552 55.6872C11.3549 55.6637 11.3545 55.6401 11.3541 55.6166C11.3538 55.5931 11.3534 55.5695 11.353 55.5459C11.3527 55.5224 11.3523 55.4988 11.3519 55.4752C11.3516 55.4516 11.3512 55.428 11.3508 55.4044C11.3505 55.3809 11.3501 55.3572 11.3497 55.3336C11.3494 55.31 11.349 55.2864 11.3486 55.2628C11.3483 55.2392 11.3479 55.2155 11.3475 55.1919C11.3472 55.1683 11.3468 55.1446 11.3464 55.121C11.3461 55.0973 11.3457 55.0737 11.3453 55.05C11.3449 55.0264 11.3446 55.0027 11.3442 54.979C11.3438 54.9554 11.3435 54.9317 11.3431 54.908C11.3427 54.8843 11.3424 54.8607 11.342 54.837C11.3416 54.8133 11.3413 54.7896 11.3409 54.7659C11.3405 54.7422 11.3402 54.7185 11.3398 54.6948C11.3394 54.6711 11.3391 54.6474 11.3387 54.6237C11.3383 54.6 11.3379 54.5763 11.3376 54.5526C11.3372 54.5289 11.3368 54.5052 11.3365 54.4815C11.3361 54.4578 11.3357 54.4341 11.3354 54.4104C11.335 54.3867 11.3346 54.363 11.3343 54.3393C11.3339 54.3156 11.3335 54.2918 11.3331 54.2681C11.3328 54.2444 11.3324 54.2207 11.332 54.197C11.3317 54.1733 11.3313 54.1496 11.3309 54.1259C11.3306 54.1022 11.3302 54.0785 11.3298 54.0548C11.3295 54.0311 11.3291 54.0073 11.3287 53.9836C11.3284 53.9599 11.328 53.9362 11.3276 53.9125C11.3272 53.8888 11.3269 53.8652 11.3265 53.8415C11.3261 53.8178 11.3258 53.7941 11.3254 53.7704C11.325 53.7467 11.3247 53.723 11.3243 53.6994C11.3239 53.6757 11.3236 53.652 11.3232 53.6283C11.3228 53.6047 11.3225 53.581 11.3221 53.5573C11.3217 53.5337 11.3213 53.51 11.321 53.4864C11.3206 53.4627 11.3202 53.4391 11.3199 53.4154C11.3195 53.3918 11.3191 53.3682 11.3188 53.3445C11.3184 53.3209 11.318 53.2973 11.3177 53.2737C11.3173 53.2501 11.3169 53.2264 11.3166 53.2028C11.3162 53.1792 11.3158 53.1557 11.3155 53.1321C11.3151 53.1085 11.3147 53.0849 11.3144 53.0613C11.314 53.0378 11.3136 53.0142 11.3133 52.9906C11.3129 52.9671 11.3125 52.9435 11.3122 52.92C11.3118 52.8965 11.3114 52.873 11.3111 52.8494C11.3107 52.8259 11.3103 52.8024 11.31 52.7789C11.3096 52.7554 11.3092 52.7319 11.3089 52.7084C11.3085 52.685 11.3081 52.6615 11.3078 52.638C11.3074 52.6146 11.307 52.5911 11.3067 52.5677C11.3063 52.5443 11.306 52.5209 11.3056 52.4974C11.3052 52.474 11.3049 52.4506 11.3045 52.4272C11.3041 52.4039 11.3038 52.3805 11.3034 52.3571C11.303 52.3338 11.3027 52.3104 11.3023 52.2871C11.302 52.2637 11.3016 52.2404 11.3012 52.2171C11.3009 52.1938 11.3005 52.1705 11.3001 52.1472C11.2998 52.1239 11.2994 52.1007 11.2991 52.0774C11.2987 52.0542 11.2983 52.0309 11.298 52.0077C11.2976 51.9845 11.2972 51.9613 11.2969 51.9381C11.2965 51.9149 11.2962 51.8917 11.2958 51.8686C11.2954 51.8454 11.2951 51.8223 11.2947 51.7991C11.2944 51.776 11.294 51.7529 11.2936 51.7298C11.2933 51.7067 11.2929 51.6836 11.2926 51.6606C11.2922 51.6375 11.2918 51.6145 11.2915 51.5915C11.2911 51.5684 11.2908 51.5454 11.2904 51.5224C11.2901 51.4994 11.2897 51.4765 11.2893 51.4535C11.289 51.4306 11.2886 51.4076 11.2883 51.3847C11.2879 51.3618 11.2876 51.3389 11.2872 51.3161C11.2868 51.2932 11.2865 51.2703 11.2861 51.2475C11.2858 51.2247 11.2854 51.2019 11.2851 51.1791C11.2847 51.1563 11.2844 51.1335 11.284 51.1107C11.2837 51.088 11.2833 51.0653 11.2829 51.0426C11.2826 51.0199 11.2822 50.9972 11.2819 50.9745C11.2815 50.9518 11.2812 50.9292 11.2808 50.9066C11.2805 50.884 11.2801 50.8614 11.2798 50.8388C11.2794 50.8162 11.2791 50.7937 11.2787 50.7711C11.2784 50.7486 11.278 50.7261 11.2777 50.7036C11.2773 50.6811 11.277 50.6587 11.2766 50.6363C11.2763 50.6138 11.2759 50.5914 11.2756 50.569C11.2752 50.5467 11.2749 50.5243 11.2745 50.502C11.2742 50.4796 11.2738 50.4573 11.2735 50.4351C11.2731 50.4128 11.2728 50.3905 11.2725 50.3683C11.2721 50.3461 11.2718 50.3239 11.2714 50.3017C11.2711 50.2795 11.2707 50.2574 11.2704 50.2352C11.27 50.2131 11.2697 50.191 11.2693 50.169C11.269 50.1469 11.2687 50.1249 11.2683 50.1028C11.268 50.0808 11.2676 50.0589 11.2673 50.0369C11.267 50.0149 11.2666 49.993 11.2663 49.9711C11.2659 49.9492 11.2656 49.9274 11.2652 49.9055C11.2649 49.8837 11.2646 49.8619 11.2642 49.8401C11.2639 49.8183 11.2636 49.7966 11.2632 49.7749C11.2629 49.7532 11.2625 49.7315 11.2622 49.7098C11.2619 49.6882 11.2615 49.6665 11.2612 49.6449C11.2609 49.6233 11.2605 49.6018 11.2602 49.5803C11.2599 49.5587 11.2595 49.5372 11.2592 49.5158C11.2588 49.4943 11.2585 49.4729 11.2582 49.4515C11.2578 49.4301 11.2575 49.4087 11.2572 49.3874C11.2569 49.366 11.2565 49.3447 11.2562 49.3235C11.2559 49.3022 11.2555 49.281 11.2552 49.2598C11.2549 49.2386 11.2545 49.2174 11.2542 49.1963C11.2539 49.1751 11.2536 49.1541 11.2532 49.133C11.2529 49.1119 11.2526 49.0909 11.2522 49.0699C11.2519 49.0489 11.2516 49.028 11.2513 49.0071C11.2509 48.9861 11.2506 48.9653 11.2503 48.9444C11.25 48.9236 11.2496 48.9028 11.2493 48.882C11.249 48.8612 11.2487 48.8405 11.2483 48.8198C11.248 48.7991 11.2477 48.7784 11.2474 48.7578C11.2471 48.7372 11.2467 48.7166 11.2464 48.6961C11.2461 48.6755 11.2458 48.655 11.2455 48.6346C11.2451 48.6141 11.2448 48.5937 11.2445 48.5733C11.2442 48.5529 11.2439 48.5325 11.2436 48.5122C11.2432 48.4919 11.2429 48.4717 11.2426 48.4514C11.2423 48.4312 11.242 48.411 11.2417 48.3909C11.2414 48.3707 11.241 48.3506 11.2407 48.3305C11.2404 48.3105 11.2401 48.2905 11.2398 48.2705C11.2395 48.2505 11.2392 48.2305 11.2389 48.2107C11.2386 48.1908 11.2383 48.1709 11.2379 48.1511C11.2376 48.1313 11.2373 48.1115 11.237 48.0918C11.2367 48.072 11.2364 48.0524 11.2361 48.0327C11.2358 48.0131 11.2355 47.9935 11.2352 47.9739C11.2349 47.9544 11.2346 47.9349 11.2343 47.9154C11.234 47.8959 11.2337 47.8765 11.2334 47.8571C11.2331 47.8378 11.2328 47.8184 11.2325 47.7991C11.2322 47.7799 11.2319 47.7606 11.2316 47.7414C11.2313 47.7222 11.231 47.7031 11.2307 47.684C11.2304 47.6649 11.2301 47.6458 11.2298 47.6268C11.2295 47.6078 11.2292 47.5889 11.2289 47.5699C11.2286 47.551 11.2283 47.5322 11.228 47.5133C11.2277 47.4945 11.2274 47.4757 11.2271 47.457C11.2268 47.4383 11.2266 47.4196 11.2263 47.401C11.226 47.3824 11.2257 47.3638 11.2254 47.3453C11.2251 47.3267 11.2248 47.3083 11.2245 47.2898C11.2243 47.2714 11.224 47.253 11.2237 47.2347C11.2234 47.2164 11.2231 47.1981 11.2228 47.1799C11.2225 47.1616 11.2223 47.1435 11.222 47.1253C11.2217 47.1072 11.2214 47.0891 11.2211 47.0711C11.2209 47.0531 11.2206 47.0351 11.2203 47.0172C11.22 46.9993 11.2197 46.9814 11.2195 46.9636C11.2192 46.9458 11.2189 46.928 11.2186 46.9103C11.2184 46.8926 11.2181 46.8749 11.2178 46.8573C11.2175 46.8397 11.2173 46.8222 11.217 46.8047C11.2167 46.7872 11.2164 46.7697 11.2162 46.7523C11.2159 46.7349 11.2156 46.7176 11.2154 46.7003C11.2151 46.6831 11.2148 46.6658 11.2146 46.6487C11.2143 46.6315 11.214 46.6144 11.2138 46.5973C11.2135 46.5803 11.2132 46.5633 11.213 46.5463C11.2127 46.5294 11.2124 46.5125 11.2122 46.4956C11.2119 46.4788 11.2117 46.462 11.2114 46.4453C11.2111 46.4286 11.2109 46.4119 11.2106 46.3953C11.2104 46.3787 11.2101 46.3622 11.2098 46.3457C11.2096 46.3292 11.2093 46.3128 11.2091 46.2964C11.2088 46.28 11.2086 46.2637 11.2083 46.2474C11.2081 46.2312 11.2078 46.215 11.2076 46.1989C11.2073 46.1827 11.2071 46.1666 11.2068 46.1506C11.2066 46.1346 11.2063 46.1186 11.2061 46.1028C11.2058 46.0869 11.2056 46.071 11.2053 46.0552C11.2051 46.0395 11.2048 46.0238 11.2046 46.0081C11.2043 45.9924 11.2041 45.9769 11.2039 45.9613C11.2036 45.9458 11.2034 45.9303 11.2031 45.9149C11.2029 45.8995 11.2027 45.8842 11.2024 45.8689C11.2022 45.8536 11.2019 45.8384 11.2017 45.8232C11.2015 45.8081 11.2012 45.793 11.201 45.778C11.2008 45.7629 11.2005 45.748 11.2003 45.7331C11.2001 45.7182 11.1998 45.7033 11.1996 45.6886C11.1994 45.6738 11.1992 45.6591 11.1989 45.6444C11.1987 45.6298 11.1985 45.6152 11.1982 45.6007L8.19861 45.6474C8.19884 45.6619 8.19906 45.6765 8.19929 45.6911C8.19952 45.7058 8.19975 45.7205 8.19998 45.7352C8.20021 45.75 8.20044 45.7648 8.20067 45.7798C8.2009 45.7947 8.20114 45.8096 8.20137 45.8246C8.2016 45.8397 8.20184 45.8548 8.20207 45.8699C8.20231 45.8851 8.20255 45.9003 8.20278 45.9156C8.20302 45.9309 8.20326 45.9462 8.2035 45.9616C8.20374 45.977 8.20398 45.9925 8.20422 46.008C8.20446 46.0235 8.20471 46.0391 8.20495 46.0548C8.20519 46.0704 8.20544 46.0862 8.20569 46.1019C8.20593 46.1177 8.20618 46.1335 8.20642 46.1494C8.20667 46.1653 8.20692 46.1813 8.20717 46.1973C8.20742 46.2133 8.20767 46.2294 8.20792 46.2455C8.20817 46.2617 8.20842 46.2779 8.20868 46.2941C8.20893 46.3104 8.20918 46.3267 8.20944 46.3431C8.20969 46.3594 8.20995 46.3759 8.21021 46.3924C8.21046 46.4089 8.21072 46.4254 8.21098 46.442C8.21124 46.4586 8.2115 46.4753 8.21176 46.492C8.21202 46.5087 8.21228 46.5255 8.21254 46.5423C8.2128 46.5592 8.21306 46.5761 8.21333 46.593C8.21359 46.6099 8.21386 46.6269 8.21412 46.644C8.21439 46.6611 8.21465 46.6782 8.21492 46.6953C8.21519 46.7125 8.21546 46.7297 8.21573 46.747C8.21599 46.7643 8.21626 46.7816 8.21653 46.799C8.21681 46.8164 8.21708 46.8339 8.21735 46.8514C8.21762 46.8689 8.21789 46.8864 8.21817 46.904C8.21844 46.9216 8.21872 46.9393 8.21899 46.957C8.21927 46.9747 8.21955 46.9925 8.21982 47.0103C8.2201 47.0281 8.22038 47.046 8.22066 47.0639C8.22094 47.0818 8.22122 47.0998 8.2215 47.1178C8.22178 47.1358 8.22206 47.1539 8.22234 47.172C8.22262 47.1901 8.22291 47.2083 8.22319 47.2265C8.22347 47.2448 8.22376 47.2631 8.22404 47.2814C8.22433 47.2997 8.22461 47.3181 8.2249 47.3365C8.22519 47.355 8.22547 47.3734 8.22576 47.392C8.22605 47.4105 8.22634 47.4291 8.22663 47.4477C8.22692 47.4663 8.22721 47.485 8.2275 47.5037C8.22779 47.5224 8.22809 47.5412 8.22838 47.56C8.22867 47.5788 8.22897 47.5977 8.22926 47.6166C8.22955 47.6355 8.22985 47.6545 8.23015 47.6735C8.23044 47.6925 8.23074 47.7116 8.23103 47.7307C8.23133 47.7498 8.23163 47.7689 8.23193 47.7881C8.23223 47.8073 8.23253 47.8265 8.23283 47.8458C8.23313 47.8651 8.23343 47.8844 8.23373 47.9038C8.23403 47.9232 8.23433 47.9426 8.23464 47.9621C8.23494 47.9815 8.23524 48.0011 8.23555 48.0206C8.23585 48.0402 8.23616 48.0598 8.23646 48.0794C8.23677 48.099 8.23707 48.1187 8.23738 48.1385C8.23769 48.1582 8.238 48.178 8.23831 48.1978C8.23861 48.2176 8.23892 48.2374 8.23923 48.2573C8.23954 48.2772 8.23985 48.2972 8.24016 48.3172C8.24047 48.3371 8.24079 48.3572 8.2411 48.3772C8.24141 48.3973 8.24172 48.4174 8.24204 48.4376C8.24235 48.4577 8.24266 48.4779 8.24298 48.4981C8.24329 48.5183 8.24361 48.5386 8.24393 48.5589C8.24424 48.5792 8.24456 48.5996 8.24488 48.62C8.24519 48.6404 8.24551 48.6608 8.24583 48.6813C8.24615 48.7017 8.24647 48.7222 8.24679 48.7428C8.24711 48.7633 8.24743 48.7839 8.24775 48.8045C8.24807 48.8251 8.24839 48.8458 8.24871 48.8665C8.24904 48.8872 8.24936 48.9079 8.24968 48.9287C8.25 48.9495 8.25033 48.9703 8.25065 48.9911C8.25098 49.012 8.2513 49.0328 8.25163 49.0538C8.25195 49.0747 8.25228 49.0956 8.25261 49.1166C8.25293 49.1376 8.25326 49.1586 8.25359 49.1797C8.25392 49.2007 8.25424 49.2218 8.25457 49.243C8.2549 49.2641 8.25523 49.2853 8.25556 49.3065C8.25589 49.3277 8.25622 49.3489 8.25655 49.3702C8.25688 49.3914 8.25721 49.4127 8.25755 49.4341C8.25788 49.4554 8.25821 49.4768 8.25854 49.4982C8.25888 49.5196 8.25921 49.541 8.25955 49.5625C8.25988 49.5839 8.26021 49.6054 8.26055 49.6269C8.26088 49.6485 8.26122 49.67 8.26156 49.6916C8.26189 49.7132 8.26223 49.7348 8.26257 49.7565C8.2629 49.7782 8.26324 49.7998 8.26358 49.8216C8.26392 49.8433 8.26425 49.865 8.26459 49.8868C8.26493 49.9086 8.26527 49.9304 8.26561 49.9522C8.26595 49.9741 8.26629 49.9959 8.26663 50.0178C8.26697 50.0397 8.26731 50.0616 8.26766 50.0836C8.268 50.1055 8.26834 50.1275 8.26868 50.1495C8.26903 50.1715 8.26937 50.1936 8.26971 50.2156C8.27006 50.2377 8.2704 50.2598 8.27074 50.2819C8.27109 50.304 8.27143 50.3262 8.27178 50.3484C8.27212 50.3705 8.27247 50.3927 8.27281 50.415C8.27316 50.4372 8.27351 50.4595 8.27385 50.4817C8.2742 50.504 8.27455 50.5263 8.27489 50.5487C8.27524 50.571 8.27559 50.5933 8.27594 50.6157C8.27629 50.6381 8.27664 50.6605 8.27698 50.6829C8.27733 50.7054 8.27768 50.7278 8.27803 50.7503C8.27838 50.7728 8.27873 50.7953 8.27908 50.8178C8.27943 50.8403 8.27979 50.8629 8.28014 50.8855C8.28049 50.908 8.28084 50.9306 8.28119 50.9533C8.28154 50.9759 8.2819 50.9985 8.28225 51.0212C8.2826 51.0439 8.28296 51.0665 8.28331 51.0892C8.28366 51.1119 8.28402 51.1347 8.28437 51.1574C8.28472 51.1802 8.28508 51.203 8.28543 51.2257C8.28579 51.2485 8.28614 51.2714 8.2865 51.2942C8.28685 51.317 8.28721 51.3399 8.28757 51.3627C8.28792 51.3856 8.28828 51.4085 8.28863 51.4314C8.28899 51.4543 8.28935 51.4773 8.2897 51.5002C8.29006 51.5232 8.29042 51.5461 8.29078 51.5691C8.29114 51.5921 8.29149 51.6151 8.29185 51.6381C8.29221 51.6612 8.29257 51.6842 8.29293 51.7073C8.29329 51.7303 8.29365 51.7534 8.29401 51.7765C8.29436 51.7996 8.29472 51.8227 8.29508 51.8458C8.29544 51.869 8.2958 51.8921 8.29616 51.9153C8.29653 51.9384 8.29689 51.9616 8.29725 51.9848C8.29761 52.008 8.29797 52.0312 8.29833 52.0544C8.29869 52.0776 8.29905 52.1009 8.29942 52.1241C8.29978 52.1474 8.30014 52.1706 8.3005 52.1939C8.30086 52.2172 8.30123 52.2405 8.30159 52.2638C8.30195 52.2871 8.30232 52.3104 8.30268 52.3338C8.30304 52.3571 8.30341 52.3804 8.30377 52.4038C8.30413 52.4272 8.3045 52.4505 8.30486 52.4739C8.30522 52.4973 8.30559 52.5207 8.30595 52.5441C8.30632 52.5675 8.30668 52.591 8.30705 52.6144C8.30741 52.6378 8.30778 52.6613 8.30814 52.6847C8.30851 52.7082 8.30887 52.7317 8.30924 52.7551C8.3096 52.7786 8.30997 52.8021 8.31033 52.8256C8.3107 52.8491 8.31107 52.8726 8.31143 52.8961C8.3118 52.9196 8.31216 52.9432 8.31253 52.9667C8.3129 52.9902 8.31326 53.0138 8.31363 53.0373C8.314 53.0609 8.31436 53.0844 8.31473 53.108C8.3151 53.1316 8.31546 53.1552 8.31583 53.1788C8.3162 53.2023 8.31656 53.2259 8.31693 53.2495C8.3173 53.2731 8.31767 53.2967 8.31803 53.3204C8.3184 53.344 8.31877 53.3676 8.31914 53.3912C8.3195 53.4148 8.31987 53.4385 8.32024 53.4621C8.32061 53.4858 8.32098 53.5094 8.32134 53.5331C8.32171 53.5567 8.32208 53.5804 8.32245 53.604C8.32282 53.6277 8.32319 53.6513 8.32355 53.675C8.32392 53.6987 8.32429 53.7224 8.32466 53.746C8.32503 53.7697 8.3254 53.7934 8.32577 53.8171C8.32613 53.8408 8.3265 53.8645 8.32687 53.8882C8.32724 53.9118 8.32761 53.9355 8.32798 53.9592C8.32835 53.9829 8.32872 54.0066 8.32908 54.0303C8.32945 54.054 8.32982 54.0777 8.33019 54.1014C8.33056 54.1251 8.33093 54.1489 8.3313 54.1726C8.33167 54.1963 8.33204 54.22 8.33241 54.2437C8.33277 54.2674 8.33314 54.2911 8.33351 54.3148C8.33388 54.3385 8.33425 54.3622 8.33462 54.386C8.33499 54.4097 8.33536 54.4334 8.33573 54.4571C8.3361 54.4808 8.33646 54.5045 8.33683 54.5282C8.3372 54.5519 8.33757 54.5756 8.33794 54.5993C8.33831 54.623 8.33868 54.6467 8.33905 54.6704C8.33942 54.6941 8.33978 54.7178 8.34015 54.7415C8.34052 54.7652 8.34089 54.7889 8.34126 54.8126C8.34163 54.8363 8.342 54.86 8.34237 54.8837C8.34273 54.9073 8.3431 54.931 8.34347 54.9547C8.34384 54.9784 8.34421 55.002 8.34458 55.0257C8.34494 55.0494 8.34531 55.073 8.34568 55.0967C8.34605 55.1204 8.34642 55.144 8.34679 55.1677C8.34715 55.1913 8.34752 55.2149 8.34789 55.2386C8.34826 55.2622 8.34863 55.2859 8.34899 55.3095C8.34936 55.3331 8.34973 55.3567 8.3501 55.3803C8.35046 55.4039 8.35083 55.4275 8.3512 55.4511C8.35157 55.4747 8.35193 55.4983 8.3523 55.5219C8.35267 55.5455 8.35303 55.5691 8.3534 55.5926C8.35377 55.6162 8.35413 55.6397 8.3545 55.6633C8.35487 55.6868 8.35523 55.7104 8.3556 55.7339C8.35597 55.7574 8.35633 55.781 8.3567 55.8045C8.35706 55.828 8.35743 55.8515 8.35779 55.875C8.35816 55.8985 8.35853 55.9219 8.35889 55.9454C8.35926 55.9689 8.35962 55.9923 8.35999 56.0158C8.36035 56.0392 8.36072 56.0627 8.36108 56.0861C8.36145 56.1095 8.36181 56.1329 8.36217 56.1564C8.36254 56.1798 8.3629 56.2031 8.36327 56.2265C8.36363 56.2499 8.36399 56.2733 8.36436 56.2966C8.36472 56.32 8.36508 56.3433 8.36545 56.3666C8.36581 56.39 8.36617 56.4133 8.36654 56.4366C8.3669 56.4599 8.36726 56.4832 8.36762 56.5064C8.36799 56.5297 8.36835 56.553 8.36871 56.5762C8.36907 56.5995 8.36943 56.6227 8.36979 56.6459C8.37015 56.6691 8.37052 56.6923 8.37088 56.7155C8.37124 56.7387 8.3716 56.7618 8.37196 56.785C8.37232 56.8081 8.37268 56.8313 8.37304 56.8544C8.3734 56.8775 8.37376 56.9006 8.37412 56.9237C8.37448 56.9468 8.37484 56.9698 8.37519 56.9929C8.37555 57.0159 8.37591 57.039 8.37627 57.062C8.37663 57.085 8.37699 57.108 8.37734 57.131C8.3777 57.1539 8.37806 57.1769 8.37841 57.1998C8.37877 57.2228 8.37913 57.2457 8.37948 57.2686C8.37984 57.2915 8.3802 57.3144 8.38055 57.3372C8.38091 57.3601 8.38126 57.3829 8.38162 57.4057C8.38197 57.4286 8.38233 57.4514 8.38268 57.4741C8.38304 57.4969 8.38339 57.5197 8.38375 57.5424C8.3841 57.5652 8.38445 57.5879 8.38481 57.6106C8.38516 57.6333 8.38551 57.6559 8.38587 57.6786C8.38622 57.7012 8.38657 57.7239 8.38692 57.7465C8.38727 57.7691 8.38763 57.7916 8.38798 57.8142C8.38833 57.8368 8.38868 57.8593 8.38903 57.8818C8.38938 57.9043 8.38973 57.9268 8.39008 57.9493C8.39043 57.9717 8.39078 57.9942 8.39113 58.0166C8.39148 58.039 8.39182 58.0614 8.39217 58.0838C8.39252 58.1061 8.39287 58.1285 8.39322 58.1508C8.39356 58.1731 8.39391 58.1954 8.39426 58.2176C8.3946 58.2399 8.39495 58.2621 8.39529 58.2844C8.39564 58.3066 8.39599 58.3288 8.39633 58.3509C8.39668 58.3731 8.39702 58.3952 8.39736 58.4173C8.39771 58.4394 8.39805 58.4615 8.39839 58.4835C8.39874 58.5056 8.39908 58.5276 8.39942 58.5496C8.39977 58.5716 8.40011 58.5935 8.40045 58.6155C8.40079 58.6374 8.40113 58.6593 8.40147 58.6812C8.40181 58.7031 8.40215 58.7249 8.40249 58.7467C8.40283 58.7686 8.40317 58.7903 8.40351 58.8121C8.40385 58.8339 8.40419 58.8556 8.40452 58.8773C8.40486 58.899 8.4052 58.9207 8.40553 58.9423C8.40587 58.9639 8.40621 58.9855 8.40654 59.0071C8.40688 59.0287 8.40721 59.0502 8.40755 59.0717C8.40788 59.0932 8.40822 59.1147 8.40855 59.1361C8.40889 59.1576 8.40922 59.179 8.40955 59.2004C8.40988 59.2218 8.41022 59.2431 8.41055 59.2644C8.41088 59.2857 8.41121 59.307 8.41154 59.3283C8.41187 59.3495 8.4122 59.3707 8.41253 59.3919C8.41286 59.4131 8.41319 59.4342 8.41352 59.4553C8.41385 59.4764 8.41418 59.4975 8.4145 59.5185C8.41483 59.5396 8.41516 59.5606 8.41548 59.5815C8.41581 59.6025 8.41614 59.6234 8.41646 59.6443C8.41679 59.6652 8.41711 59.6861 8.41744 59.7069C8.41776 59.7277 8.41808 59.7485 8.41841 59.7692C8.41873 59.79 8.41905 59.8107 8.41937 59.8314C8.41969 59.852 8.42002 59.8727 8.42034 59.8933C8.42066 59.9139 8.42098 59.9344 8.4213 59.9549C8.42162 59.9755 8.42193 59.9959 8.42225 60.0164C8.42257 60.0368 8.42289 60.0572 8.4232 60.0776C8.42352 60.098 8.42384 60.1183 8.42415 60.1386C8.42447 60.1588 8.42478 60.1791 8.4251 60.1993C8.42541 60.2195 8.42573 60.2397 8.42604 60.2598C8.42635 60.2799 8.42667 60.3 8.42698 60.32C8.42729 60.3401 8.4276 60.3601 8.42791 60.38C8.42822 60.4 8.42853 60.4199 8.42884 60.4397C8.42915 60.4596 8.42946 60.4795 8.42977 60.4992C8.43008 60.519 8.43038 60.5388 8.43069 60.5585C8.431 60.5782 8.4313 60.5978 8.43161 60.6174C8.43191 60.6371 8.43222 60.6566 8.43252 60.6761C8.43282 60.6957 8.43313 60.7152 8.43343 60.7346C8.43373 60.754 8.43403 60.7734 8.43434 60.7928C8.43464 60.8121 8.43494 60.8314 8.43524 60.8507C8.43554 60.8699 8.43584 60.8891 8.43613 60.9083C8.43643 60.9275 8.43673 60.9466 8.43703 60.9657C8.43732 60.9847 8.43762 61.0037 8.43792 61.0227C8.43821 61.0417 8.43851 61.0606 8.4388 61.0795C8.43909 61.0984 8.43939 61.1172 8.43968 61.136C8.43997 61.1548 8.44026 61.1736 8.44055 61.1922C8.44084 61.2109 8.44113 61.2296 8.44142 61.2482C8.44171 61.2668 8.442 61.2853 8.44229 61.3038C8.44258 61.3223 8.44287 61.3408 8.44315 61.3591C8.44344 61.3775 8.44372 61.3959 8.44401 61.4142C8.44429 61.4325 8.44458 61.4507 8.44486 61.4689C8.44514 61.4871 8.44543 61.5053 8.44571 61.5234C8.44599 61.5415 8.44627 61.5595 8.44655 61.5775C8.44683 61.5955 8.44711 61.6134 8.44739 61.6313C8.44767 61.6492 8.44794 61.667 8.44822 61.6848C8.4485 61.7026 8.44877 61.7203 8.44905 61.738C8.44932 61.7557 8.4496 61.7733 8.44987 61.7909C8.45014 61.8084 8.45042 61.826 8.45069 61.8434C8.45096 61.8609 8.45123 61.8783 8.4515 61.8956C8.45177 61.913 8.45204 61.9303 8.45231 61.9475C8.45258 61.9648 8.45285 61.982 8.45311 61.9991C8.45338 62.0162 8.45364 62.0333 8.45391 62.0503C8.45417 62.0674 8.45444 62.0843 8.4547 62.1012C8.45496 62.1182 8.45523 62.135 8.45549 62.1518C8.45575 62.1686 8.45601 62.1853 8.45627 62.202C8.45653 62.2187 8.45679 62.2353 8.45705 62.2519C8.4573 62.2685 8.45756 62.285 8.45782 62.3014C8.45807 62.3179 8.45833 62.3343 8.45858 62.3506C8.45884 62.3669 8.45909 62.3832 8.45934 62.3994C8.4596 62.4157 8.45985 62.4318 8.4601 62.4479C8.46035 62.464 8.4606 62.4801 8.46085 62.496C8.46109 62.512 8.46134 62.5279 8.46159 62.5438C8.46184 62.5596 8.46208 62.5754 8.46233 62.5912C8.46257 62.6069 8.46282 62.6226 8.46306 62.6382C8.4633 62.6538 8.46354 62.6694 8.46379 62.6849C8.46403 62.7004 8.46427 62.7158 8.46451 62.7311C8.46474 62.7465 8.46498 62.7618 8.46522 62.7771C8.46546 62.7923 8.46569 62.8075 8.46593 62.8226C8.46616 62.8377 8.4664 62.8528 8.46663 62.8677C8.46686 62.8827 8.4671 62.8977 8.46733 62.9125C8.46756 62.9274 8.46779 62.9422 8.46802 62.9569C8.46825 62.9716 8.46848 62.9863 8.4687 63.0009C8.46893 63.0155 8.46916 63.03 8.46938 63.0445C8.46961 63.059 8.46983 63.0734 8.47006 63.0877C8.47028 63.1021 8.4705 63.1163 8.47072 63.1305C8.47094 63.1447 8.47116 63.1589 8.47138 63.1729C8.4716 63.187 8.47182 63.201 8.47204 63.2149C8.47225 63.2289 8.47247 63.2428 8.47268 63.2566C8.4729 63.2704 8.47311 63.2841 8.47332 63.2978C8.47354 63.3114 8.47375 63.325 8.47396 63.3385C8.47417 63.3521 8.47438 63.3655 8.47459 63.3789C8.4748 63.3923 8.475 63.4056 8.47521 63.4189C8.47542 63.4321 8.47562 63.4453 8.47582 63.4584C8.47603 63.4715 8.47623 63.4846 8.47643 63.4975C8.47664 63.5105 8.47684 63.5234 8.47704 63.5362C8.47724 63.549 8.47743 63.5618 8.47763 63.5745C8.47783 63.5871 8.47802 63.5998 8.47822 63.6123C8.47842 63.6248 8.47861 63.6373 8.4788 63.6497C8.47899 63.6621 8.47919 63.6744 8.47938 63.6867C8.47957 63.6989 8.47976 63.7111 8.47995 63.7232C8.48013 63.7353 8.48032 63.7473 8.48051 63.7593C8.48069 63.7712 8.48088 63.7831 8.48106 63.7949C8.48125 63.8067 8.48143 63.8184 8.48161 63.8301C8.48179 63.8417 8.48197 63.8533 8.48215 63.8648C8.48233 63.8763 8.48251 63.8878 8.48268 63.8991C8.48286 63.9105 8.48304 63.9217 8.48321 63.9329C8.48338 63.9441 8.48356 63.9553 8.48373 63.9663C8.4839 63.9774 8.48407 63.9883 8.48424 63.9992C8.48441 64.0101 8.48458 64.0209 8.48475 64.0317C8.48491 64.0424 8.48508 64.0531 8.48524 64.0636C8.48541 64.0742 8.48557 64.0847 8.48574 64.0951C8.4859 64.1056 8.48606 64.1159 8.48622 64.1262C8.48638 64.1364 8.48654 64.1466 8.48669 64.1567C8.48685 64.1668 8.48701 64.1769 8.48716 64.1868C8.48732 64.1968 8.48747 64.2066 8.48762 64.2164C8.48777 64.2262 8.48793 64.2359 8.48808 64.2455C8.48823 64.2552 8.48837 64.2647 8.48852 64.2742C8.48867 64.2836 8.48881 64.293 8.48896 64.3023C8.4891 64.3116 8.48925 64.3208 8.48939 64.33C8.48953 64.3391 8.48967 64.3481 8.48981 64.3571C8.48995 64.3661 8.49009 64.375 8.49023 64.3838C8.49036 64.3926 8.4905 64.4013 8.49063 64.4099C8.49077 64.4186 8.4909 64.4271 8.49103 64.4356C8.49117 64.444 8.4913 64.4524 8.49142 64.4607C8.49155 64.469 8.49168 64.4772 8.49181 64.4853C8.49193 64.4935 8.49206 64.5015 8.49218 64.5095C8.49231 64.5174 8.49243 64.5253 8.49255 64.5331C8.49267 64.5409 8.49279 64.5486 8.49291 64.5562C8.49303 64.5638 8.49315 64.5713 8.49326 64.5787C8.49338 64.5862 8.49349 64.5935 8.4936 64.6008C8.49372 64.6081 8.49383 64.6152 8.49394 64.6223C8.49405 64.6294 8.49416 64.6364 8.49427 64.6433C8.49437 64.6502 8.49448 64.657 8.49459 64.6638C8.49469 64.6705 8.49479 64.6771 8.4949 64.6837C8.495 64.6902 8.4951 64.6967 8.4952 64.7031C8.4953 64.7095 8.49539 64.7157 8.49549 64.7219C8.49559 64.7281 8.49568 64.7342 8.49578 64.7402C8.49587 64.7463 8.49596 64.7522 8.49605 64.758C8.49614 64.7638 8.49623 64.7696 8.49632 64.7752C8.49641 64.7809 8.49649 64.7864 8.49658 64.7919C8.49666 64.7973 8.49675 64.8027 8.49683 64.808C8.49691 64.8133 8.49699 64.8184 8.49707 64.8235C8.49715 64.8286 8.49723 64.8336 8.49731 64.8385C8.49738 64.8434 8.49746 64.8483 8.49753 64.853C8.4976 64.8577 8.49768 64.8623 8.49775 64.8668C8.49782 64.8714 8.49789 64.8758 8.49795 64.8801C8.49802 64.8845 8.49809 64.8887 8.49815 64.8929C8.49822 64.897 8.49828 64.9011 8.49834 64.905C8.4984 64.909 8.49846 64.9128 8.49852 64.9166C8.49858 64.9203 8.49864 64.924 8.49869 64.9276C8.49875 64.9312 8.4988 64.9346 8.49885 64.938C8.49891 64.9414 8.49896 64.9446 8.49901 64.9478C8.49906 64.951 8.4991 64.9541 8.49915 64.9571C8.4992 64.96 8.49924 64.9629 8.49928 64.9657C8.49933 64.9685 8.49937 64.9712 8.49941 64.9738C8.49945 64.9764 8.49949 64.9789 8.49953 64.9812C8.49956 64.9836 8.4996 64.9859 8.49963 64.9881C8.49967 64.9903 8.4997 64.9924 8.49973 64.9944C8.49976 64.9964 8.49979 64.9982 8.49982 65C8.49985 65.0018 8.49987 65.0035 8.4999 65.0051C8.49992 65.0067 8.49995 65.0081 8.49997 65.0095C8.49999 65.0109 8.50001 65.0122 8.50003 65.0134C8.50004 65.0145 8.50006 65.0156 8.50008 65.0166C8.50009 65.0175 8.5001 65.0184 8.50012 65.0192C8.50013 65.0199 8.50014 65.0206 8.50015 65.0211C8.50016 65.0217 8.50016 65.0221 8.50017 65.0225C8.50017 65.0228 8.50018 65.0231 8.50018 65.0232C8.50018 65.0233 10 65 11.4998 64.9766C11.4998 64.9765 11.4998 64.9764 11.4998 64.9761C11.4998 64.9758 11.4998 64.9754 11.4998 64.9749C11.4998 64.9744 11.4998 64.9738 11.4998 64.9731C11.4998 64.9724 11.4997 64.9716 11.4997 64.9706C11.4997 64.9697 11.4997 64.9687 11.4997 64.9675C11.4997 64.9664 11.4996 64.9652 11.4996 64.9638C11.4996 64.9624 11.4996 64.961 11.4995 64.9594C11.4995 64.9578 11.4995 64.9562 11.4995 64.9544C11.4994 64.9526 11.4994 64.9507 11.4994 64.9487C11.4994 64.9467 11.4993 64.9445 11.4993 64.9423C11.4992 64.9401 11.4992 64.9377 11.4992 64.9353C11.4991 64.9328 11.4991 64.9303 11.4991 64.9276C11.499 64.9249 11.499 64.9222 11.4989 64.9193C11.4989 64.9164 11.4988 64.9134 11.4988 64.9102C11.4987 64.9071 11.4987 64.9039 11.4986 64.9006C11.4986 64.8972 11.4985 64.8938 11.4985 64.8902C11.4984 64.8866 11.4984 64.8829 11.4983 64.8792C11.4982 64.8754 11.4982 64.8715 11.4981 64.8674C11.4981 64.8634 11.498 64.8593 11.4979 64.855C11.4979 64.8508 11.4978 64.8464 11.4977 64.842C11.4977 64.8375 11.4976 64.8329 11.4975 64.8282C11.4974 64.8235 11.4974 64.8186 11.4973 64.8137C11.4972 64.8088 11.4971 64.8037 11.497 64.7985C11.497 64.7934 11.4969 64.7881 11.4968 64.7827C11.4967 64.7773 11.4966 64.7718 11.4965 64.7661C11.4965 64.7605 11.4964 64.7547 11.4963 64.7489C11.4962 64.743 11.4961 64.737 11.496 64.7309C11.4959 64.7248 11.4958 64.7186 11.4957 64.7122C11.4956 64.7059 11.4955 64.6994 11.4954 64.6928C11.4953 64.6863 11.4952 64.6796 11.4951 64.6727C11.495 64.6659 11.4949 64.659 11.4948 64.6519C11.4947 64.6449 11.4945 64.6377 11.4944 64.6304C11.4943 64.6231 11.4942 64.6157 11.4941 64.6081C11.494 64.6006 11.4938 64.5929 11.4937 64.5852C11.4936 64.5774 11.4935 64.5695 11.4934 64.5615C11.4932 64.5534 11.4931 64.5453 11.493 64.537C11.4928 64.5288 11.4927 64.5204 11.4926 64.5118C11.4925 64.5033 11.4923 64.4947 11.4922 64.4859C11.492 64.4772 11.4919 64.4683 11.4918 64.4593C11.4916 64.4503 11.4915 64.4412 11.4913 64.4319C11.4912 64.4226 11.491 64.4133 11.4909 64.4038C11.4908 64.3943 11.4906 64.3846 11.4905 64.3749C11.4903 64.3651 11.4901 64.3553 11.49 64.3453C11.4898 64.3353 11.4897 64.3251 11.4895 64.3149C11.4894 64.3046 11.4892 64.2942 11.489 64.2837C11.4889 64.2732 11.4887 64.2626 11.4885 64.2518C11.4884 64.2411 11.4882 64.2302 11.488 64.2192C11.4879 64.2082 11.4877 64.197 11.4875 64.1858C11.4873 64.1745 11.4872 64.1631 11.487 64.1516C11.4868 64.14 11.4866 64.1284 11.4864 64.1166C11.4862 64.1048 11.4861 64.0929 11.4859 64.0809C11.4857 64.0688 11.4855 64.0567 11.4853 64.0444C11.4851 64.0321 11.4849 64.0196 11.4847 64.0071C11.4845 63.9945 11.4843 63.9818 11.4841 63.969C11.4839 63.9562 11.4837 63.9432 11.4835 63.9302C11.4833 63.9171 11.4831 63.9039 11.4829 63.8905C11.4827 63.8772 11.4825 63.8637 11.4823 63.8501C11.4821 63.8365 11.4819 63.8228 11.4816 63.8089C11.4814 63.795 11.4812 63.781 11.481 63.7669C11.4808 63.7527 11.4805 63.7385 11.4803 63.7241C11.4801 63.7097 11.4799 63.6951 11.4796 63.6804C11.4794 63.6658 11.4792 63.651 11.479 63.636C11.4787 63.6211 11.4785 63.606 11.4782 63.5908C11.478 63.5756 11.4778 63.5603 11.4775 63.5448C11.4773 63.5293 11.477 63.5137 11.4768 63.4979C11.4766 63.4822 11.4763 63.4663 11.4761 63.4503C11.4758 63.4343 11.4756 63.4181 11.4753 63.4018C11.4751 63.3855 11.4748 63.3691 11.4745 63.3525C11.4743 63.3359 11.474 63.3192 11.4738 63.3024C11.4735 63.2855 11.4732 63.2686 11.473 63.2515C11.4727 63.2343 11.4724 63.2171 11.4722 63.1997C11.4719 63.1823 11.4716 63.1647 11.4713 63.1471C11.4711 63.1294 11.4708 63.1116 11.4705 63.0936C11.4702 63.0757 11.4699 63.0576 11.4697 63.0394C11.4694 63.0211 11.4691 63.0028 11.4688 62.9843C11.4685 62.9657 11.4682 62.9471 11.4679 62.9283C11.4676 62.9095 11.4674 62.8906 11.4671 62.8715C11.4668 62.8524 11.4665 62.8332 11.4662 62.8138C11.4659 62.7945 11.4656 62.775 11.4652 62.7553C11.4649 62.7357 11.4646 62.7159 11.4643 62.696C11.464 62.6761 11.4637 62.656 11.4634 62.6358C11.4631 62.6156 11.4628 62.5952 11.4624 62.5747C11.4621 62.5542 11.4618 62.5336 11.4615 62.5128C11.4611 62.492 11.4608 62.4711 11.4605 62.45C11.4602 62.4289 11.4598 62.4077 11.4595 62.3863C11.4592 62.3649 11.4588 62.3434 11.4585 62.3218C11.4582 62.3001 11.4578 62.2783 11.4575 62.2564C11.4571 62.2344 11.4568 62.2123 11.4564 62.1901C11.4561 62.1678 11.4558 62.1454 11.4554 62.1229C11.4551 62.1004 11.4547 62.0777 11.4543 62.0549C11.454 62.032 11.4536 62.0091 11.4533 61.9859C11.4529 61.9628 11.4525 61.9395 11.4522 61.9161C11.4518 61.8927 11.4515 61.8691 11.4511 61.8454C11.4507 61.8217 11.4503 61.7978 11.45 61.7738C11.4496 61.7498 11.4492 61.7256 11.4488 61.7013C11.4485 61.677 11.4481 61.6525 11.4477 61.6279C11.4473 61.6033 11.4469 61.5785 11.4465 61.5536C11.4462 61.5287 11.4458 61.5036 11.4454 61.4784C11.445 61.4532 11.4446 61.4278 11.4442 61.4023C11.4438 61.3768 11.4434 61.3511 11.443 61.3253C11.4426 61.2995 11.4422 61.2735 11.4418 61.2473C11.4414 61.2212 11.441 61.1949 11.4405 61.1685C11.4401 61.1421 11.4397 61.1155 11.4393 61.0887C11.4389 61.062 11.4385 61.0351 11.4381 61.0081C11.4376 60.981 11.4372 60.9538 11.4368 60.9264C11.4364 60.8991 11.4359 60.8716 11.4355 60.8439C11.4351 60.8162 11.4346 60.7884 11.4342 60.7604C11.4338 60.7325 11.4333 60.7043 11.4329 60.676C11.4324 60.6478 11.432 60.6193 11.4316 60.5907C11.4311 60.5621 11.4307 60.5333 11.4302 60.5044C11.4298 60.4755 11.4293 60.4464 11.4289 60.4172C11.4284 60.388 11.4279 60.3586 11.4275 60.3291C11.427 60.2995 11.4266 60.2698 11.4261 60.24C11.4256 60.2101 11.4252 60.1801 11.4247 60.1499C11.4242 60.1197 11.4238 60.0894 11.4233 60.0589C11.4228 60.0284 11.4223 59.9978 11.4218 59.967C11.4214 59.9361 11.4209 59.9052 11.4204 59.874C11.4199 59.8429 11.4194 59.8116 11.4189 59.7802C11.4184 59.7487 11.418 59.7171 11.4175 59.6853C11.417 59.6535 11.4165 59.6216 11.416 59.5895C11.4155 59.5574 11.415 59.5252 11.4145 59.4927C11.414 59.4603 11.4135 59.4277 11.4129 59.395C11.4124 59.3623 11.4119 59.3293 11.4114 59.2963C11.4109 59.2632 11.4104 59.23 11.4099 59.1966C11.4093 59.1632 11.4088 59.1296 11.4083 59.0959C11.4078 59.0622 11.4072 59.0283 11.4067 58.9942C11.4062 58.9602 11.4056 58.926 11.4051 58.8916C11.4046 58.8572 11.404 58.8227 11.4035 58.788C11.403 58.7533 11.4024 58.7184 11.4019 58.6833C11.4013 58.6483 11.4008 58.6131 11.4002 58.5777C11.3997 58.5424 11.3991 58.5068 11.3986 58.4711C11.398 58.4354 11.3975 58.3995 11.3969 58.3635C11.3963 58.3275 11.3958 58.2913 11.3952 58.2549C11.3946 58.2185 11.3941 58.182 11.3935 58.1453C11.3929 58.1086 11.3923 58.0717 11.3918 58.0346C11.3912 57.9976 11.3906 57.9604 11.39 57.923C11.3895 57.8856 11.3889 57.8481 11.3883 57.8103C11.3877 57.7726 11.3871 57.7347 11.3865 57.6967C11.3859 57.6586 11.3853 57.6204 11.3847 57.582C11.3841 57.5436 11.3835 57.505 11.3829 57.4663C11.3823 57.4275 11.3817 57.3886 11.3811 57.3495C11.3805 57.3105 11.3799 57.2712 11.3793 57.2318C11.3787 57.1923 11.378 57.1528 11.3774 57.113C11.3768 57.0732 11.3762 57.0333 11.3756 56.9932C11.3749 56.953 11.3743 56.9128 11.3737 56.8723C11.3731 56.8318 11.3724 56.7912 11.3718 56.7504L8.37215 56.7971ZM11.1982 45.6007C11.198 45.5821 11.1977 45.5634 11.1974 45.5447C11.1971 45.5261 11.1968 45.5074 11.1965 45.4887C11.1962 45.47 11.1959 45.4513 11.1956 45.4326C11.1953 45.4139 11.195 45.3952 11.1948 45.3764C11.1945 45.3577 11.1942 45.3389 11.1939 45.3202C11.1936 45.3014 11.1933 45.2827 11.193 45.2639C11.1927 45.2451 11.1924 45.2263 11.1921 45.2075C11.1918 45.1887 11.1915 45.1699 11.1912 45.1511C11.191 45.1323 11.1907 45.1134 11.1904 45.0946C11.1901 45.0757 11.1898 45.0569 11.1895 45.038C11.1892 45.0192 11.1889 45.0003 11.1886 44.9814C11.1883 44.9625 11.188 44.9436 11.1877 44.9247C11.1874 44.9058 11.1871 44.8869 11.1868 44.868C11.1865 44.849 11.1863 44.8301 11.186 44.8111C11.1857 44.7922 11.1854 44.7732 11.1851 44.7543C11.1848 44.7353 11.1845 44.7163 11.1842 44.6973C11.1839 44.6783 11.1836 44.6593 11.1833 44.6403C11.183 44.6213 11.1827 44.6023 11.1824 44.5833C11.1821 44.5642 11.1818 44.5452 11.1815 44.5261C11.1812 44.5071 11.1809 44.488 11.1806 44.4689C11.1803 44.4499 11.18 44.4308 11.1797 44.4117C11.1794 44.3926 11.1791 44.3735 11.1788 44.3544C11.1786 44.3353 11.1783 44.3161 11.178 44.297C11.1777 44.2779 11.1774 44.2587 11.1771 44.2396C11.1768 44.2204 11.1765 44.2013 11.1762 44.1821C11.1759 44.1629 11.1756 44.1437 11.1753 44.1245C11.175 44.1053 11.1747 44.0861 11.1744 44.0669C11.1741 44.0477 11.1738 44.0285 11.1735 44.0092C11.1732 43.99 11.1729 43.9708 11.1726 43.9515C11.1723 43.9323 11.172 43.913 11.1717 43.8937C11.1714 43.8744 11.1711 43.8552 11.1708 43.8359C11.1705 43.8166 11.1702 43.7973 11.1699 43.778C11.1696 43.7587 11.1693 43.7393 11.169 43.72C11.1687 43.7007 11.1684 43.6813 11.1681 43.662C11.1678 43.6426 11.1675 43.6233 11.1672 43.6039C11.1669 43.5845 11.1666 43.5651 11.1663 43.5458C11.166 43.5264 11.1657 43.507 11.1654 43.4876C11.1651 43.4681 11.1648 43.4487 11.1645 43.4293C11.1641 43.4099 11.1638 43.3904 11.1635 43.371C11.1632 43.3516 11.1629 43.3321 11.1626 43.3126C11.1623 43.2932 11.162 43.2737 11.1617 43.2542C11.1614 43.2347 11.1611 43.2152 11.1608 43.1957C11.1605 43.1762 11.1602 43.1567 11.1599 43.1372C11.1596 43.1177 11.1593 43.0982 11.159 43.0786C11.1587 43.0591 11.1584 43.0395 11.1581 43.02C11.1578 43.0004 11.1575 42.9808 11.1572 42.9613C11.1569 42.9417 11.1566 42.9221 11.1563 42.9025C11.1559 42.8829 11.1556 42.8633 11.1553 42.8437C11.155 42.8241 11.1547 42.8045 11.1544 42.7849C11.1541 42.7652 11.1538 42.7456 11.1535 42.7259C11.1532 42.7063 11.1529 42.6866 11.1526 42.667C11.1523 42.6473 11.152 42.6276 11.1517 42.608C11.1514 42.5883 11.1511 42.5686 11.1507 42.5489C11.1504 42.5292 11.1501 42.5095 11.1498 42.4898C11.1495 42.47 11.1492 42.4503 11.1489 42.4306C11.1486 42.4109 11.1483 42.3911 11.148 42.3714C11.1477 42.3516 11.1474 42.3318 11.1471 42.3121C11.1468 42.2923 11.1464 42.2725 11.1461 42.2527C11.1458 42.233 11.1455 42.2132 11.1452 42.1934C11.1449 42.1736 11.1446 42.1537 11.1443 42.1339C11.144 42.1141 11.1437 42.0943 11.1434 42.0744C11.1431 42.0546 11.1427 42.0348 11.1424 42.0149C11.1421 41.995 11.1418 41.9752 11.1415 41.9553C11.1412 41.9354 11.1409 41.9156 11.1406 41.8957C11.1403 41.8758 11.14 41.8559 11.1397 41.836C11.1393 41.8161 11.139 41.7962 11.1387 41.7763C11.1384 41.7563 11.1381 41.7364 11.1378 41.7165C11.1375 41.6965 11.1372 41.6766 11.1369 41.6567C11.1366 41.6367 11.1362 41.6167 11.1359 41.5968C11.1356 41.5768 11.1353 41.5568 11.135 41.5368C11.1347 41.5169 11.1344 41.4969 11.1341 41.4769C11.1338 41.4569 11.1334 41.4369 11.1331 41.4168C11.1328 41.3968 11.1325 41.3768 11.1322 41.3568C11.1319 41.3367 11.1316 41.3167 11.1313 41.2967C11.1309 41.2766 11.1306 41.2566 11.1303 41.2365C11.13 41.2164 11.1297 41.1964 11.1294 41.1763C11.1291 41.1562 11.1288 41.1361 11.1284 41.116C11.1281 41.0959 11.1278 41.0758 11.1275 41.0557C11.1272 41.0356 11.1269 41.0155 11.1266 40.9954C11.1263 40.9752 11.1259 40.9551 11.1256 40.935C11.1253 40.9148 11.125 40.8947 11.1247 40.8745C11.1244 40.8544 11.1241 40.8342 11.1237 40.814C11.1234 40.7939 11.1231 40.7737 11.1228 40.7535C11.1225 40.7333 11.1222 40.7131 11.1219 40.6929C11.1215 40.6727 11.1212 40.6525 11.1209 40.6323C11.1206 40.6121 11.1203 40.5919 11.12 40.5717C11.1197 40.5514 11.1193 40.5312 11.119 40.5109C11.1187 40.4907 11.1184 40.4705 11.1181 40.4502C11.1178 40.4299 11.1175 40.4097 11.1171 40.3894C11.1168 40.3691 11.1165 40.3489 11.1162 40.3286C11.1159 40.3083 11.1156 40.288 11.1152 40.2677C11.1149 40.2474 11.1146 40.2271 11.1143 40.2068C11.114 40.1865 11.1137 40.1661 11.1133 40.1458C11.113 40.1255 11.1127 40.1051 11.1124 40.0848C11.1121 40.0645 11.1118 40.0441 11.1114 40.0238C11.1111 40.0034 11.1108 39.983 11.1105 39.9627C11.1102 39.9423 11.1099 39.9219 11.1095 39.9015C11.1092 39.8812 11.1089 39.8608 11.1086 39.8404C11.1083 39.82 11.108 39.7996 11.1076 39.7792C11.1073 39.7588 11.107 39.7383 11.1067 39.7179C11.1064 39.6975 11.1061 39.6771 11.1057 39.6566C11.1054 39.6362 11.1051 39.6157 11.1048 39.5953C11.1045 39.5748 11.1041 39.5544 11.1038 39.5339C11.1035 39.5135 11.1032 39.493 11.1029 39.4725C11.1025 39.452 11.1022 39.4316 11.1019 39.4111C11.1016 39.3906 11.1013 39.3701 11.101 39.3496C11.1006 39.3291 11.1003 39.3086 11.1 39.2881C11.0997 39.2676 11.0994 39.247 11.099 39.2265C11.0987 39.206 11.0984 39.1854 11.0981 39.1649C11.0978 39.1444 11.0974 39.1238 11.0971 39.1033C11.0968 39.0827 11.0965 39.0622 11.0962 39.0416C11.0958 39.021 11.0955 39.0005 11.0952 38.9799C11.0949 38.9593 11.0946 38.9387 11.0942 38.9181C11.0939 38.8976 11.0936 38.877 11.0933 38.8564C11.093 38.8358 11.0926 38.8152 11.0923 38.7945C11.092 38.7739 11.0917 38.7533 11.0914 38.7327C11.091 38.7121 11.0907 38.6914 11.0904 38.6708C11.0901 38.6502 11.0897 38.6295 11.0894 38.6089C11.0891 38.5882 11.0888 38.5676 11.0885 38.5469C11.0881 38.5263 11.0878 38.5056 11.0875 38.4849C11.0872 38.4642 11.0869 38.4436 11.0865 38.4229C11.0862 38.4022 11.0859 38.3815 11.0856 38.3608C11.0852 38.3401 11.0849 38.3194 11.0846 38.2987C11.0843 38.278 11.084 38.2573 11.0836 38.2366C11.0833 38.2159 11.083 38.1952 11.0827 38.1744C11.0823 38.1537 11.082 38.133 11.0817 38.1122C11.0814 38.0915 11.081 38.0707 11.0807 38.05C11.0804 38.0292 11.0801 38.0085 11.0798 37.9877C11.0794 37.967 11.0791 37.9462 11.0788 37.9254C11.0785 37.9047 11.0781 37.8839 11.0778 37.8631C11.0775 37.8423 11.0772 37.8215 11.0768 37.8007C11.0765 37.78 11.0762 37.7592 11.0759 37.7384C11.0756 37.7175 11.0752 37.6967 11.0749 37.6759C11.0746 37.6551 11.0743 37.6343 11.0739 37.6135C11.0736 37.5927 11.0733 37.5718 11.073 37.551C11.0726 37.5302 11.0723 37.5093 11.072 37.4885C11.0717 37.4676 11.0713 37.4468 11.071 37.4259C11.0707 37.4051 11.0704 37.3842 11.07 37.3634C11.0697 37.3425 11.0694 37.3216 11.0691 37.3007C11.0687 37.2799 11.0684 37.259 11.0681 37.2381C11.0678 37.2172 11.0674 37.1963 11.0671 37.1755C11.0668 37.1546 11.0665 37.1337 11.0661 37.1128C11.0658 37.0919 11.0655 37.0709 11.0652 37.05C11.0648 37.0291 11.0645 37.0082 11.0642 36.9873C11.0639 36.9664 11.0635 36.9454 11.0632 36.9245C11.0629 36.9036 11.0626 36.8826 11.0622 36.8617C11.0619 36.8408 11.0616 36.8198 11.0613 36.7989C11.0609 36.7779 11.0606 36.757 11.0603 36.736C11.0599 36.7151 11.0596 36.6941 11.0593 36.6731C11.059 36.6522 11.0586 36.6312 11.0583 36.6102C11.058 36.5892 11.0577 36.5683 11.0573 36.5473C11.057 36.5263 11.0567 36.5053 11.0564 36.4843C11.056 36.4633 11.0557 36.4423 11.0554 36.4213C11.0551 36.4003 11.0547 36.3793 11.0544 36.3583C11.0541 36.3373 11.0537 36.3163 11.0534 36.2953C11.0531 36.2742 11.0528 36.2532 11.0524 36.2322C11.0521 36.2112 11.0518 36.1901 11.0515 36.1691C11.0511 36.1481 11.0508 36.127 11.0505 36.106C11.0501 36.0849 11.0498 36.0639 11.0495 36.0428C11.0492 36.0218 11.0488 36.0007 11.0485 35.9797C11.0482 35.9586 11.0478 35.9375 11.0475 35.9165C11.0472 35.8954 11.0469 35.8743 11.0465 35.8533C11.0462 35.8322 11.0459 35.8111 11.0456 35.79C11.0452 35.7689 11.0449 35.7479 11.0446 35.7268C11.0442 35.7057 11.0439 35.6846 11.0436 35.6635C11.0433 35.6424 11.0429 35.6213 11.0426 35.6002C11.0423 35.5791 11.0419 35.558 11.0416 35.5369C11.0413 35.5157 11.041 35.4946 11.0406 35.4735C11.0403 35.4524 11.04 35.4313 11.0396 35.4101C11.0393 35.389 11.039 35.3679 11.0387 35.3467C11.0383 35.3256 11.038 35.3045 11.0377 35.2833C11.0373 35.2622 11.037 35.241 11.0367 35.2199C11.0363 35.1987 11.036 35.1776 11.0357 35.1564C11.0354 35.1353 11.035 35.1141 11.0347 35.093C11.0344 35.0718 11.034 35.0506 11.0337 35.0295C11.0334 35.0083 11.0331 34.9871 11.0327 34.966C11.0324 34.9448 11.0321 34.9236 11.0317 34.9024C11.0314 34.8812 11.0311 34.8601 11.0307 34.8389C11.0304 34.8177 11.0301 34.7965 11.0298 34.7753C11.0294 34.7541 11.0291 34.7329 11.0288 34.7117C11.0284 34.6905 11.0281 34.6693 11.0278 34.6481C11.0274 34.6269 11.0271 34.6057 11.0268 34.5845C11.0265 34.5633 11.0261 34.542 11.0258 34.5208C11.0255 34.4996 11.0251 34.4784 11.0248 34.4572C11.0245 34.4359 11.0241 34.4147 11.0238 34.3935C11.0235 34.3723 11.0232 34.351 11.0228 34.3298C11.0225 34.3086 11.0222 34.2873 11.0218 34.2661C11.0215 34.2448 11.0212 34.2236 11.0208 34.2024C11.0205 34.1811 11.0202 34.1599 11.0198 34.1386C11.0195 34.1174 11.0192 34.0961 11.0189 34.0748C11.0185 34.0536 11.0182 34.0323 11.0179 34.0111C11.0175 33.9898 11.0172 33.9685 11.0169 33.9473C11.0165 33.926 11.0162 33.9047 11.0159 33.8835C11.0155 33.8622 11.0152 33.8409 11.0149 33.8196C11.0146 33.7984 11.0142 33.7771 11.0139 33.7558C11.0136 33.7345 11.0132 33.7132 11.0129 33.692C11.0126 33.6707 11.0122 33.6494 11.0119 33.6281C11.0116 33.6068 11.0112 33.5855 11.0109 33.5642C11.0106 33.5429 11.0102 33.5216 11.0099 33.5003C11.0096 33.479 11.0093 33.4577 11.0089 33.4364C11.0086 33.4151 11.0083 33.3938 11.0079 33.3725C11.0076 33.3512 11.0073 33.3299 11.0069 33.3086C11.0066 33.2872 11.0063 33.2659 11.0059 33.2446C11.0056 33.2233 11.0053 33.202 11.0049 33.1807C11.0046 33.1593 11.0043 33.138 11.0039 33.1167C11.0036 33.0954 11.0033 33.074 11.0029 33.0527C11.0026 33.0314 11.0023 33.01 11.002 32.9887C11.0016 32.9674 11.0013 32.946 11.001 32.9247C11.0006 32.9034 11.0003 32.882 11 32.8607C10.9996 32.8394 10.9993 32.818 10.999 32.7967C10.9986 32.7753 10.9983 32.754 10.998 32.7326C10.9976 32.7113 10.9973 32.6899 10.997 32.6686C10.9966 32.6472 10.9963 32.6259 10.996 32.6045C10.9956 32.5832 10.9953 32.5618 10.995 32.5405C10.9946 32.5191 10.9943 32.4978 10.994 32.4764C10.9936 32.455 10.9933 32.4337 10.993 32.4123C10.9926 32.391 10.9923 32.3696 10.992 32.3482C10.9917 32.3269 10.9913 32.3055 10.991 32.2841C10.9907 32.2628 10.9903 32.2414 10.99 32.22C10.9897 32.1987 10.9893 32.1773 10.989 32.1559C10.9887 32.1345 10.9883 32.1132 10.988 32.0918C10.9877 32.0704 10.9873 32.049 10.987 32.0277C10.9867 32.0063 10.9863 31.9849 10.986 31.9635C10.9857 31.9421 10.9853 31.9208 10.985 31.8994C10.9847 31.878 10.9843 31.8566 10.984 31.8352C10.9837 31.8138 10.9833 31.7924 10.983 31.7711C10.9827 31.7497 10.9823 31.7283 10.982 31.7069C10.9817 31.6855 10.9813 31.6641 10.981 31.6427C10.9807 31.6213 10.9803 31.5999 10.98 31.5786C10.9797 31.5572 10.9793 31.5358 10.979 31.5144C10.9787 31.493 10.9783 31.4716 10.978 31.4502C10.9777 31.4288 10.9773 31.4074 10.977 31.386C10.9767 31.3646 10.9763 31.3432 10.976 31.3218C10.9757 31.3004 10.9753 31.279 10.975 31.2576C10.9747 31.2362 10.9743 31.2148 10.974 31.1934C10.9737 31.172 10.9733 31.1506 10.973 31.1292C10.9727 31.1078 10.9723 31.0864 10.972 31.065C10.9717 31.0436 10.9713 31.0222 10.971 31.0008C10.9707 30.9794 10.9703 30.958 10.97 30.9366C10.9697 30.9152 10.9693 30.8938 10.969 30.8724C10.9687 30.8509 10.9683 30.8295 10.968 30.8081C10.9677 30.7867 10.9673 30.7653 10.967 30.7439C10.9667 30.7225 10.9663 30.7011 10.966 30.6797C10.9657 30.6583 10.9653 30.6369 10.965 30.6155C10.9647 30.5941 10.9643 30.5726 10.964 30.5512C10.9637 30.5298 10.9633 30.5084 10.963 30.487C10.9627 30.4656 10.9623 30.4442 10.962 30.4228C10.9617 30.4014 10.9613 30.38 10.961 30.3586C10.9607 30.3371 10.9603 30.3157 10.96 30.2943C10.9597 30.2729 10.9593 30.2515 10.959 30.2301C10.9587 30.2087 10.9583 30.1873 10.958 30.1659C10.9577 30.1445 10.9573 30.1231 10.957 30.1016C10.9567 30.0802 10.9564 30.0588 10.956 30.0374C10.9557 30.016 10.9554 29.9946 10.955 29.9732C10.9547 29.9518 10.9544 29.9304 10.954 29.909C10.9537 29.8876 10.9534 29.8662 10.953 29.8448C10.9527 29.8233 10.9524 29.8019 10.952 29.7805C10.9517 29.7591 10.9514 29.7377 10.951 29.7163C10.9507 29.6949 10.9504 29.6735 10.95 29.6521C10.9497 29.6307 10.9494 29.6093 10.949 29.5879C10.9487 29.5665 10.9484 29.5451 10.948 29.5237C10.9477 29.5023 10.9474 29.4809 10.947 29.4595C10.9467 29.4381 10.9464 29.4167 10.946 29.3953C10.9457 29.3739 10.9454 29.3525 10.945 29.3311C10.9447 29.3097 10.9444 29.2883 10.944 29.2669C10.9437 29.2455 10.9434 29.2241 10.943 29.2027C10.9427 29.1813 10.9424 29.1599 10.942 29.1385C10.9417 29.1171 10.9414 29.0957 10.941 29.0743C10.9407 29.0529 10.9404 29.0316 10.94 29.0102C10.9397 28.9888 10.9394 28.9674 10.939 28.946C10.9387 28.9246 10.9384 28.9032 10.938 28.8818C10.9377 28.8604 10.9374 28.8391 10.937 28.8177C10.9367 28.7963 10.9364 28.7749 10.936 28.7535C10.9357 28.7321 10.9354 28.7108 10.935 28.6894C10.9347 28.668 10.9344 28.6466 10.934 28.6253C10.9337 28.6039 10.9334 28.5825 10.933 28.5611C10.9327 28.5397 10.9324 28.5184 10.932 28.497C10.9317 28.4756 10.9314 28.4543 10.931 28.4329C10.9307 28.4115 10.9304 28.3901 10.93 28.3688C10.9297 28.3474 10.9294 28.326 10.929 28.3047C10.9287 28.2833 10.9284 28.262 10.9281 28.2406C10.9277 28.2192 10.9274 28.1979 10.9271 28.1765C10.9267 28.1552 10.9264 28.1338 10.9261 28.1124C10.9257 28.0911 10.9254 28.0697 10.9251 28.0484C10.9247 28.027 10.9244 28.0057 10.9241 27.9843C10.9237 27.963 10.9234 27.9416 10.9231 27.9203C10.9227 27.8989 10.9224 27.8776 10.9221 27.8562C10.9217 27.8349 10.9214 27.8136 10.9211 27.7922C10.9207 27.7709 10.9204 27.7496 10.9201 27.7282C10.9197 27.7069 10.9194 27.6855 10.9191 27.6642C10.9187 27.6429 10.9184 27.6216 10.9181 27.6002C10.9178 27.5789 10.9174 27.5576 10.9171 27.5362C10.9168 27.5149 10.9164 27.4936 10.9161 27.4723C10.9158 27.451 10.9154 27.4296 10.9151 27.4083C10.9148 27.387 10.9144 27.3657 10.9141 27.3444C10.9138 27.3231 10.9134 27.3018 10.9131 27.2805C10.9128 27.2591 10.9124 27.2378 10.9121 27.2165C10.9118 27.1952 10.9114 27.1739 10.9111 27.1526C10.9108 27.1313 10.9105 27.11 10.9101 27.0887C10.9098 27.0675 10.9095 27.0462 10.9091 27.0249C10.9088 27.0036 10.9085 26.9823 10.9081 26.961C10.9078 26.9397 10.9075 26.9184 10.9071 26.8972C10.9068 26.8759 10.9065 26.8546 10.9061 26.8333C10.9058 26.812 10.9055 26.7908 10.9052 26.7695C10.9048 26.7482 10.9045 26.727 10.9042 26.7057C10.9038 26.6844 10.9035 26.6632 10.9032 26.6419C10.9028 26.6206 10.9025 26.5994 10.9022 26.5781C10.9018 26.5569 10.9015 26.5356 10.9012 26.5144C10.9009 26.4931 10.9005 26.4719 10.9002 26.4506C10.8999 26.4294 10.8995 26.4081 10.8992 26.3869C10.8989 26.3657 10.8985 26.3444 10.8982 26.3232C10.8979 26.302 10.8975 26.2807 10.8972 26.2595C10.8969 26.2383 10.8966 26.217 10.8962 26.1958C10.8959 26.1746 10.8956 26.1534 10.8952 26.1322C10.8949 26.111 10.8946 26.0897 10.8942 26.0685C10.8939 26.0473 10.8936 26.0261 10.8933 26.0049C10.8929 25.9837 10.8926 25.9625 10.8923 25.9413C10.8919 25.9201 10.8916 25.8989 10.8913 25.8777C10.8909 25.8565 10.8906 25.8353 10.8903 25.8141C10.89 25.793 10.8896 25.7718 10.8893 25.7506C10.889 25.7294 10.8886 25.7082 10.8883 25.6871C10.888 25.6659 10.8876 25.6447 10.8873 25.6236C10.887 25.6024 10.8867 25.5812 10.8863 25.5601C10.886 25.5389 10.8857 25.5178 10.8853 25.4966C10.885 25.4754 10.8847 25.4543 10.8844 25.4331C10.884 25.412 10.8837 25.3909 10.8834 25.3697C10.883 25.3486 10.8827 25.3274 10.8824 25.3063C10.8821 25.2852 10.8817 25.2641 10.8814 25.2429C10.8811 25.2218 10.8807 25.2007 10.8804 25.1796C10.8801 25.1584 10.8798 25.1373 10.8794 25.1162C10.8791 25.0951 10.8788 25.074 10.8784 25.0529C10.8781 25.0318 10.8778 25.0107 10.8775 24.9896C10.8771 24.9685 10.8768 24.9474 10.8765 24.9263C10.8761 24.9052 10.8758 24.8841 10.8755 24.8631C10.8752 24.842 10.8748 24.8209 10.8745 24.7998C10.8742 24.7788 10.8738 24.7577 10.8735 24.7366C10.8732 24.7156 10.8729 24.6945 10.8725 24.6734C10.8722 24.6524 10.8719 24.6313 10.8715 24.6103C10.8712 24.5892 10.8709 24.5682 10.8706 24.5471C10.8702 24.5261 10.8699 24.5051 10.8696 24.484C10.8693 24.463 10.8689 24.442 10.8686 24.4209C10.8683 24.3999 10.8679 24.3789 10.8676 24.3579C10.8673 24.3369 10.867 24.3158 10.8666 24.2948C10.8663 24.2738 10.866 24.2528 10.8657 24.2318C10.8653 24.2108 10.865 24.1898 10.8647 24.1688C10.8644 24.1478 10.864 24.1269 10.8637 24.1059C10.8634 24.0849 10.863 24.0639 10.8627 24.0429C10.8624 24.022 10.8621 24.001 10.8617 23.98C10.8614 23.9591 10.8611 23.9381 10.8608 23.9172C10.8604 23.8962 10.8601 23.8752 10.8598 23.8543C10.8595 23.8334 10.8591 23.8124 10.8588 23.7915C10.8585 23.7705 10.8582 23.7496 10.8578 23.7287C10.8575 23.7077 10.8572 23.6868 10.8568 23.6659C10.8565 23.645 10.8562 23.6241 10.8559 23.6032C10.8555 23.5822 10.8552 23.5613 10.8549 23.5404C10.8546 23.5195 10.8542 23.4986 10.8539 23.4778C10.8536 23.4569 10.8533 23.436 10.8529 23.4151C10.8526 23.3942 10.8523 23.3733 10.852 23.3525C10.8516 23.3316 10.8513 23.3107 10.851 23.2899C10.8507 23.269 10.8503 23.2481 10.85 23.2273C10.8497 23.2064 10.8494 23.1856 10.849 23.1648C10.8487 23.1439 10.8484 23.1231 10.8481 23.1022C10.8478 23.0814 10.8474 23.0606 10.8471 23.0398C10.8468 23.019 10.8465 22.9981 10.8461 22.9773C10.8458 22.9565 10.8455 22.9357 10.8452 22.9149C10.8448 22.8941 10.8445 22.8733 10.8442 22.8525C10.8439 22.8317 10.8435 22.8109 10.8432 22.7902C10.8429 22.7694 10.8426 22.7486 10.8422 22.7278C10.8419 22.7071 10.8416 22.6863 10.8413 22.6656C10.841 22.6448 10.8406 22.624 10.8403 22.6033C10.84 22.5826 10.8397 22.5618 10.8393 22.5411C10.839 22.5203 10.8387 22.4996 10.8384 22.4789C10.8381 22.4582 10.8377 22.4374 10.8374 22.4167C10.8371 22.396 10.8368 22.3753 10.8364 22.3546C10.8361 22.3339 10.8358 22.3132 10.8355 22.2925C10.8352 22.2718 10.8348 22.2511 10.8345 22.2304C10.8342 22.2098 10.8339 22.1891 10.8335 22.1684C10.8332 22.1478 10.8329 22.1271 10.8326 22.1064C10.8323 22.0858 10.8319 22.0651 10.8316 22.0445C10.8313 22.0238 10.831 22.0032 10.8306 21.9826C10.8303 21.9619 10.83 21.9413 10.8297 21.9207C10.8294 21.9001 10.829 21.8794 10.8287 21.8588C10.8284 21.8382 10.8281 21.8176 10.8278 21.797C10.8274 21.7764 10.8271 21.7558 10.8268 21.7352C10.8265 21.7147 10.8262 21.6941 10.8258 21.6735C10.8255 21.6529 10.8252 21.6324 10.8249 21.6118C10.8246 21.5912 10.8242 21.5707 10.8239 21.5501C10.8236 21.5296 10.8233 21.509 10.823 21.4885C10.8226 21.468 10.8223 21.4474 10.822 21.4269C10.8217 21.4064 10.8214 21.3859 10.821 21.3654C10.8207 21.3449 10.8204 21.3244 10.8201 21.3039C10.8198 21.2834 10.8194 21.2629 10.8191 21.2424C10.8188 21.2219 10.8185 21.2014 10.8182 21.1809C10.8179 21.1605 10.8175 21.14 10.8172 21.1195C10.8169 21.0991 10.8166 21.0786 10.8163 21.0582C10.8159 21.0377 10.8156 21.0173 10.8153 20.9969C10.815 20.9764 10.8147 20.956 10.8144 20.9356C10.814 20.9152 10.8137 20.8947 10.8134 20.8743C10.8131 20.8539 10.8128 20.8335 10.8124 20.8131C10.8121 20.7927 10.8118 20.7724 10.8115 20.752C10.8112 20.7316 10.8109 20.7112 10.8105 20.6909C10.8102 20.6705 10.8099 20.6501 10.8096 20.6298C10.8093 20.6094 10.809 20.5891 10.8086 20.5687C10.8083 20.5484 10.808 20.5281 10.8077 20.5077C10.8074 20.4874 10.8071 20.4671 10.8067 20.4468C10.8064 20.4265 10.8061 20.4062 10.8058 20.3859C10.8055 20.3656 10.8052 20.3453 10.8049 20.325C10.8045 20.3047 10.8042 20.2844 10.8039 20.2642C10.8036 20.2439 10.8033 20.2237 10.803 20.2034C10.8026 20.1831 10.8023 20.1629 10.802 20.1427C10.8017 20.1224 10.8014 20.1022 10.8011 20.082C10.8008 20.0617 10.8004 20.0415 10.8001 20.0213C10.7998 20.0011 10.7995 19.9809 10.7992 19.9607C10.7989 19.9405 10.7986 19.9203 10.7982 19.9001C10.7979 19.8799 10.7976 19.8598 10.7973 19.8396C10.797 19.8194 10.7967 19.7993 10.7964 19.7791C10.796 19.759 10.7957 19.7388 10.7954 19.7187C10.7951 19.6986 10.7948 19.6784 10.7945 19.6583C10.7942 19.6382 10.7938 19.6181 10.7935 19.598C10.7932 19.5779 10.7929 19.5578 10.7926 19.5377C10.7923 19.5176 10.792 19.4975 10.7917 19.4774C10.7913 19.4574 10.791 19.4373 10.7907 19.4172C10.7904 19.3972 10.7901 19.3771 10.7898 19.3571C10.7895 19.337 10.7892 19.317 10.7889 19.297C10.7885 19.2769 10.7882 19.2569 10.7879 19.2369C10.7876 19.2169 10.7873 19.1969 10.787 19.1769C10.7867 19.1569 10.7864 19.1369 10.786 19.1169C10.7857 19.0969 10.7854 19.077 10.7851 19.057C10.7848 19.037 10.7845 19.0171 10.7842 18.9971C10.7839 18.9772 10.7836 18.9572 10.7833 18.9373C10.7829 18.9174 10.7826 18.8975 10.7823 18.8775C10.782 18.8576 10.7817 18.8377 10.7814 18.8178C10.7811 18.7979 10.7808 18.778 10.7805 18.7581C10.7802 18.7383 10.7798 18.7184 10.7795 18.6985C10.7792 18.6787 10.7789 18.6588 10.7786 18.6389C10.7783 18.6191 10.778 18.5993 10.7777 18.5794C10.7774 18.5596 10.7771 18.5398 10.7768 18.5199C10.7764 18.5001 10.7761 18.4803 10.7758 18.4605C10.7755 18.4407 10.7752 18.4209 10.7749 18.4011C10.7746 18.3814 10.7743 18.3616 10.774 18.3418C10.7737 18.3221 10.7734 18.3023 10.7731 18.2826C10.7728 18.2628 10.7724 18.2431 10.7721 18.2233C10.7718 18.2036 10.7715 18.1839 10.7712 18.1642C10.7709 18.1445 10.7706 18.1248 10.7703 18.1051C10.77 18.0854 10.7697 18.0657 10.7694 18.046C10.7691 18.0263 10.7688 18.0066 10.7685 17.987C10.7682 17.9673 10.7678 17.9477 10.7675 17.928C10.7672 17.9084 10.7669 17.8888 10.7666 17.8691C10.7663 17.8495 10.766 17.8299 10.7657 17.8103C10.7654 17.7907 10.7651 17.7711 10.7648 17.7515C10.7645 17.7319 10.7642 17.7123 10.7639 17.6927C10.7636 17.6732 10.7633 17.6536 10.763 17.6341C10.7627 17.6145 10.7624 17.595 10.7621 17.5754C10.7618 17.5559 10.7614 17.5364 10.7611 17.5169C10.7608 17.4973 10.7605 17.4778 10.7602 17.4583C10.7599 17.4388 10.7596 17.4193 10.7593 17.3999C10.759 17.3804 10.7587 17.3609 10.7584 17.3415C10.7581 17.322 10.7578 17.3025 10.7575 17.2831C10.7572 17.2637 10.7569 17.2442 10.7566 17.2248C10.7563 17.2054 10.756 17.186 10.7557 17.1666C10.7554 17.1472 10.7551 17.1278 10.7548 17.1084C10.7545 17.089 10.7542 17.0696 10.7539 17.0503C10.7536 17.0309 10.7533 17.0115 10.753 16.9922C10.7527 16.9728 10.7524 16.9535 10.7521 16.9342C10.7518 16.9148 10.7515 16.8955 10.7512 16.8762C10.7509 16.8569 10.7506 16.8376 10.7503 16.8183C10.75 16.799 10.7497 16.7798 10.7494 16.7605C10.7491 16.7412 10.7488 16.722 10.7485 16.7027C10.7482 16.6835 10.7479 16.6642 10.7476 16.645C10.7473 16.6258 10.747 16.6065 10.7467 16.5873C10.7464 16.5681 10.7461 16.5489 10.7458 16.5297C10.7455 16.5105 10.7452 16.4914 10.7449 16.4722C10.7446 16.453 10.7443 16.4339 10.744 16.4147C10.7437 16.3956 10.7434 16.3764 10.7431 16.3573C10.7428 16.3382 10.7425 16.319 10.7422 16.2999C10.7419 16.2808 10.7416 16.2617 10.7413 16.2426C10.741 16.2235 10.7407 16.2045 10.7404 16.1854C10.7401 16.1663 10.7398 16.1473 10.7395 16.1282C10.7392 16.1092 10.7389 16.0901 10.7386 16.0711C10.7383 16.0521 10.7381 16.0331 10.7378 16.014C10.7375 15.995 10.7372 15.976 10.7369 15.9571C10.7366 15.9381 10.7363 15.9191 10.736 15.9001C10.7357 15.8812 10.7354 15.8622 10.7351 15.8433C10.7348 15.8243 10.7345 15.8054 10.7342 15.7865C10.7339 15.7675 10.7336 15.7486 10.7333 15.7297C10.733 15.7108 10.7327 15.6919 10.7324 15.673C10.7322 15.6542 10.7319 15.6353 10.7316 15.6164C10.7313 15.5976 10.731 15.5787 10.7307 15.5599C10.7304 15.541 10.7301 15.5222 10.7298 15.5034C10.7295 15.4846 10.7292 15.4658 10.7289 15.447C10.7286 15.4282 10.7283 15.4094 10.7281 15.3906C10.7278 15.3719 10.7275 15.3531 10.7272 15.3343C10.7269 15.3156 10.7266 15.2969 10.7263 15.2781C10.726 15.2594 10.7257 15.2407 10.7254 15.222C10.7251 15.2033 10.7248 15.1846 10.7246 15.1659C10.7243 15.1472 10.724 15.1285 10.7237 15.1098C10.7234 15.0912 10.7231 15.0725 10.7228 15.0539C10.7225 15.0352 10.7222 15.0166 10.7219 14.998C10.7217 14.9794 10.7214 14.9608 10.7211 14.9422C10.7208 14.9236 10.7205 14.905 10.7202 14.8864C10.7199 14.8678 10.7196 14.8493 10.7193 14.8307C10.719 14.8122 10.7188 14.7936 10.7185 14.7751C10.7182 14.7566 10.7179 14.7381 10.7176 14.7196C10.7173 14.701 10.717 14.6826 10.7167 14.6641C10.7165 14.6456 10.7162 14.6271 10.7159 14.6087C10.7156 14.5902 10.7153 14.5717 10.715 14.5533C10.7147 14.5349 10.7144 14.5164 10.7142 14.498C10.7139 14.4796 10.7136 14.4612 10.7133 14.4428C10.713 14.4244 10.7127 14.406 10.7124 14.3877C10.7122 14.3693 10.7119 14.351 10.7116 14.3326C10.7113 14.3143 10.711 14.2959 10.7107 14.2776C10.7104 14.2593 10.7102 14.241 10.7099 14.2227L7.71024 14.2694C7.71052 14.2877 7.71081 14.306 7.71109 14.3243C7.71138 14.3426 7.71166 14.361 7.71195 14.3793C7.71223 14.3976 7.71252 14.416 7.7128 14.4344C7.71309 14.4527 7.71338 14.4711 7.71366 14.4895C7.71395 14.5079 7.71424 14.5263 7.71452 14.5447C7.71481 14.5631 7.7151 14.5816 7.71538 14.6C7.71567 14.6184 7.71596 14.6369 7.71624 14.6553C7.71653 14.6738 7.71682 14.6923 7.71711 14.7108C7.71739 14.7292 7.71768 14.7477 7.71797 14.7662C7.71826 14.7847 7.71855 14.8033 7.71883 14.8218C7.71912 14.8403 7.71941 14.8589 7.7197 14.8774C7.71999 14.896 7.72028 14.9145 7.72057 14.9331C7.72086 14.9517 7.72115 14.9703 7.72143 14.9889C7.72172 15.0075 7.72201 15.0261 7.7223 15.0447C7.72259 15.0633 7.72288 15.0819 7.72317 15.1006C7.72346 15.1192 7.72375 15.1379 7.72404 15.1565C7.72434 15.1752 7.72463 15.1939 7.72492 15.2126C7.72521 15.2312 7.7255 15.2499 7.72579 15.2687C7.72608 15.2874 7.72637 15.3061 7.72666 15.3248C7.72696 15.3435 7.72725 15.3623 7.72754 15.381C7.72783 15.3998 7.72812 15.4185 7.72841 15.4373C7.72871 15.4561 7.729 15.4749 7.72929 15.4937C7.72958 15.5125 7.72988 15.5313 7.73017 15.5501C7.73046 15.5689 7.73076 15.5877 7.73105 15.6066C7.73134 15.6254 7.73164 15.6443 7.73193 15.6631C7.73222 15.682 7.73252 15.7009 7.73281 15.7197C7.7331 15.7386 7.7334 15.7575 7.73369 15.7764C7.73399 15.7953 7.73428 15.8142 7.73458 15.8331C7.73487 15.8521 7.73516 15.871 7.73546 15.89C7.73575 15.9089 7.73605 15.9278 7.73634 15.9468C7.73664 15.9658 7.73694 15.9848 7.73723 16.0037C7.73753 16.0227 7.73782 16.0417 7.73812 16.0607C7.73841 16.0797 7.73871 16.0988 7.73901 16.1178C7.7393 16.1368 7.7396 16.1559 7.73989 16.1749C7.74019 16.1939 7.74049 16.213 7.74078 16.2321C7.74108 16.2511 7.74138 16.2702 7.74168 16.2893C7.74197 16.3084 7.74227 16.3275 7.74257 16.3466C7.74286 16.3657 7.74316 16.3848 7.74346 16.404C7.74376 16.4231 7.74406 16.4422 7.74435 16.4614C7.74465 16.4805 7.74495 16.4997 7.74525 16.5189C7.74555 16.538 7.74585 16.5572 7.74614 16.5764C7.74644 16.5956 7.74674 16.6148 7.74704 16.634C7.74734 16.6532 7.74764 16.6724 7.74794 16.6917C7.74824 16.7109 7.74854 16.7301 7.74884 16.7494C7.74914 16.7686 7.74944 16.7879 7.74974 16.8072C7.75004 16.8264 7.75034 16.8457 7.75064 16.865C7.75094 16.8843 7.75124 16.9036 7.75154 16.9229C7.75184 16.9422 7.75214 16.9615 7.75244 16.9809C7.75274 17.0002 7.75304 17.0195 7.75334 17.0389C7.75364 17.0582 7.75394 17.0776 7.75425 17.0969C7.75455 17.1163 7.75485 17.1357 7.75515 17.1551C7.75545 17.1745 7.75575 17.1938 7.75606 17.2133C7.75636 17.2327 7.75666 17.2521 7.75696 17.2715C7.75726 17.2909 7.75757 17.3103 7.75787 17.3298C7.75817 17.3492 7.75847 17.3687 7.75878 17.3881C7.75908 17.4076 7.75938 17.4271 7.75969 17.4466C7.75999 17.466 7.76029 17.4855 7.7606 17.505C7.7609 17.5245 7.7612 17.544 7.76151 17.5635C7.76181 17.5831 7.76212 17.6026 7.76242 17.6221C7.76272 17.6417 7.76303 17.6612 7.76333 17.6807C7.76364 17.7003 7.76394 17.7199 7.76425 17.7394C7.76455 17.759 7.76485 17.7786 7.76516 17.7982C7.76546 17.8178 7.76577 17.8374 7.76607 17.857C7.76638 17.8766 7.76669 17.8962 7.76699 17.9158C7.7673 17.9354 7.7676 17.9551 7.76791 17.9747C7.76821 17.9944 7.76852 18.014 7.76882 18.0337C7.76913 18.0533 7.76944 18.073 7.76974 18.0927C7.77005 18.1124 7.77036 18.132 7.77066 18.1517C7.77097 18.1714 7.77128 18.1911 7.77158 18.2109C7.77189 18.2306 7.7722 18.2503 7.7725 18.27C7.77281 18.2898 7.77312 18.3095 7.77343 18.3292C7.77373 18.349 7.77404 18.3687 7.77435 18.3885C7.77466 18.4083 7.77496 18.4281 7.77527 18.4478C7.77558 18.4676 7.77589 18.4874 7.7762 18.5072C7.7765 18.527 7.77681 18.5468 7.77712 18.5666C7.77743 18.5864 7.77774 18.6063 7.77805 18.6261C7.77835 18.6459 7.77866 18.6658 7.77897 18.6856C7.77928 18.7055 7.77959 18.7253 7.7799 18.7452C7.78021 18.7651 7.78052 18.7849 7.78083 18.8048C7.78114 18.8247 7.78145 18.8446 7.78176 18.8645C7.78207 18.8844 7.78238 18.9043 7.78269 18.9242C7.783 18.9441 7.78331 18.9641 7.78362 18.984C7.78393 19.0039 7.78424 19.0239 7.78455 19.0438C7.78486 19.0638 7.78517 19.0837 7.78548 19.1037C7.78579 19.1237 7.7861 19.1436 7.78641 19.1636C7.78672 19.1836 7.78703 19.2036 7.78734 19.2236C7.78766 19.2436 7.78797 19.2636 7.78828 19.2836C7.78859 19.3036 7.7889 19.3236 7.78921 19.3437C7.78953 19.3637 7.78984 19.3837 7.79015 19.4038C7.79046 19.4238 7.79077 19.4439 7.79109 19.4639C7.7914 19.484 7.79171 19.504 7.79202 19.5241C7.79233 19.5442 7.79265 19.5643 7.79296 19.5844C7.79327 19.6045 7.79359 19.6246 7.7939 19.6447C7.79421 19.6648 7.79452 19.6849 7.79484 19.705C7.79515 19.7251 7.79546 19.7453 7.79578 19.7654C7.79609 19.7855 7.7964 19.8057 7.79672 19.8258C7.79703 19.846 7.79735 19.8661 7.79766 19.8863C7.79797 19.9065 7.79829 19.9266 7.7986 19.9468C7.79892 19.967 7.79923 19.9872 7.79954 20.0074C7.79986 20.0276 7.80017 20.0478 7.80049 20.068C7.8008 20.0882 7.80112 20.1084 7.80143 20.1286C7.80175 20.1489 7.80206 20.1691 7.80238 20.1893C7.80269 20.2096 7.80301 20.2298 7.80332 20.2501C7.80364 20.2703 7.80395 20.2906 7.80427 20.3109C7.80458 20.3311 7.8049 20.3514 7.80521 20.3717C7.80553 20.392 7.80585 20.4123 7.80616 20.4326C7.80648 20.4529 7.80679 20.4732 7.80711 20.4935C7.80743 20.5138 7.80774 20.5341 7.80806 20.5544C7.80837 20.5748 7.80869 20.5951 7.80901 20.6154C7.80932 20.6358 7.80964 20.6561 7.80996 20.6765C7.81027 20.6968 7.81059 20.7172 7.81091 20.7375C7.81123 20.7579 7.81154 20.7783 7.81186 20.7987C7.81218 20.819 7.81249 20.8394 7.81281 20.8598C7.81313 20.8802 7.81345 20.9006 7.81376 20.921C7.81408 20.9414 7.8144 20.9618 7.81472 20.9823C7.81504 21.0027 7.81535 21.0231 7.81567 21.0435C7.81599 21.064 7.81631 21.0844 7.81663 21.1049C7.81694 21.1253 7.81726 21.1458 7.81758 21.1662C7.8179 21.1867 7.81822 21.2072 7.81854 21.2276C7.81885 21.2481 7.81917 21.2686 7.81949 21.2891C7.81981 21.3095 7.82013 21.33 7.82045 21.3505C7.82077 21.371 7.82109 21.3915 7.82141 21.4121C7.82173 21.4326 7.82205 21.4531 7.82236 21.4736C7.82268 21.4941 7.823 21.5147 7.82332 21.5352C7.82364 21.5557 7.82396 21.5763 7.82428 21.5968C7.8246 21.6174 7.82492 21.6379 7.82524 21.6585C7.82556 21.6791 7.82588 21.6996 7.8262 21.7202C7.82652 21.7408 7.82684 21.7613 7.82716 21.7819C7.82748 21.8025 7.8278 21.8231 7.82813 21.8437C7.82845 21.8643 7.82877 21.8849 7.82909 21.9055C7.82941 21.9261 7.82973 21.9467 7.83005 21.9674C7.83037 21.988 7.83069 22.0086 7.83101 22.0293C7.83133 22.0499 7.83166 22.0705 7.83198 22.0912C7.8323 22.1118 7.83262 22.1325 7.83294 22.1531C7.83326 22.1738 7.83358 22.1944 7.83391 22.2151C7.83423 22.2358 7.83455 22.2565 7.83487 22.2771C7.83519 22.2978 7.83551 22.3185 7.83584 22.3392C7.83616 22.3599 7.83648 22.3806 7.8368 22.4013C7.83713 22.422 7.83745 22.4427 7.83777 22.4634C7.83809 22.4841 7.83842 22.5048 7.83874 22.5256C7.83906 22.5463 7.83938 22.567 7.83971 22.5878C7.84003 22.6085 7.84035 22.6292 7.84067 22.65C7.841 22.6707 7.84132 22.6915 7.84164 22.7122C7.84197 22.733 7.84229 22.7538 7.84261 22.7745C7.84294 22.7953 7.84326 22.8161 7.84358 22.8369C7.84391 22.8576 7.84423 22.8784 7.84455 22.8992C7.84488 22.92 7.8452 22.9408 7.84552 22.9616C7.84585 22.9824 7.84617 23.0032 7.8465 23.024C7.84682 23.0448 7.84714 23.0656 7.84747 23.0865C7.84779 23.1073 7.84812 23.1281 7.84844 23.1489C7.84876 23.1698 7.84909 23.1906 7.84941 23.2114C7.84974 23.2323 7.85006 23.2531 7.85039 23.274C7.85071 23.2948 7.85104 23.3157 7.85136 23.3366C7.85168 23.3574 7.85201 23.3783 7.85233 23.3992C7.85266 23.42 7.85298 23.4409 7.85331 23.4618C7.85363 23.4827 7.85396 23.5035 7.85428 23.5244C7.85461 23.5453 7.85493 23.5662 7.85526 23.5871C7.85559 23.608 7.85591 23.6289 7.85624 23.6498C7.85656 23.6708 7.85689 23.6917 7.85721 23.7126C7.85754 23.7335 7.85786 23.7544 7.85819 23.7754C7.85852 23.7963 7.85884 23.8172 7.85917 23.8382C7.85949 23.8591 7.85982 23.88 7.86014 23.901C7.86047 23.9219 7.8608 23.9429 7.86112 23.9638C7.86145 23.9848 7.86178 24.0058 7.8621 24.0267C7.86243 24.0477 7.86275 24.0687 7.86308 24.0896C7.86341 24.1106 7.86373 24.1316 7.86406 24.1526C7.86439 24.1735 7.86471 24.1945 7.86504 24.2155C7.86537 24.2365 7.86569 24.2575 7.86602 24.2785C7.86635 24.2995 7.86667 24.3205 7.867 24.3415C7.86733 24.3625 7.86766 24.3835 7.86798 24.4046C7.86831 24.4256 7.86864 24.4466 7.86896 24.4676C7.86929 24.4887 7.86962 24.5097 7.86995 24.5307C7.87027 24.5517 7.8706 24.5728 7.87093 24.5938C7.87126 24.6149 7.87158 24.6359 7.87191 24.657C7.87224 24.678 7.87257 24.6991 7.87289 24.7201C7.87322 24.7412 7.87355 24.7622 7.87388 24.7833C7.87421 24.8044 7.87453 24.8254 7.87486 24.8465C7.87519 24.8676 7.87552 24.8887 7.87585 24.9097C7.87617 24.9308 7.8765 24.9519 7.87683 24.973C7.87716 24.9941 7.87749 25.0152 7.87781 25.0363C7.87814 25.0574 7.87847 25.0785 7.8788 25.0996C7.87913 25.1207 7.87946 25.1418 7.87979 25.1629C7.88011 25.184 7.88044 25.2051 7.88077 25.2262C7.8811 25.2474 7.88143 25.2685 7.88176 25.2896C7.88209 25.3107 7.88242 25.3319 7.88274 25.353C7.88307 25.3741 7.8834 25.3953 7.88373 25.4164C7.88406 25.4375 7.88439 25.4587 7.88472 25.4798C7.88505 25.501 7.88538 25.5221 7.88571 25.5433C7.88604 25.5644 7.88636 25.5856 7.88669 25.6068C7.88702 25.6279 7.88735 25.6491 7.88768 25.6702C7.88801 25.6914 7.88834 25.7126 7.88867 25.7338C7.889 25.7549 7.88933 25.7761 7.88966 25.7973C7.88999 25.8185 7.89032 25.8396 7.89065 25.8608C7.89098 25.882 7.89131 25.9032 7.89164 25.9244C7.89197 25.9456 7.8923 25.9668 7.89263 25.988C7.89296 26.0092 7.89329 26.0304 7.89362 26.0516C7.89395 26.0728 7.89428 26.094 7.89461 26.1152C7.89494 26.1364 7.89527 26.1576 7.8956 26.1789C7.89593 26.2001 7.89626 26.2213 7.89659 26.2425C7.89692 26.2637 7.89725 26.285 7.89758 26.3062C7.89791 26.3274 7.89824 26.3486 7.89857 26.3699C7.8989 26.3911 7.89923 26.4124 7.89956 26.4336C7.89989 26.4548 7.90022 26.4761 7.90055 26.4973C7.90089 26.5186 7.90122 26.5398 7.90155 26.5611C7.90188 26.5823 7.90221 26.6036 7.90254 26.6248C7.90287 26.6461 7.9032 26.6673 7.90353 26.6886C7.90386 26.7099 7.90419 26.7311 7.90452 26.7524C7.90486 26.7737 7.90519 26.7949 7.90552 26.8162C7.90585 26.8375 7.90618 26.8587 7.90651 26.88C7.90684 26.9013 7.90717 26.9226 7.9075 26.9438C7.90784 26.9651 7.90817 26.9864 7.9085 27.0077C7.90883 27.029 7.90916 27.0503 7.90949 27.0716C7.90982 27.0928 7.91016 27.1141 7.91049 27.1354C7.91082 27.1567 7.91115 27.178 7.91148 27.1993C7.91181 27.2206 7.91214 27.2419 7.91248 27.2632C7.91281 27.2845 7.91314 27.3058 7.91347 27.3271C7.9138 27.3484 7.91413 27.3698 7.91447 27.3911C7.9148 27.4124 7.91513 27.4337 7.91546 27.455C7.91579 27.4763 7.91612 27.4976 7.91646 27.519C7.91679 27.5403 7.91712 27.5616 7.91745 27.5829C7.91778 27.6043 7.91812 27.6256 7.91845 27.6469C7.91878 27.6682 7.91911 27.6896 7.91944 27.7109C7.91978 27.7322 7.92011 27.7536 7.92044 27.7749C7.92077 27.7962 7.9211 27.8176 7.92144 27.8389C7.92177 27.8603 7.9221 27.8816 7.92243 27.9029C7.92276 27.9243 7.9231 27.9456 7.92343 27.967C7.92376 27.9883 7.92409 28.0097 7.92443 28.031C7.92476 28.0524 7.92509 28.0737 7.92542 28.0951C7.92575 28.1164 7.92609 28.1378 7.92642 28.1591C7.92675 28.1805 7.92708 28.2018 7.92742 28.2232C7.92775 28.2446 7.92808 28.2659 7.92841 28.2873C7.92875 28.3086 7.92908 28.33 7.92941 28.3514C7.92974 28.3727 7.93008 28.3941 7.93041 28.4155C7.93074 28.4368 7.93107 28.4582 7.93141 28.4796C7.93174 28.5009 7.93207 28.5223 7.9324 28.5437C7.93274 28.5651 7.93307 28.5864 7.9334 28.6078C7.93374 28.6292 7.93407 28.6506 7.9344 28.6719C7.93473 28.6933 7.93507 28.7147 7.9354 28.7361C7.93573 28.7575 7.93606 28.7788 7.9364 28.8002C7.93673 28.8216 7.93706 28.843 7.9374 28.8644C7.93773 28.8858 7.93806 28.9071 7.93839 28.9285C7.93873 28.9499 7.93906 28.9713 7.93939 28.9927C7.93973 29.0141 7.94006 29.0355 7.94039 29.0569C7.94072 29.0782 7.94106 29.0996 7.94139 29.121C7.94172 29.1424 7.94206 29.1638 7.94239 29.1852C7.94272 29.2066 7.94306 29.228 7.94339 29.2494C7.94372 29.2708 7.94405 29.2922 7.94439 29.3136C7.94472 29.335 7.94505 29.3564 7.94539 29.3778C7.94572 29.3992 7.94605 29.4206 7.94639 29.442C7.94672 29.4634 7.94705 29.4848 7.94739 29.5062C7.94772 29.5276 7.94805 29.549 7.94838 29.5704C7.94872 29.5918 7.94905 29.6132 7.94938 29.6346C7.94972 29.656 7.95005 29.6774 7.95038 29.6988C7.95072 29.7202 7.95105 29.7416 7.95138 29.763C7.95172 29.7844 7.95205 29.8058 7.95238 29.8272C7.95272 29.8486 7.95305 29.87 7.95338 29.8914C7.95371 29.9128 7.95405 29.9343 7.95438 29.9557C7.95471 29.9771 7.95505 29.9985 7.95538 30.0199C7.95571 30.0413 7.95605 30.0627 7.95638 30.0841C7.95671 30.1055 7.95705 30.1269 7.95738 30.1483C7.95771 30.1697 7.95805 30.1912 7.95838 30.2126C7.95871 30.234 7.95905 30.2554 7.95938 30.2768C7.95971 30.2982 7.96005 30.3196 7.96038 30.341C7.96071 30.3624 7.96105 30.3838 7.96138 30.4052C7.96171 30.4267 7.96204 30.4481 7.96238 30.4695C7.96271 30.4909 7.96304 30.5123 7.96338 30.5337C7.96371 30.5551 7.96404 30.5765 7.96438 30.5979C7.96471 30.6193 7.96504 30.6407 7.96538 30.6621C7.96571 30.6836 7.96604 30.705 7.96638 30.7264C7.96671 30.7478 7.96704 30.7692 7.96738 30.7906C7.96771 30.812 7.96804 30.8334 7.96838 30.8548C7.96871 30.8762 7.96904 30.8976 7.96938 30.919C7.96971 30.9404 7.97004 30.9619 7.97037 30.9833C7.97071 31.0047 7.97104 31.0261 7.97137 31.0475C7.97171 31.0689 7.97204 31.0903 7.97237 31.1117C7.97271 31.1331 7.97304 31.1545 7.97337 31.1759C7.97371 31.1973 7.97404 31.2187 7.97437 31.2401C7.97471 31.2615 7.97504 31.2829 7.97537 31.3043C7.9757 31.3257 7.97604 31.3471 7.97637 31.3685C7.9767 31.3899 7.97704 31.4113 7.97737 31.4327C7.9777 31.4541 7.97804 31.4755 7.97837 31.4969C7.9787 31.5183 7.97903 31.5397 7.97937 31.5611C7.9797 31.5825 7.98003 31.6038 7.98037 31.6252C7.9807 31.6466 7.98103 31.668 7.98137 31.6894C7.9817 31.7108 7.98203 31.7322 7.98236 31.7536C7.9827 31.775 7.98303 31.7964 7.98336 31.8177C7.9837 31.8391 7.98403 31.8605 7.98436 31.8819C7.98469 31.9033 7.98503 31.9247 7.98536 31.9461C7.98569 31.9674 7.98603 31.9888 7.98636 32.0102C7.98669 32.0316 7.98702 32.053 7.98736 32.0743C7.98769 32.0957 7.98802 32.1171 7.98835 32.1385C7.98869 32.1598 7.98902 32.1812 7.98935 32.2026C7.98969 32.224 7.99002 32.2453 7.99035 32.2667C7.99068 32.2881 7.99102 32.3094 7.99135 32.3308C7.99168 32.3522 7.99201 32.3736 7.99235 32.3949C7.99268 32.4163 7.99301 32.4376 7.99334 32.459C7.99368 32.4804 7.99401 32.5017 7.99434 32.5231C7.99467 32.5444 7.99501 32.5658 7.99534 32.5872C7.99567 32.6085 7.996 32.6299 7.99634 32.6512C7.99667 32.6726 7.997 32.6939 7.99733 32.7153C7.99766 32.7366 7.998 32.758 7.99833 32.7793C7.99866 32.8007 7.99899 32.822 7.99933 32.8434C7.99966 32.8647 7.99999 32.886 8.00032 32.9074C8.00065 32.9287 8.00099 32.9501 8.00132 32.9714C8.00165 32.9927 8.00198 33.0141 8.00231 33.0354C8.00265 33.0567 8.00298 33.0781 8.00331 33.0994C8.00364 33.1207 8.00397 33.142 8.00431 33.1634C8.00464 33.1847 8.00497 33.206 8.0053 33.2273C8.00563 33.2487 8.00597 33.27 8.0063 33.2913C8.00663 33.3126 8.00696 33.3339 8.00729 33.3552C8.00762 33.3766 8.00796 33.3979 8.00829 33.4192C8.00862 33.4405 8.00895 33.4618 8.00928 33.4831C8.00961 33.5044 8.00995 33.5257 8.01028 33.547C8.01061 33.5683 8.01094 33.5896 8.01127 33.6109C8.0116 33.6322 8.01193 33.6535 8.01227 33.6748C8.0126 33.6961 8.01293 33.7174 8.01326 33.7386C8.01359 33.7599 8.01392 33.7812 8.01425 33.8025C8.01459 33.8238 8.01492 33.8451 8.01525 33.8663C8.01558 33.8876 8.01591 33.9089 8.01624 33.9302C8.01657 33.9514 8.0169 33.9727 8.01723 33.994C8.01757 34.0152 8.0179 34.0365 8.01823 34.0578C8.01856 34.079 8.01889 34.1003 8.01922 34.1215C8.01955 34.1428 8.01988 34.164 8.02021 34.1853C8.02054 34.2065 8.02087 34.2278 8.0212 34.249C8.02153 34.2703 8.02187 34.2915 8.0222 34.3128C8.02253 34.334 8.02286 34.3552 8.02319 34.3765C8.02352 34.3977 8.02385 34.4189 8.02418 34.4402C8.02451 34.4614 8.02484 34.4826 8.02517 34.5039C8.0255 34.5251 8.02583 34.5463 8.02616 34.5675C8.02649 34.5887 8.02682 34.61 8.02715 34.6312C8.02748 34.6524 8.02781 34.6736 8.02814 34.6948C8.02847 34.716 8.0288 34.7372 8.02913 34.7584C8.02946 34.7796 8.02979 34.8008 8.03012 34.822C8.03045 34.8432 8.03078 34.8644 8.03111 34.8856C8.03144 34.9067 8.03177 34.9279 8.0321 34.9491C8.03243 34.9703 8.03276 34.9915 8.03309 35.0126C8.03342 35.0338 8.03375 35.055 8.03408 35.0762C8.03441 35.0973 8.03474 35.1185 8.03507 35.1397C8.0354 35.1608 8.03572 35.182 8.03605 35.2031C8.03638 35.2243 8.03671 35.2454 8.03704 35.2666C8.03737 35.2877 8.0377 35.3089 8.03803 35.33C8.03836 35.3512 8.03869 35.3723 8.03902 35.3934C8.03934 35.4146 8.03967 35.4357 8.04 35.4568C8.04033 35.4779 8.04066 35.4991 8.04099 35.5202C8.04132 35.5413 8.04165 35.5624 8.04197 35.5835C8.0423 35.6046 8.04263 35.6258 8.04296 35.6469C8.04329 35.668 8.04362 35.6891 8.04395 35.7102C8.04427 35.7313 8.0446 35.7524 8.04493 35.7735C8.04526 35.7945 8.04559 35.8156 8.04592 35.8367C8.04624 35.8578 8.04657 35.8789 8.0469 35.8999C8.04723 35.921 8.04756 35.9421 8.04788 35.9632C8.04821 35.9842 8.04854 36.0053 8.04887 36.0264C8.04919 36.0474 8.04952 36.0685 8.04985 36.0895C8.05018 36.1106 8.0505 36.1316 8.05083 36.1527C8.05116 36.1737 8.05149 36.1947 8.05181 36.2158C8.05214 36.2368 8.05247 36.2578 8.0528 36.2789C8.05312 36.2999 8.05345 36.3209 8.05378 36.3419C8.05411 36.363 8.05443 36.384 8.05476 36.405C8.05509 36.426 8.05541 36.447 8.05574 36.468C8.05607 36.489 8.05639 36.51 8.05672 36.531C8.05705 36.552 8.05737 36.573 8.0577 36.594C8.05803 36.6149 8.05835 36.6359 8.05868 36.6569C8.05901 36.6779 8.05933 36.6988 8.05966 36.7198C8.05999 36.7408 8.06031 36.7617 8.06064 36.7827C8.06096 36.8037 8.06129 36.8246 8.06162 36.8456C8.06194 36.8665 8.06227 36.8874 8.06259 36.9084C8.06292 36.9293 8.06325 36.9503 8.06357 36.9712C8.0639 36.9921 8.06422 37.0131 8.06455 37.034C8.06488 37.0549 8.0652 37.0758 8.06553 37.0967C8.06585 37.1176 8.06618 37.1385 8.0665 37.1594C8.06683 37.1803 8.06715 37.2012 8.06748 37.2221C8.0678 37.243 8.06813 37.2639 8.06845 37.2848C8.06878 37.3057 8.0691 37.3266 8.06943 37.3474C8.06975 37.3683 8.07008 37.3892 8.0704 37.41C8.07073 37.4309 8.07105 37.4518 8.07138 37.4726C8.0717 37.4935 8.07203 37.5143 8.07235 37.5352C8.07267 37.556 8.073 37.5768 8.07332 37.5977C8.07365 37.6185 8.07397 37.6393 8.0743 37.6602C8.07462 37.681 8.07494 37.7018 8.07527 37.7226C8.07559 37.7434 8.07592 37.7642 8.07624 37.785C8.07656 37.8058 8.07689 37.8266 8.07721 37.8474C8.07753 37.8682 8.07786 37.889 8.07818 37.9098C8.0785 37.9306 8.07883 37.9514 8.07915 37.9721C8.07947 37.9929 8.0798 38.0137 8.08012 38.0344C8.08044 38.0552 8.08077 38.0759 8.08109 38.0967C8.08141 38.1174 8.08174 38.1382 8.08206 38.1589C8.08238 38.1797 8.0827 38.2004 8.08303 38.2211C8.08335 38.2418 8.08367 38.2626 8.08399 38.2833C8.08432 38.304 8.08464 38.3247 8.08496 38.3454C8.08528 38.3661 8.08561 38.3868 8.08593 38.4075C8.08625 38.4282 8.08657 38.4489 8.08689 38.4696C8.08722 38.4903 8.08754 38.5109 8.08786 38.5316C8.08818 38.5523 8.0885 38.5729 8.08882 38.5936C8.08915 38.6143 8.08947 38.6349 8.08979 38.6556C8.09011 38.6762 8.09043 38.6968 8.09075 38.7175C8.09107 38.7381 8.09139 38.7588 8.09172 38.7794C8.09204 38.8 8.09236 38.8206 8.09268 38.8412C8.093 38.8618 8.09332 38.8824 8.09364 38.903C8.09396 38.9236 8.09428 38.9442 8.0946 38.9648C8.09492 38.9854 8.09524 39.006 8.09556 39.0266C8.09588 39.0472 8.0962 39.0677 8.09652 39.0883C8.09684 39.1089 8.09716 39.1294 8.09748 39.15C8.0978 39.1705 8.09812 39.1911 8.09844 39.2116C8.09876 39.2321 8.09908 39.2527 8.0994 39.2732C8.09972 39.2937 8.10004 39.3142 8.10036 39.3348C8.10068 39.3553 8.101 39.3758 8.10132 39.3963C8.10164 39.4168 8.10195 39.4373 8.10227 39.4578C8.10259 39.4783 8.10291 39.4987 8.10323 39.5192C8.10355 39.5397 8.10387 39.5602 8.10419 39.5806C8.1045 39.6011 8.10482 39.6215 8.10514 39.642C8.10546 39.6624 8.10578 39.6829 8.1061 39.7033C8.10641 39.7237 8.10673 39.7442 8.10705 39.7646C8.10737 39.785 8.10769 39.8054 8.108 39.8259C8.10832 39.8463 8.10864 39.8667 8.10896 39.8871C8.10927 39.9075 8.10959 39.9278 8.10991 39.9482C8.11022 39.9686 8.11054 39.989 8.11086 40.0094C8.11118 40.0297 8.11149 40.0501 8.11181 40.0704C8.11213 40.0908 8.11244 40.1111 8.11276 40.1315C8.11308 40.1518 8.11339 40.1722 8.11371 40.1925C8.11403 40.2128 8.11434 40.2331 8.11466 40.2535C8.11497 40.2738 8.11529 40.2941 8.11561 40.3144C8.11592 40.3347 8.11624 40.355 8.11655 40.3753C8.11687 40.3955 8.11719 40.4158 8.1175 40.4361C8.11782 40.4564 8.11813 40.4766 8.11845 40.4969C8.11876 40.5171 8.11908 40.5374 8.11939 40.5576C8.11971 40.5779 8.12002 40.5981 8.12034 40.6183C8.12065 40.6386 8.12097 40.6588 8.12128 40.679C8.1216 40.6992 8.12191 40.7194 8.12222 40.7396C8.12254 40.7598 8.12285 40.78 8.12317 40.8002C8.12348 40.8204 8.1238 40.8406 8.12411 40.8607C8.12442 40.8809 8.12474 40.9011 8.12505 40.9212C8.12536 40.9414 8.12568 40.9615 8.12599 40.9817C8.12631 41.0018 8.12662 41.0219 8.12693 41.0421C8.12725 41.0622 8.12756 41.0823 8.12787 41.1024C8.12818 41.1225 8.1285 41.1426 8.12881 41.1627C8.12912 41.1828 8.12944 41.2029 8.12975 41.223C8.13006 41.243 8.13037 41.2631 8.13068 41.2832C8.131 41.3032 8.13131 41.3233 8.13162 41.3433C8.13193 41.3634 8.13225 41.3834 8.13256 41.4035C8.13287 41.4235 8.13318 41.4435 8.13349 41.4635C8.1338 41.4835 8.13411 41.5036 8.13443 41.5236C8.13474 41.5436 8.13505 41.5635 8.13536 41.5835C8.13567 41.6035 8.13598 41.6235 8.13629 41.6435C8.1366 41.6634 8.13691 41.6834 8.13722 41.7033C8.13753 41.7233 8.13785 41.7432 8.13816 41.7632C8.13847 41.7831 8.13878 41.803 8.13909 41.823C8.1394 41.8429 8.13971 41.8628 8.14002 41.8827C8.14033 41.9026 8.14064 41.9225 8.14094 41.9424C8.14125 41.9623 8.14156 41.9821 8.14187 42.002C8.14218 42.0219 8.14249 42.0417 8.1428 42.0616C8.14311 42.0814 8.14342 42.1013 8.14373 42.1211C8.14404 42.141 8.14434 42.1608 8.14465 42.1806C8.14496 42.2004 8.14527 42.2202 8.14558 42.24C8.14589 42.2598 8.14619 42.2796 8.1465 42.2994C8.14681 42.3192 8.14712 42.339 8.14743 42.3588C8.14773 42.3785 8.14804 42.3983 8.14835 42.418C8.14866 42.4378 8.14896 42.4575 8.14927 42.4773C8.14958 42.497 8.14988 42.5167 8.15019 42.5364C8.1505 42.5562 8.1508 42.5759 8.15111 42.5956C8.15142 42.6153 8.15172 42.635 8.15203 42.6546C8.15234 42.6743 8.15264 42.694 8.15295 42.7137C8.15326 42.7333 8.15356 42.753 8.15387 42.7726C8.15417 42.7923 8.15448 42.8119 8.15478 42.8315C8.15509 42.8512 8.15539 42.8708 8.1557 42.8904C8.15601 42.91 8.15631 42.9296 8.15662 42.9492C8.15692 42.9688 8.15723 42.9884 8.15753 43.008C8.15783 43.0275 8.15814 43.0471 8.15844 43.0667C8.15875 43.0862 8.15905 43.1058 8.15936 43.1253C8.15966 43.1448 8.15996 43.1644 8.16027 43.1839C8.16057 43.2034 8.16088 43.2229 8.16118 43.2424C8.16148 43.2619 8.16179 43.2814 8.16209 43.3009C8.16239 43.3204 8.1627 43.3399 8.163 43.3593C8.1633 43.3788 8.1636 43.3982 8.16391 43.4177C8.16421 43.4371 8.16451 43.4566 8.16481 43.476C8.16512 43.4954 8.16542 43.5148 8.16572 43.5342C8.16602 43.5537 8.16633 43.5731 8.16663 43.5924C8.16693 43.6118 8.16723 43.6312 8.16753 43.6506C8.16783 43.6699 8.16813 43.6893 8.16844 43.7087C8.16874 43.728 8.16904 43.7474 8.16934 43.7667C8.16964 43.786 8.16994 43.8053 8.17024 43.8247C8.17054 43.844 8.17084 43.8633 8.17114 43.8826C8.17144 43.9019 8.17174 43.9211 8.17204 43.9404C8.17234 43.9597 8.17264 43.9789 8.17294 43.9982C8.17324 44.0175 8.17354 44.0367 8.17384 44.0559C8.17414 44.0752 8.17444 44.0944 8.17474 44.1136C8.17504 44.1328 8.17534 44.152 8.17563 44.1712C8.17593 44.1904 8.17623 44.2096 8.17653 44.2288C8.17683 44.2479 8.17713 44.2671 8.17743 44.2863C8.17772 44.3054 8.17802 44.3246 8.17832 44.3437C8.17862 44.3628 8.17891 44.382 8.17921 44.4011C8.17951 44.4202 8.17981 44.4393 8.1801 44.4584C8.1804 44.4775 8.1807 44.4966 8.181 44.5156C8.18129 44.5347 8.18159 44.5538 8.18189 44.5728C8.18218 44.5919 8.18248 44.6109 8.18277 44.6299C8.18307 44.649 8.18337 44.668 8.18366 44.687C8.18396 44.706 8.18425 44.725 8.18455 44.744C8.18485 44.763 8.18514 44.782 8.18544 44.801C8.18573 44.8199 8.18603 44.8389 8.18632 44.8578C8.18662 44.8768 8.18691 44.8957 8.18721 44.9146C8.1875 44.9336 8.18779 44.9525 8.18809 44.9714C8.18838 44.9903 8.18868 45.0092 8.18897 45.0281C8.18927 45.047 8.18956 45.0658 8.18985 45.0847C8.19015 45.1036 8.19044 45.1224 8.19073 45.1413C8.19103 45.1601 8.19132 45.1789 8.19161 45.1978C8.19191 45.2166 8.1922 45.2354 8.19249 45.2542C8.19278 45.273 8.19308 45.2918 8.19337 45.3106C8.19366 45.3293 8.19395 45.3481 8.19424 45.3669C8.19454 45.3856 8.19483 45.4044 8.19512 45.4231C8.19541 45.4418 8.1957 45.4606 8.19599 45.4793C8.19629 45.498 8.19658 45.5167 8.19687 45.5354C8.19716 45.5541 8.19745 45.5727 8.19774 45.5914C8.19803 45.6101 8.19832 45.6287 8.19861 45.6474L11.1982 45.6007Z" fill="#AE4BB1"/>
</svg>
