<svg width="230" height="218" viewBox="0 0 230 218" fill="none" xmlns="http://www.w3.org/2000/svg">
<path d="M61.7242 218C51.5758 212.163 42.1935 204.722 33.869 195.813C11.6388 172.043 -0.384588 140.657 0.00938359 107.453C0.403355 74.2426 13.1636 43.1841 35.9483 19.9906C43.7475 12.0527 52.4148 5.35515 61.7242 0V25.7689C57.7991 28.7238 54.0637 32.0069 50.5398 35.5892C31.7532 54.7116 21.2255 80.3273 20.9044 107.723C20.5834 135.119 30.4984 160.99 48.8253 180.594C52.8453 184.891 57.1644 188.78 61.7242 192.224V167.44C47.4975 151.79 39.8078 131.296 40.0631 109.627C40.3039 88.6373 47.9863 68.9458 61.7242 53.8434V166.221C61.9285 166.447 62.1328 166.666 62.3371 166.893C77.1912 182.652 97.0868 191.48 118.361 191.757C118.697 191.764 119.04 191.764 119.375 191.764C140.27 191.764 159.976 183.469 174.962 168.337C190.188 152.957 198.717 132.369 198.979 110.35C199.242 88.3308 191.202 67.5304 176.348 51.7713C161.494 36.005 141.598 27.177 120.331 26.9071C119.995 26.8998 119.653 26.8998 119.317 26.8998C98.4219 26.8998 78.7161 35.1952 63.7306 50.3268C63.0448 51.0199 62.3808 51.7276 61.7242 52.4353V26.4256C78.4096 13.9424 98.3854 7.22289 119.31 7.22289C119.726 7.22289 120.141 7.23019 120.565 7.23019C146.91 7.56579 171.562 18.5023 189.962 38.026C208.362 57.5497 218.32 83.3186 217.992 110.59C217.664 137.862 207.1 163.369 188.24 182.418C169.38 201.468 144.487 211.747 118.128 211.426C97.5756 211.164 78.0521 204.452 61.7242 192.238V218Z" fill="url(#paint0_linear_19907_94348)"/>
<defs>
<linearGradient id="paint0_linear_19907_94348" x1="-0.000402901" y1="110.171" x2="180.087" y2="27.5416" gradientUnits="userSpaceOnUse">
<stop stop-color="#E2A4E4"/>
<stop offset="1" stop-color="#42E3DE"/>
</linearGradient>
</defs>
</svg>
