<svg width="326" height="131" viewBox="0 0 326 131" fill="none" xmlns="http://www.w3.org/2000/svg">
<rect x="3" y="6.48438" width="316" height="120" fill="white"/>
<path d="M37.2266 23.7969H38.6797V34.1562L38.5547 35.7969H37.2266V23.7969ZM44.3906 31.5V31.6641C44.3906 32.2786 44.3177 32.849 44.1719 33.375C44.026 33.8958 43.8125 34.349 43.5312 34.7344C43.25 35.1198 42.9062 35.4193 42.5 35.6328C42.0938 35.8464 41.6276 35.9531 41.1016 35.9531C40.5651 35.9531 40.0938 35.862 39.6875 35.6797C39.2865 35.4922 38.9479 35.224 38.6719 34.875C38.3958 34.526 38.1745 34.1042 38.0078 33.6094C37.8464 33.1146 37.7344 32.5573 37.6719 31.9375V31.2188C37.7344 30.5938 37.8464 30.0339 38.0078 29.5391C38.1745 29.0443 38.3958 28.6224 38.6719 28.2734C38.9479 27.9193 39.2865 27.651 39.6875 27.4688C40.0885 27.2812 40.5547 27.1875 41.0859 27.1875C41.6172 27.1875 42.0885 27.2917 42.5 27.5C42.9115 27.7031 43.2552 27.9948 43.5312 28.375C43.8125 28.7552 44.026 29.2109 44.1719 29.7422C44.3177 30.2682 44.3906 30.8542 44.3906 31.5ZM42.9375 31.6641V31.5C42.9375 31.0781 42.8984 30.6823 42.8203 30.3125C42.7422 29.9375 42.6172 29.6094 42.4453 29.3281C42.2734 29.0417 42.0469 28.8177 41.7656 28.6562C41.4844 28.4896 41.138 28.4062 40.7266 28.4062C40.362 28.4062 40.0443 28.4688 39.7734 28.5938C39.5078 28.7188 39.2812 28.888 39.0938 29.1016C38.9062 29.3099 38.7526 29.5495 38.6328 29.8203C38.5182 30.0859 38.4323 30.362 38.375 30.6484V32.5312C38.4583 32.8958 38.5938 33.2474 38.7812 33.5859C38.974 33.9193 39.2292 34.1927 39.5469 34.4062C39.8698 34.6198 40.2682 34.7266 40.7422 34.7266C41.1328 34.7266 41.4661 34.6484 41.7422 34.4922C42.0234 34.3307 42.25 34.1094 42.4219 33.8281C42.599 33.5469 42.7292 33.2214 42.8125 32.8516C42.8958 32.4818 42.9375 32.0859 42.9375 31.6641ZM47.6641 28.6719V35.7969H46.2188V27.3438H47.625L47.6641 28.6719ZM50.3047 27.2969L50.2969 28.6406C50.1771 28.6146 50.0625 28.599 49.9531 28.5938C49.849 28.5833 49.7292 28.5781 49.5938 28.5781C49.2604 28.5781 48.9661 28.6302 48.7109 28.7344C48.4557 28.8385 48.2396 28.9844 48.0625 29.1719C47.8854 29.3594 47.7448 29.5833 47.6406 29.8438C47.5417 30.099 47.4766 30.3802 47.4453 30.6875L47.0391 30.9219C47.0391 30.4115 47.0885 29.9323 47.1875 29.4844C47.2917 29.0365 47.4505 28.6406 47.6641 28.2969C47.8776 27.9479 48.1484 27.6771 48.4766 27.4844C48.8099 27.2865 49.2057 27.1875 49.6641 27.1875C49.7682 27.1875 49.888 27.2005 50.0234 27.2266C50.1589 27.2474 50.2526 27.2708 50.3047 27.2969ZM54.9922 35.9531C54.4036 35.9531 53.8698 35.8542 53.3906 35.6562C52.9167 35.4531 52.5078 35.1693 52.1641 34.8047C51.8255 34.4401 51.5651 34.0078 51.3828 33.5078C51.2005 33.0078 51.1094 32.4609 51.1094 31.8672V31.5391C51.1094 30.8516 51.2109 30.2396 51.4141 29.7031C51.6172 29.1615 51.8932 28.7031 52.2422 28.3281C52.5911 27.9531 52.987 27.6693 53.4297 27.4766C53.8724 27.2839 54.3307 27.1875 54.8047 27.1875C55.4089 27.1875 55.9297 27.2917 56.3672 27.5C56.8099 27.7083 57.1719 28 57.4531 28.375C57.7344 28.7448 57.9427 29.1823 58.0781 29.6875C58.2135 30.1875 58.2812 30.7344 58.2812 31.3281V31.9766H51.9688V30.7969H56.8359V30.6875C56.8151 30.3125 56.737 29.9479 56.6016 29.5938C56.4714 29.2396 56.263 28.9479 55.9766 28.7188C55.6901 28.4896 55.2995 28.375 54.8047 28.375C54.4766 28.375 54.1745 28.4453 53.8984 28.5859C53.6224 28.7214 53.3854 28.9245 53.1875 29.1953C52.9896 29.4661 52.8359 29.7969 52.7266 30.1875C52.6172 30.5781 52.5625 31.0286 52.5625 31.5391V31.8672C52.5625 32.2682 52.6172 32.6458 52.7266 33C52.8411 33.349 53.0052 33.6562 53.2188 33.9219C53.4375 34.1875 53.7005 34.3958 54.0078 34.5469C54.3203 34.6979 54.6745 34.7734 55.0703 34.7734C55.5807 34.7734 56.013 34.6693 56.3672 34.4609C56.7214 34.2526 57.0312 33.974 57.2969 33.625L58.1719 34.3203C57.9896 34.5964 57.7578 34.8594 57.4766 35.1094C57.1953 35.3594 56.849 35.5625 56.4375 35.7188C56.0312 35.875 55.5495 35.9531 54.9922 35.9531ZM64.9531 34.3516V30C64.9531 29.6667 64.8854 29.3776 64.75 29.1328C64.6198 28.8828 64.4219 28.6901 64.1562 28.5547C63.8906 28.4193 63.5625 28.3516 63.1719 28.3516C62.8073 28.3516 62.487 28.4141 62.2109 28.5391C61.9401 28.6641 61.7266 28.8281 61.5703 29.0312C61.4193 29.2344 61.3438 29.4531 61.3438 29.6875H59.8984C59.8984 29.3854 59.9766 29.0859 60.1328 28.7891C60.2891 28.4922 60.513 28.224 60.8047 27.9844C61.1016 27.7396 61.4557 27.5469 61.8672 27.4062C62.2839 27.2604 62.7474 27.1875 63.2578 27.1875C63.8724 27.1875 64.4141 27.2917 64.8828 27.5C65.3568 27.7083 65.7266 28.0234 65.9922 28.4453C66.263 28.862 66.3984 29.3854 66.3984 30.0156V33.9531C66.3984 34.2344 66.4219 34.5339 66.4688 34.8516C66.5208 35.1693 66.5964 35.4427 66.6953 35.6719V35.7969H65.1875C65.1146 35.6302 65.0573 35.4089 65.0156 35.1328C64.974 34.8516 64.9531 34.5911 64.9531 34.3516ZM65.2031 30.6719L65.2188 31.6875H63.7578C63.3464 31.6875 62.9792 31.7214 62.6562 31.7891C62.3333 31.8516 62.0625 31.9479 61.8438 32.0781C61.625 32.2083 61.4583 32.3724 61.3438 32.5703C61.2292 32.763 61.1719 32.9896 61.1719 33.25C61.1719 33.5156 61.2318 33.7578 61.3516 33.9766C61.4714 34.1953 61.651 34.3698 61.8906 34.5C62.1354 34.625 62.4349 34.6875 62.7891 34.6875C63.2318 34.6875 63.6224 34.5938 63.9609 34.4062C64.2995 34.2188 64.5677 33.9896 64.7656 33.7188C64.9688 33.4479 65.0781 33.1849 65.0938 32.9297L65.7109 33.625C65.6745 33.8438 65.5755 34.0859 65.4141 34.3516C65.2526 34.6172 65.0365 34.8724 64.7656 35.1172C64.5 35.3568 64.1823 35.5573 63.8125 35.7188C63.4479 35.875 63.0365 35.9531 62.5781 35.9531C62.0052 35.9531 61.5026 35.8411 61.0703 35.6172C60.6432 35.3932 60.3099 35.0938 60.0703 34.7188C59.8359 34.3385 59.7188 33.9141 59.7188 33.4453C59.7188 32.9922 59.8073 32.5938 59.9844 32.25C60.1615 31.901 60.4167 31.612 60.75 31.3828C61.0833 31.1484 61.4844 30.9714 61.9531 30.8516C62.4219 30.7318 62.9453 30.6719 63.5234 30.6719H65.2031ZM72.2109 27.3438V28.4531H67.6406V27.3438H72.2109ZM69.1875 25.2891H70.6328V33.7031C70.6328 33.9896 70.6771 34.2057 70.7656 34.3516C70.8542 34.4974 70.9688 34.5938 71.1094 34.6406C71.25 34.6875 71.401 34.7109 71.5625 34.7109C71.6823 34.7109 71.8073 34.7005 71.9375 34.6797C72.0729 34.6536 72.1745 34.6328 72.2422 34.6172L72.25 35.7969C72.1354 35.8333 71.9844 35.8672 71.7969 35.8984C71.6146 35.9349 71.3932 35.9531 71.1328 35.9531C70.7786 35.9531 70.4531 35.8828 70.1562 35.7422C69.8594 35.6016 69.6224 35.3672 69.4453 35.0391C69.2734 34.7057 69.1875 34.2578 69.1875 33.6953V25.2891ZM75.3516 23.7969V35.7969H73.9062V23.7969H75.3516ZM75.0078 31.25L74.4062 31.2266C74.4115 30.6484 74.4974 30.1146 74.6641 29.625C74.8307 29.1302 75.0651 28.7005 75.3672 28.3359C75.6693 27.9714 76.0286 27.6901 76.4453 27.4922C76.8672 27.2891 77.3333 27.1875 77.8438 27.1875C78.2604 27.1875 78.6354 27.2448 78.9688 27.3594C79.3021 27.4688 79.5859 27.6458 79.8203 27.8906C80.0599 28.1354 80.2422 28.4531 80.3672 28.8438C80.4922 29.2292 80.5547 29.7005 80.5547 30.2578V35.7969H79.1016V30.2422C79.1016 29.7995 79.0365 29.4453 78.9062 29.1797C78.776 28.9089 78.5859 28.7135 78.3359 28.5938C78.0859 28.4688 77.7786 28.4062 77.4141 28.4062C77.0547 28.4062 76.7266 28.4818 76.4297 28.6328C76.138 28.7839 75.8854 28.9922 75.6719 29.2578C75.4635 29.5234 75.2995 29.8281 75.1797 30.1719C75.0651 30.5104 75.0078 30.8698 75.0078 31.25ZM84.2891 27.3438V35.7969H82.8359V27.3438H84.2891ZM82.7266 25.1016C82.7266 24.8672 82.7969 24.6693 82.9375 24.5078C83.0833 24.3464 83.2969 24.2656 83.5781 24.2656C83.8542 24.2656 84.0651 24.3464 84.2109 24.5078C84.362 24.6693 84.4375 24.8672 84.4375 25.1016C84.4375 25.3255 84.362 25.5182 84.2109 25.6797C84.0651 25.8359 83.8542 25.9141 83.5781 25.9141C83.2969 25.9141 83.0833 25.8359 82.9375 25.6797C82.7969 25.5182 82.7266 25.3255 82.7266 25.1016ZM88.0547 29.1484V35.7969H86.6094V27.3438H87.9766L88.0547 29.1484ZM87.7109 31.25L87.1094 31.2266C87.1146 30.6484 87.2005 30.1146 87.3672 29.625C87.5339 29.1302 87.7682 28.7005 88.0703 28.3359C88.3724 27.9714 88.7318 27.6901 89.1484 27.4922C89.5703 27.2891 90.0365 27.1875 90.5469 27.1875C90.9635 27.1875 91.3385 27.2448 91.6719 27.3594C92.0052 27.4688 92.2891 27.6458 92.5234 27.8906C92.763 28.1354 92.9453 28.4531 93.0703 28.8438C93.1953 29.2292 93.2578 29.7005 93.2578 30.2578V35.7969H91.8047V30.2422C91.8047 29.7995 91.7396 29.4453 91.6094 29.1797C91.4792 28.9089 91.2891 28.7135 91.0391 28.5938C90.7891 28.4688 90.4818 28.4062 90.1172 28.4062C89.7578 28.4062 89.4297 28.4818 89.1328 28.6328C88.8411 28.7839 88.5885 28.9922 88.375 29.2578C88.1667 29.5234 88.0026 29.8281 87.8828 30.1719C87.7682 30.5104 87.7109 30.8698 87.7109 31.25ZM100.93 27.3438H102.242V35.6172C102.242 36.362 102.091 36.9974 101.789 37.5234C101.487 38.0495 101.065 38.4479 100.523 38.7188C99.987 38.9948 99.3672 39.1328 98.6641 39.1328C98.3724 39.1328 98.0286 39.0859 97.6328 38.9922C97.2422 38.9036 96.8568 38.75 96.4766 38.5312C96.1016 38.3177 95.7865 38.0286 95.5312 37.6641L96.2891 36.8047C96.6432 37.2318 97.013 37.5286 97.3984 37.6953C97.7891 37.862 98.1745 37.9453 98.5547 37.9453C99.013 37.9453 99.4089 37.8594 99.7422 37.6875C100.076 37.5156 100.333 37.2604 100.516 36.9219C100.703 36.5885 100.797 36.1771 100.797 35.6875V29.2031L100.93 27.3438ZM95.1094 31.6641V31.5C95.1094 30.8542 95.1849 30.2682 95.3359 29.7422C95.4922 29.2109 95.7135 28.7552 96 28.375C96.2917 27.9948 96.6432 27.7031 97.0547 27.5C97.4661 27.2917 97.9297 27.1875 98.4453 27.1875C98.9766 27.1875 99.4401 27.2812 99.8359 27.4688C100.237 27.651 100.576 27.9193 100.852 28.2734C101.133 28.6224 101.354 29.0443 101.516 29.5391C101.677 30.0339 101.789 30.5938 101.852 31.2188V31.9375C101.794 32.5573 101.682 33.1146 101.516 33.6094C101.354 34.1042 101.133 34.526 100.852 34.875C100.576 35.224 100.237 35.4922 99.8359 35.6797C99.4349 35.862 98.9661 35.9531 98.4297 35.9531C97.9245 35.9531 97.4661 35.8464 97.0547 35.6328C96.6484 35.4193 96.2995 35.1198 96.0078 34.7344C95.7161 34.349 95.4922 33.8958 95.3359 33.375C95.1849 32.849 95.1094 32.2786 95.1094 31.6641ZM96.5547 31.5V31.6641C96.5547 32.0859 96.5964 32.4818 96.6797 32.8516C96.7682 33.2214 96.901 33.5469 97.0781 33.8281C97.2604 34.1094 97.4922 34.3307 97.7734 34.4922C98.0547 34.6484 98.3906 34.7266 98.7812 34.7266C99.2604 34.7266 99.6562 34.625 99.9688 34.4219C100.281 34.2188 100.529 33.9505 100.711 33.6172C100.898 33.2839 101.044 32.9219 101.148 32.5312V30.6484C101.091 30.362 101.003 30.0859 100.883 29.8203C100.768 29.5495 100.617 29.3099 100.43 29.1016C100.247 28.888 100.021 28.7188 99.75 28.5938C99.4792 28.4688 99.1615 28.4062 98.7969 28.4062C98.401 28.4062 98.0599 28.4896 97.7734 28.6562C97.4922 28.8177 97.2604 29.0417 97.0781 29.3281C96.901 29.6094 96.7682 29.9375 96.6797 30.3125C96.5964 30.6823 96.5547 31.0781 96.5547 31.5ZM104.461 35.0312C104.461 34.7865 104.536 34.5807 104.688 34.4141C104.844 34.2422 105.068 34.1562 105.359 34.1562C105.651 34.1562 105.872 34.2422 106.023 34.4141C106.18 34.5807 106.258 34.7865 106.258 35.0312C106.258 35.2708 106.18 35.474 106.023 35.6406C105.872 35.8073 105.651 35.8906 105.359 35.8906C105.068 35.8906 104.844 35.8073 104.688 35.6406C104.536 35.474 104.461 35.2708 104.461 35.0312ZM113.641 34.3516V30C113.641 29.6667 113.573 29.3776 113.438 29.1328C113.307 28.8828 113.109 28.6901 112.844 28.5547C112.578 28.4193 112.25 28.3516 111.859 28.3516C111.495 28.3516 111.174 28.4141 110.898 28.5391C110.628 28.6641 110.414 28.8281 110.258 29.0312C110.107 29.2344 110.031 29.4531 110.031 29.6875H108.586C108.586 29.3854 108.664 29.0859 108.82 28.7891C108.977 28.4922 109.201 28.224 109.492 27.9844C109.789 27.7396 110.143 27.5469 110.555 27.4062C110.971 27.2604 111.435 27.1875 111.945 27.1875C112.56 27.1875 113.102 27.2917 113.57 27.5C114.044 27.7083 114.414 28.0234 114.68 28.4453C114.951 28.862 115.086 29.3854 115.086 30.0156V33.9531C115.086 34.2344 115.109 34.5339 115.156 34.8516C115.208 35.1693 115.284 35.4427 115.383 35.6719V35.7969H113.875C113.802 35.6302 113.745 35.4089 113.703 35.1328C113.661 34.8516 113.641 34.5911 113.641 34.3516ZM113.891 30.6719L113.906 31.6875H112.445C112.034 31.6875 111.667 31.7214 111.344 31.7891C111.021 31.8516 110.75 31.9479 110.531 32.0781C110.312 32.2083 110.146 32.3724 110.031 32.5703C109.917 32.763 109.859 32.9896 109.859 33.25C109.859 33.5156 109.919 33.7578 110.039 33.9766C110.159 34.1953 110.339 34.3698 110.578 34.5C110.823 34.625 111.122 34.6875 111.477 34.6875C111.919 34.6875 112.31 34.5938 112.648 34.4062C112.987 34.2188 113.255 33.9896 113.453 33.7188C113.656 33.4479 113.766 33.1849 113.781 32.9297L114.398 33.625C114.362 33.8438 114.263 34.0859 114.102 34.3516C113.94 34.6172 113.724 34.8724 113.453 35.1172C113.188 35.3568 112.87 35.5573 112.5 35.7188C112.135 35.875 111.724 35.9531 111.266 35.9531C110.693 35.9531 110.19 35.8411 109.758 35.6172C109.331 35.3932 108.997 35.0938 108.758 34.7188C108.523 34.3385 108.406 33.9141 108.406 33.4453C108.406 32.9922 108.495 32.5938 108.672 32.25C108.849 31.901 109.104 31.612 109.438 31.3828C109.771 31.1484 110.172 30.9714 110.641 30.8516C111.109 30.7318 111.633 30.6719 112.211 30.6719H113.891ZM118.93 27.3438V35.7969H117.477V27.3438H118.93ZM117.367 25.1016C117.367 24.8672 117.438 24.6693 117.578 24.5078C117.724 24.3464 117.938 24.2656 118.219 24.2656C118.495 24.2656 118.706 24.3464 118.852 24.5078C119.003 24.6693 119.078 24.8672 119.078 25.1016C119.078 25.3255 119.003 25.5182 118.852 25.6797C118.706 25.8359 118.495 25.9141 118.219 25.9141C117.938 25.9141 117.724 25.8359 117.578 25.6797C117.438 25.5182 117.367 25.3255 117.367 25.1016ZM127.359 34.2969L129.531 27.3438H130.484L130.297 28.7266L128.086 35.7969H127.156L127.359 34.2969ZM125.898 27.3438L127.75 34.375L127.883 35.7969H126.906L124.453 27.3438H125.898ZM132.562 34.3203L134.328 27.3438H135.766L133.312 35.7969H132.344L132.562 34.3203ZM130.695 27.3438L132.82 34.1797L133.062 35.7969H132.141L129.867 28.7109L129.68 27.3438H130.695ZM142.234 34.3516V30C142.234 29.6667 142.167 29.3776 142.031 29.1328C141.901 28.8828 141.703 28.6901 141.438 28.5547C141.172 28.4193 140.844 28.3516 140.453 28.3516C140.089 28.3516 139.768 28.4141 139.492 28.5391C139.221 28.6641 139.008 28.8281 138.852 29.0312C138.701 29.2344 138.625 29.4531 138.625 29.6875H137.18C137.18 29.3854 137.258 29.0859 137.414 28.7891C137.57 28.4922 137.794 28.224 138.086 27.9844C138.383 27.7396 138.737 27.5469 139.148 27.4062C139.565 27.2604 140.029 27.1875 140.539 27.1875C141.154 27.1875 141.695 27.2917 142.164 27.5C142.638 27.7083 143.008 28.0234 143.273 28.4453C143.544 28.862 143.68 29.3854 143.68 30.0156V33.9531C143.68 34.2344 143.703 34.5339 143.75 34.8516C143.802 35.1693 143.878 35.4427 143.977 35.6719V35.7969H142.469C142.396 35.6302 142.339 35.4089 142.297 35.1328C142.255 34.8516 142.234 34.5911 142.234 34.3516ZM142.484 30.6719L142.5 31.6875H141.039C140.628 31.6875 140.26 31.7214 139.938 31.7891C139.615 31.8516 139.344 31.9479 139.125 32.0781C138.906 32.2083 138.74 32.3724 138.625 32.5703C138.51 32.763 138.453 32.9896 138.453 33.25C138.453 33.5156 138.513 33.7578 138.633 33.9766C138.753 34.1953 138.932 34.3698 139.172 34.5C139.417 34.625 139.716 34.6875 140.07 34.6875C140.513 34.6875 140.904 34.5938 141.242 34.4062C141.581 34.2188 141.849 33.9896 142.047 33.7188C142.25 33.4479 142.359 33.1849 142.375 32.9297L142.992 33.625C142.956 33.8438 142.857 34.0859 142.695 34.3516C142.534 34.6172 142.318 34.8724 142.047 35.1172C141.781 35.3568 141.464 35.5573 141.094 35.7188C140.729 35.875 140.318 35.9531 139.859 35.9531C139.286 35.9531 138.784 35.8411 138.352 35.6172C137.924 35.3932 137.591 35.0938 137.352 34.7188C137.117 34.3385 137 33.9141 137 33.4453C137 32.9922 137.089 32.5938 137.266 32.25C137.443 31.901 137.698 31.612 138.031 31.3828C138.365 31.1484 138.766 30.9714 139.234 30.8516C139.703 30.7318 140.227 30.6719 140.805 30.6719H142.484ZM147.398 29.1484V35.7969H145.953V27.3438H147.32L147.398 29.1484ZM147.055 31.25L146.453 31.2266C146.458 30.6484 146.544 30.1146 146.711 29.625C146.878 29.1302 147.112 28.7005 147.414 28.3359C147.716 27.9714 148.076 27.6901 148.492 27.4922C148.914 27.2891 149.38 27.1875 149.891 27.1875C150.307 27.1875 150.682 27.2448 151.016 27.3594C151.349 27.4688 151.633 27.6458 151.867 27.8906C152.107 28.1354 152.289 28.4531 152.414 28.8438C152.539 29.2292 152.602 29.7005 152.602 30.2578V35.7969H151.148V30.2422C151.148 29.7995 151.083 29.4453 150.953 29.1797C150.823 28.9089 150.633 28.7135 150.383 28.5938C150.133 28.4688 149.826 28.4062 149.461 28.4062C149.102 28.4062 148.773 28.4818 148.477 28.6328C148.185 28.7839 147.932 28.9922 147.719 29.2578C147.51 29.5234 147.346 29.8281 147.227 30.1719C147.112 30.5104 147.055 30.8698 147.055 31.25ZM158.336 27.3438V28.4531H153.766V27.3438H158.336ZM155.312 25.2891H156.758V33.7031C156.758 33.9896 156.802 34.2057 156.891 34.3516C156.979 34.4974 157.094 34.5938 157.234 34.6406C157.375 34.6875 157.526 34.7109 157.688 34.7109C157.807 34.7109 157.932 34.7005 158.062 34.6797C158.198 34.6536 158.299 34.6328 158.367 34.6172L158.375 35.7969C158.26 35.8333 158.109 35.8672 157.922 35.8984C157.74 35.9349 157.518 35.9531 157.258 35.9531C156.904 35.9531 156.578 35.8828 156.281 35.7422C155.984 35.6016 155.747 35.3672 155.57 35.0391C155.398 34.7057 155.312 34.2578 155.312 33.6953V25.2891ZM164.953 33.5547C164.953 33.3464 164.906 33.1536 164.812 32.9766C164.724 32.7943 164.539 32.6302 164.258 32.4844C163.982 32.3333 163.565 32.2031 163.008 32.0938C162.539 31.9948 162.115 31.8776 161.734 31.7422C161.359 31.6068 161.039 31.4427 160.773 31.25C160.513 31.0573 160.312 30.8307 160.172 30.5703C160.031 30.3099 159.961 30.0052 159.961 29.6562C159.961 29.3229 160.034 29.0078 160.18 28.7109C160.331 28.4141 160.542 28.151 160.812 27.9219C161.089 27.6927 161.419 27.513 161.805 27.3828C162.19 27.2526 162.62 27.1875 163.094 27.1875C163.771 27.1875 164.349 27.3073 164.828 27.5469C165.307 27.7865 165.674 28.1068 165.93 28.5078C166.185 28.9036 166.312 29.3438 166.312 29.8281H164.867C164.867 29.5938 164.797 29.3672 164.656 29.1484C164.521 28.9245 164.32 28.7396 164.055 28.5938C163.794 28.4479 163.474 28.375 163.094 28.375C162.693 28.375 162.367 28.4375 162.117 28.5625C161.872 28.6823 161.693 28.8359 161.578 29.0234C161.469 29.2109 161.414 29.4089 161.414 29.6172C161.414 29.7734 161.44 29.9141 161.492 30.0391C161.549 30.1589 161.648 30.2708 161.789 30.375C161.93 30.474 162.128 30.5677 162.383 30.6562C162.638 30.7448 162.964 30.8333 163.359 30.9219C164.052 31.0781 164.622 31.2656 165.07 31.4844C165.518 31.7031 165.852 31.9714 166.07 32.2891C166.289 32.6068 166.398 32.9922 166.398 33.4453C166.398 33.8151 166.32 34.1536 166.164 34.4609C166.013 34.7682 165.792 35.0339 165.5 35.2578C165.214 35.4766 164.87 35.6484 164.469 35.7734C164.073 35.8932 163.628 35.9531 163.133 35.9531C162.388 35.9531 161.758 35.8203 161.242 35.5547C160.727 35.2891 160.336 34.9453 160.07 34.5234C159.805 34.1016 159.672 33.6562 159.672 33.1875H161.125C161.146 33.5833 161.26 33.8984 161.469 34.1328C161.677 34.362 161.932 34.526 162.234 34.625C162.536 34.7188 162.836 34.7656 163.133 34.7656C163.529 34.7656 163.859 34.7135 164.125 34.6094C164.396 34.5052 164.602 34.362 164.742 34.1797C164.883 33.9974 164.953 33.7891 164.953 33.5547ZM175.805 27.3438V28.4531H171.234V27.3438H175.805ZM172.781 25.2891H174.227V33.7031C174.227 33.9896 174.271 34.2057 174.359 34.3516C174.448 34.4974 174.562 34.5938 174.703 34.6406C174.844 34.6875 174.995 34.7109 175.156 34.7109C175.276 34.7109 175.401 34.7005 175.531 34.6797C175.667 34.6536 175.768 34.6328 175.836 34.6172L175.844 35.7969C175.729 35.8333 175.578 35.8672 175.391 35.8984C175.208 35.9349 174.987 35.9531 174.727 35.9531C174.372 35.9531 174.047 35.8828 173.75 35.7422C173.453 35.6016 173.216 35.3672 173.039 35.0391C172.867 34.7057 172.781 34.2578 172.781 33.6953V25.2891ZM176.961 31.6641V31.4844C176.961 30.875 177.049 30.3099 177.227 29.7891C177.404 29.263 177.659 28.8073 177.992 28.4219C178.326 28.0312 178.729 27.7292 179.203 27.5156C179.677 27.2969 180.208 27.1875 180.797 27.1875C181.391 27.1875 181.924 27.2969 182.398 27.5156C182.878 27.7292 183.284 28.0312 183.617 28.4219C183.956 28.8073 184.214 29.263 184.391 29.7891C184.568 30.3099 184.656 30.875 184.656 31.4844V31.6641C184.656 32.2734 184.568 32.8385 184.391 33.3594C184.214 33.8802 183.956 34.3359 183.617 34.7266C183.284 35.112 182.88 35.4141 182.406 35.6328C181.938 35.8464 181.406 35.9531 180.812 35.9531C180.219 35.9531 179.685 35.8464 179.211 35.6328C178.737 35.4141 178.331 35.112 177.992 34.7266C177.659 34.3359 177.404 33.8802 177.227 33.3594C177.049 32.8385 176.961 32.2734 176.961 31.6641ZM178.406 31.4844V31.6641C178.406 32.0859 178.456 32.4844 178.555 32.8594C178.654 33.2292 178.802 33.5573 179 33.8438C179.203 34.1302 179.456 34.3568 179.758 34.5234C180.06 34.6849 180.411 34.7656 180.812 34.7656C181.208 34.7656 181.555 34.6849 181.852 34.5234C182.154 34.3568 182.404 34.1302 182.602 33.8438C182.799 33.5573 182.948 33.2292 183.047 32.8594C183.151 32.4844 183.203 32.0859 183.203 31.6641V31.4844C183.203 31.0677 183.151 30.6745 183.047 30.3047C182.948 29.9297 182.797 29.599 182.594 29.3125C182.396 29.0208 182.146 28.7917 181.844 28.625C181.547 28.4583 181.198 28.375 180.797 28.375C180.401 28.375 180.052 28.4583 179.75 28.625C179.453 28.7917 179.203 29.0208 179 29.3125C178.802 29.599 178.654 29.9297 178.555 30.3047C178.456 30.6745 178.406 31.0677 178.406 31.4844Z" fill="black"/>
<path d="M53.5684 53.4062H54.6934V59.1777C54.6934 59.8184 54.5508 60.3516 54.2656 60.7773C53.9805 61.2031 53.6016 61.5234 53.1289 61.7383C52.6602 61.9492 52.1504 62.0547 51.5996 62.0547C51.0215 62.0547 50.498 61.9492 50.0293 61.7383C49.5645 61.5234 49.1953 61.2031 48.9219 60.7773C48.6523 60.3516 48.5176 59.8184 48.5176 59.1777V53.4062H49.6367V59.1777C49.6367 59.623 49.7188 59.9902 49.8828 60.2793C50.0469 60.5684 50.2754 60.7832 50.5684 60.9238C50.8652 61.0645 51.209 61.1348 51.5996 61.1348C51.9941 61.1348 52.3379 61.0645 52.6309 60.9238C52.9277 60.7832 53.1582 60.5684 53.3223 60.2793C53.4863 59.9902 53.5684 59.623 53.5684 59.1777V53.4062ZM59.9961 60.2559C59.9961 60.0996 59.9609 59.9551 59.8906 59.8223C59.8242 59.6855 59.6855 59.5625 59.4746 59.4531C59.2676 59.3398 58.9551 59.2422 58.5371 59.1602C58.1855 59.0859 57.8672 58.998 57.582 58.8965C57.3008 58.7949 57.0605 58.6719 56.8613 58.5273C56.666 58.3828 56.5156 58.2129 56.4102 58.0176C56.3047 57.8223 56.252 57.5938 56.252 57.332C56.252 57.082 56.3066 56.8457 56.416 56.623C56.5293 56.4004 56.6875 56.2031 56.8906 56.0312C57.0977 55.8594 57.3457 55.7246 57.6348 55.627C57.9238 55.5293 58.2461 55.4805 58.6016 55.4805C59.1094 55.4805 59.543 55.5703 59.9023 55.75C60.2617 55.9297 60.5371 56.1699 60.7285 56.4707C60.9199 56.7676 61.0156 57.0977 61.0156 57.4609H59.9316C59.9316 57.2852 59.8789 57.1152 59.7734 56.9512C59.6719 56.7832 59.5215 56.6445 59.3223 56.5352C59.127 56.4258 58.8867 56.3711 58.6016 56.3711C58.3008 56.3711 58.0566 56.418 57.8691 56.5117C57.6855 56.6016 57.5508 56.7168 57.4648 56.8574C57.3828 56.998 57.3418 57.1465 57.3418 57.3027C57.3418 57.4199 57.3613 57.5254 57.4004 57.6191C57.4434 57.709 57.5176 57.793 57.623 57.8711C57.7285 57.9453 57.877 58.0156 58.0684 58.082C58.2598 58.1484 58.5039 58.2148 58.8008 58.2812C59.3203 58.3984 59.748 58.5391 60.084 58.7031C60.4199 58.8672 60.6699 59.0684 60.834 59.3066C60.998 59.5449 61.0801 59.834 61.0801 60.1738C61.0801 60.4512 61.0215 60.7051 60.9043 60.9355C60.791 61.166 60.625 61.3652 60.4062 61.5332C60.1914 61.6973 59.9336 61.8262 59.6328 61.9199C59.3359 62.0098 59.002 62.0547 58.6309 62.0547C58.0723 62.0547 57.5996 61.9551 57.2129 61.7559C56.8262 61.5566 56.5332 61.2988 56.334 60.9824C56.1348 60.666 56.0352 60.332 56.0352 59.9805H57.125C57.1406 60.2773 57.2266 60.5137 57.3828 60.6895C57.5391 60.8613 57.7305 60.9844 57.957 61.0586C58.1836 61.1289 58.4082 61.1641 58.6309 61.1641C58.9277 61.1641 59.1758 61.125 59.375 61.0469C59.5781 60.9688 59.7324 60.8613 59.8379 60.7246C59.9434 60.5879 59.9961 60.4316 59.9961 60.2559ZM65.1348 62.0547C64.6934 62.0547 64.293 61.9805 63.9336 61.832C63.5781 61.6797 63.2715 61.4668 63.0137 61.1934C62.7598 60.9199 62.5645 60.5957 62.4277 60.2207C62.291 59.8457 62.2227 59.4355 62.2227 58.9902V58.7441C62.2227 58.2285 62.2988 57.7695 62.4512 57.3672C62.6035 56.9609 62.8105 56.6172 63.0723 56.3359C63.334 56.0547 63.6309 55.8418 63.9629 55.6973C64.2949 55.5527 64.6387 55.4805 64.9941 55.4805C65.4473 55.4805 65.8379 55.5586 66.166 55.7148C66.498 55.8711 66.7695 56.0898 66.9805 56.3711C67.1914 56.6484 67.3477 56.9766 67.4492 57.3555C67.5508 57.7305 67.6016 58.1406 67.6016 58.5859V59.0723H62.8672V58.1875H66.5176V58.1055C66.502 57.8242 66.4434 57.5508 66.3418 57.2852C66.2441 57.0195 66.0879 56.8008 65.873 56.6289C65.6582 56.457 65.3652 56.3711 64.9941 56.3711C64.748 56.3711 64.5215 56.4238 64.3145 56.5293C64.1074 56.6309 63.9297 56.7832 63.7812 56.9863C63.6328 57.1895 63.5176 57.4375 63.4355 57.7305C63.3535 58.0234 63.3125 58.3613 63.3125 58.7441V58.9902C63.3125 59.291 63.3535 59.5742 63.4355 59.8398C63.5215 60.1016 63.6445 60.332 63.8047 60.5312C63.9688 60.7305 64.166 60.8867 64.3965 61C64.6309 61.1133 64.8965 61.1699 65.1934 61.1699C65.5762 61.1699 65.9004 61.0918 66.166 60.9355C66.4316 60.7793 66.6641 60.5703 66.8633 60.3086L67.5195 60.8301C67.3828 61.0371 67.209 61.2344 66.998 61.4219C66.7871 61.6094 66.5273 61.7617 66.2188 61.8789C65.9141 61.9961 65.5527 62.0547 65.1348 62.0547ZM73.625 61.2812L75.3887 55.5977H76.5488L74.0059 62.916C73.9473 63.0723 73.8691 63.2402 73.7715 63.4199C73.6777 63.6035 73.5566 63.7773 73.4082 63.9414C73.2598 64.1055 73.0801 64.2383 72.8691 64.3398C72.6621 64.4453 72.4141 64.498 72.125 64.498C72.0391 64.498 71.9297 64.4863 71.7969 64.4629C71.6641 64.4395 71.5703 64.4199 71.5156 64.4043L71.5098 63.5254C71.541 63.5293 71.5898 63.5332 71.6562 63.5371C71.7266 63.5449 71.7754 63.5488 71.8027 63.5488C72.0488 63.5488 72.2578 63.5156 72.4297 63.4492C72.6016 63.3867 72.7461 63.2793 72.8633 63.127C72.9844 62.9785 73.0879 62.7734 73.1738 62.5117L73.625 61.2812ZM72.3301 55.5977L73.9766 60.5195L74.2578 61.6621L73.4785 62.0605L71.1465 55.5977H72.3301ZM77.1465 58.8379V58.7031C77.1465 58.2461 77.2129 57.8223 77.3457 57.4316C77.4785 57.0371 77.6699 56.6953 77.9199 56.4062C78.1699 56.1133 78.4727 55.8867 78.8281 55.7266C79.1836 55.5625 79.582 55.4805 80.0234 55.4805C80.4688 55.4805 80.8691 55.5625 81.2246 55.7266C81.584 55.8867 81.8887 56.1133 82.1387 56.4062C82.3926 56.6953 82.5859 57.0371 82.7188 57.4316C82.8516 57.8223 82.918 58.2461 82.918 58.7031V58.8379C82.918 59.2949 82.8516 59.7188 82.7188 60.1094C82.5859 60.5 82.3926 60.8418 82.1387 61.1348C81.8887 61.4238 81.5859 61.6504 81.2305 61.8145C80.8789 61.9746 80.4805 62.0547 80.0352 62.0547C79.5898 62.0547 79.1895 61.9746 78.834 61.8145C78.4785 61.6504 78.1738 61.4238 77.9199 61.1348C77.6699 60.8418 77.4785 60.5 77.3457 60.1094C77.2129 59.7188 77.1465 59.2949 77.1465 58.8379ZM78.2305 58.7031V58.8379C78.2305 59.1543 78.2676 59.4531 78.3418 59.7344C78.416 60.0117 78.5273 60.2578 78.6758 60.4727C78.8281 60.6875 79.0176 60.8574 79.2441 60.9824C79.4707 61.1035 79.7344 61.1641 80.0352 61.1641C80.332 61.1641 80.5918 61.1035 80.8145 60.9824C81.041 60.8574 81.2285 60.6875 81.377 60.4727C81.5254 60.2578 81.6367 60.0117 81.7109 59.7344C81.7891 59.4531 81.8281 59.1543 81.8281 58.8379V58.7031C81.8281 58.3906 81.7891 58.0957 81.7109 57.8184C81.6367 57.5371 81.5234 57.2891 81.3711 57.0742C81.2227 56.8555 81.0352 56.6836 80.8086 56.5586C80.5859 56.4336 80.3242 56.3711 80.0234 56.3711C79.7266 56.3711 79.4648 56.4336 79.2383 56.5586C79.0156 56.6836 78.8281 56.8555 78.6758 57.0742C78.5273 57.2891 78.416 57.5371 78.3418 57.8184C78.2676 58.0957 78.2305 58.3906 78.2305 58.7031ZM88.1562 60.4727V55.5977H89.2461V61.9375H88.209L88.1562 60.4727ZM88.3613 59.1367L88.8125 59.125C88.8125 59.5469 88.7676 59.9375 88.6777 60.2969C88.5918 60.6523 88.4512 60.9609 88.2559 61.2227C88.0605 61.4844 87.8047 61.6895 87.4883 61.8379C87.1719 61.9824 86.7871 62.0547 86.334 62.0547C86.0254 62.0547 85.7422 62.0098 85.4844 61.9199C85.2305 61.8301 85.0117 61.6914 84.8281 61.5039C84.6445 61.3164 84.502 61.0723 84.4004 60.7715C84.3027 60.4707 84.2539 60.1094 84.2539 59.6875V55.5977H85.3379V59.6992C85.3379 59.9844 85.3691 60.2207 85.4316 60.4082C85.498 60.5918 85.5859 60.7383 85.6953 60.8477C85.8086 60.9531 85.9336 61.0273 86.0703 61.0703C86.2109 61.1133 86.3555 61.1348 86.5039 61.1348C86.9648 61.1348 87.3301 61.0469 87.5996 60.8711C87.8691 60.6914 88.0625 60.4512 88.1797 60.1504C88.3008 59.8457 88.3613 59.5078 88.3613 59.1367ZM91.9824 56.5938V61.9375H90.8984V55.5977H91.9531L91.9824 56.5938ZM93.9629 55.5625L93.957 56.5703C93.8672 56.5508 93.7812 56.5391 93.6992 56.5352C93.6211 56.5273 93.5312 56.5234 93.4297 56.5234C93.1797 56.5234 92.959 56.5625 92.7676 56.6406C92.5762 56.7188 92.4141 56.8281 92.2812 56.9688C92.1484 57.1094 92.043 57.2773 91.9648 57.4727C91.8906 57.6641 91.8418 57.875 91.8184 58.1055L91.5137 58.2812C91.5137 57.8984 91.5508 57.5391 91.625 57.2031C91.7031 56.8672 91.8223 56.5703 91.9824 56.3125C92.1426 56.0508 92.3457 55.8477 92.5918 55.7031C92.8418 55.5547 93.1387 55.4805 93.4824 55.4805C93.5605 55.4805 93.6504 55.4902 93.752 55.5098C93.8535 55.5254 93.9238 55.543 93.9629 55.5625ZM100.479 61.1641C100.736 61.1641 100.975 61.1113 101.193 61.0059C101.412 60.9004 101.592 60.7559 101.732 60.5723C101.873 60.3848 101.953 60.1719 101.973 59.9336H103.004C102.984 60.3086 102.857 60.6582 102.623 60.9824C102.393 61.3027 102.09 61.5625 101.715 61.7617C101.34 61.957 100.928 62.0547 100.479 62.0547C100.002 62.0547 99.5859 61.9707 99.2305 61.8027C98.8789 61.6348 98.5859 61.4043 98.3516 61.1113C98.1211 60.8184 97.9473 60.4824 97.8301 60.1035C97.7168 59.7207 97.6602 59.3164 97.6602 58.8906V58.6445C97.6602 58.2188 97.7168 57.8164 97.8301 57.4375C97.9473 57.0547 98.1211 56.7168 98.3516 56.4238C98.5859 56.1309 98.8789 55.9004 99.2305 55.7324C99.5859 55.5645 100.002 55.4805 100.479 55.4805C100.975 55.4805 101.408 55.582 101.779 55.7852C102.15 55.9844 102.441 56.2578 102.652 56.6055C102.867 56.9492 102.984 57.3398 103.004 57.7773H101.973C101.953 57.5156 101.879 57.2793 101.75 57.0684C101.625 56.8574 101.453 56.6895 101.234 56.5645C101.02 56.4355 100.768 56.3711 100.479 56.3711C100.146 56.3711 99.8672 56.4375 99.6406 56.5703C99.418 56.6992 99.2402 56.875 99.1074 57.0977C98.9785 57.3164 98.8848 57.5605 98.8262 57.8301C98.7715 58.0957 98.7441 58.3672 98.7441 58.6445V58.8906C98.7441 59.168 98.7715 59.4414 98.8262 59.7109C98.8809 59.9805 98.9727 60.2246 99.1016 60.4434C99.2344 60.6621 99.4121 60.8379 99.6348 60.9707C99.8613 61.0996 100.143 61.1641 100.479 61.1641ZM107.961 60.8535V57.5898C107.961 57.3398 107.91 57.123 107.809 56.9395C107.711 56.752 107.562 56.6074 107.363 56.5059C107.164 56.4043 106.918 56.3535 106.625 56.3535C106.352 56.3535 106.111 56.4004 105.904 56.4941C105.701 56.5879 105.541 56.7109 105.424 56.8633C105.311 57.0156 105.254 57.1797 105.254 57.3555H104.17C104.17 57.1289 104.229 56.9043 104.346 56.6816C104.463 56.459 104.631 56.2578 104.85 56.0781C105.072 55.8945 105.338 55.75 105.646 55.6445C105.959 55.5352 106.307 55.4805 106.689 55.4805C107.15 55.4805 107.557 55.5586 107.908 55.7148C108.264 55.8711 108.541 56.1074 108.74 56.4238C108.943 56.7363 109.045 57.1289 109.045 57.6016V60.5547C109.045 60.7656 109.062 60.9902 109.098 61.2285C109.137 61.4668 109.193 61.6719 109.268 61.8438V61.9375H108.137C108.082 61.8125 108.039 61.6465 108.008 61.4395C107.977 61.2285 107.961 61.0332 107.961 60.8535ZM108.148 58.0938L108.16 58.8555H107.064C106.756 58.8555 106.48 58.8809 106.238 58.9316C105.996 58.9785 105.793 59.0508 105.629 59.1484C105.465 59.2461 105.34 59.3691 105.254 59.5176C105.168 59.6621 105.125 59.832 105.125 60.0273C105.125 60.2266 105.17 60.4082 105.26 60.5723C105.35 60.7363 105.484 60.8672 105.664 60.9648C105.848 61.0586 106.072 61.1055 106.338 61.1055C106.67 61.1055 106.963 61.0352 107.217 60.8945C107.471 60.7539 107.672 60.582 107.82 60.3789C107.973 60.1758 108.055 59.9785 108.066 59.7871L108.529 60.3086C108.502 60.4727 108.428 60.6543 108.307 60.8535C108.186 61.0527 108.023 61.2441 107.82 61.4277C107.621 61.6074 107.383 61.7578 107.105 61.8789C106.832 61.9961 106.523 62.0547 106.18 62.0547C105.75 62.0547 105.373 61.9707 105.049 61.8027C104.729 61.6348 104.479 61.4102 104.299 61.1289C104.123 60.8438 104.035 60.5254 104.035 60.1738C104.035 59.834 104.102 59.5352 104.234 59.2773C104.367 59.0156 104.559 58.7988 104.809 58.627C105.059 58.4512 105.359 58.3184 105.711 58.2285C106.062 58.1387 106.455 58.0938 106.889 58.0938H108.148ZM111.828 56.8574V61.9375H110.738V55.5977H111.77L111.828 56.8574ZM111.605 58.5273L111.102 58.5098C111.105 58.0762 111.162 57.6758 111.271 57.3086C111.381 56.9375 111.543 56.6152 111.758 56.3418C111.973 56.0684 112.24 55.8574 112.561 55.709C112.881 55.5566 113.252 55.4805 113.674 55.4805C113.971 55.4805 114.244 55.5234 114.494 55.6094C114.744 55.6914 114.961 55.8223 115.145 56.002C115.328 56.1816 115.471 56.4121 115.572 56.6934C115.674 56.9746 115.725 57.3145 115.725 57.7129V61.9375H114.641V57.7656C114.641 57.4336 114.584 57.168 114.471 56.9688C114.361 56.7695 114.205 56.625 114.002 56.5352C113.799 56.4414 113.561 56.3945 113.287 56.3945C112.967 56.3945 112.699 56.4512 112.484 56.5645C112.27 56.6777 112.098 56.834 111.969 57.0332C111.84 57.2324 111.746 57.4609 111.688 57.7188C111.633 57.9727 111.605 58.2422 111.605 58.5273ZM115.713 57.9297L114.986 58.1523C114.99 57.8047 115.047 57.4707 115.156 57.1504C115.27 56.8301 115.432 56.5449 115.643 56.2949C115.857 56.0449 116.121 55.8477 116.434 55.7031C116.746 55.5547 117.104 55.4805 117.506 55.4805C117.846 55.4805 118.146 55.5254 118.408 55.6152C118.674 55.7051 118.896 55.8438 119.076 56.0312C119.26 56.2148 119.398 56.4512 119.492 56.7402C119.586 57.0293 119.633 57.373 119.633 57.7715V61.9375H118.543V57.7598C118.543 57.4043 118.486 57.1289 118.373 56.9336C118.264 56.7344 118.107 56.5957 117.904 56.5176C117.705 56.4355 117.467 56.3945 117.189 56.3945C116.951 56.3945 116.74 56.4355 116.557 56.5176C116.373 56.5996 116.219 56.7129 116.094 56.8574C115.969 56.998 115.873 57.1602 115.807 57.3438C115.744 57.5273 115.713 57.7227 115.713 57.9297ZM123.904 62.0547C123.463 62.0547 123.062 61.9805 122.703 61.832C122.348 61.6797 122.041 61.4668 121.783 61.1934C121.529 60.9199 121.334 60.5957 121.197 60.2207C121.061 59.8457 120.992 59.4355 120.992 58.9902V58.7441C120.992 58.2285 121.068 57.7695 121.221 57.3672C121.373 56.9609 121.58 56.6172 121.842 56.3359C122.104 56.0547 122.4 55.8418 122.732 55.6973C123.064 55.5527 123.408 55.4805 123.764 55.4805C124.217 55.4805 124.607 55.5586 124.936 55.7148C125.268 55.8711 125.539 56.0898 125.75 56.3711C125.961 56.6484 126.117 56.9766 126.219 57.3555C126.32 57.7305 126.371 58.1406 126.371 58.5859V59.0723H121.637V58.1875H125.287V58.1055C125.271 57.8242 125.213 57.5508 125.111 57.2852C125.014 57.0195 124.857 56.8008 124.643 56.6289C124.428 56.457 124.135 56.3711 123.764 56.3711C123.518 56.3711 123.291 56.4238 123.084 56.5293C122.877 56.6309 122.699 56.7832 122.551 56.9863C122.402 57.1895 122.287 57.4375 122.205 57.7305C122.123 58.0234 122.082 58.3613 122.082 58.7441V58.9902C122.082 59.291 122.123 59.5742 122.205 59.8398C122.291 60.1016 122.414 60.332 122.574 60.5312C122.738 60.7305 122.936 60.8867 123.166 61C123.4 61.1133 123.666 61.1699 123.963 61.1699C124.346 61.1699 124.67 61.0918 124.936 60.9355C125.201 60.7793 125.434 60.5703 125.633 60.3086L126.289 60.8301C126.152 61.0371 125.979 61.2344 125.768 61.4219C125.557 61.6094 125.297 61.7617 124.988 61.8789C124.684 61.9961 124.322 62.0547 123.904 62.0547ZM128.721 56.5938V61.9375H127.637V55.5977H128.691L128.721 56.5938ZM130.701 55.5625L130.695 56.5703C130.605 56.5508 130.52 56.5391 130.438 56.5352C130.359 56.5273 130.27 56.5234 130.168 56.5234C129.918 56.5234 129.697 56.5625 129.506 56.6406C129.314 56.7188 129.152 56.8281 129.02 56.9688C128.887 57.1094 128.781 57.2773 128.703 57.4727C128.629 57.6641 128.58 57.875 128.557 58.1055L128.252 58.2812C128.252 57.8984 128.289 57.5391 128.363 57.2031C128.441 56.8672 128.561 56.5703 128.721 56.3125C128.881 56.0508 129.084 55.8477 129.33 55.7031C129.58 55.5547 129.877 55.4805 130.221 55.4805C130.299 55.4805 130.389 55.4902 130.49 55.5098C130.592 55.5254 130.662 55.543 130.701 55.5625ZM135.207 60.8535V57.5898C135.207 57.3398 135.156 57.123 135.055 56.9395C134.957 56.752 134.809 56.6074 134.609 56.5059C134.41 56.4043 134.164 56.3535 133.871 56.3535C133.598 56.3535 133.357 56.4004 133.15 56.4941C132.947 56.5879 132.787 56.7109 132.67 56.8633C132.557 57.0156 132.5 57.1797 132.5 57.3555H131.416C131.416 57.1289 131.475 56.9043 131.592 56.6816C131.709 56.459 131.877 56.2578 132.096 56.0781C132.318 55.8945 132.584 55.75 132.893 55.6445C133.205 55.5352 133.553 55.4805 133.936 55.4805C134.396 55.4805 134.803 55.5586 135.154 55.7148C135.51 55.8711 135.787 56.1074 135.986 56.4238C136.189 56.7363 136.291 57.1289 136.291 57.6016V60.5547C136.291 60.7656 136.309 60.9902 136.344 61.2285C136.383 61.4668 136.439 61.6719 136.514 61.8438V61.9375H135.383C135.328 61.8125 135.285 61.6465 135.254 61.4395C135.223 61.2285 135.207 61.0332 135.207 60.8535ZM135.395 58.0938L135.406 58.8555H134.311C134.002 58.8555 133.727 58.8809 133.484 58.9316C133.242 58.9785 133.039 59.0508 132.875 59.1484C132.711 59.2461 132.586 59.3691 132.5 59.5176C132.414 59.6621 132.371 59.832 132.371 60.0273C132.371 60.2266 132.416 60.4082 132.506 60.5723C132.596 60.7363 132.73 60.8672 132.91 60.9648C133.094 61.0586 133.318 61.1055 133.584 61.1055C133.916 61.1055 134.209 61.0352 134.463 60.8945C134.717 60.7539 134.918 60.582 135.066 60.3789C135.219 60.1758 135.301 59.9785 135.312 59.7871L135.775 60.3086C135.748 60.4727 135.674 60.6543 135.553 60.8535C135.432 61.0527 135.27 61.2441 135.066 61.4277C134.867 61.6074 134.629 61.7578 134.352 61.8789C134.078 61.9961 133.77 62.0547 133.426 62.0547C132.996 62.0547 132.619 61.9707 132.295 61.8027C131.975 61.6348 131.725 61.4102 131.545 61.1289C131.369 60.8438 131.281 60.5254 131.281 60.1738C131.281 59.834 131.348 59.5352 131.48 59.2773C131.613 59.0156 131.805 58.7988 132.055 58.627C132.305 58.4512 132.605 58.3184 132.957 58.2285C133.309 58.1387 133.701 58.0938 134.135 58.0938H135.395Z" fill="black"/>
<path fill-rule="evenodd" clip-rule="evenodd" d="M30.75 50.5625C32.1307 50.5625 33.25 51.6818 33.25 53.0625V57.4375C33.25 58.8182 32.1307 59.9375 30.75 59.9375C29.3693 59.9375 28.25 58.8182 28.25 57.4375V53.0625C28.25 51.6818 29.3693 50.5625 30.75 50.5625ZM31.375 62.3988V63.0625H33.25V64.3125H28.25V63.0625H30.125V62.3988C27.6586 62.0913 25.75 59.9873 25.75 57.4375V56.1875H27V57.4375C27 59.5086 28.6789 61.1875 30.75 61.1875C32.8211 61.1875 34.5 59.5086 34.5 57.4375V56.1875H35.75V57.4375C35.75 59.9873 33.8414 62.0913 31.375 62.3988ZM29.5 53.0625C29.5 52.3721 30.0596 51.8125 30.75 51.8125C31.4404 51.8125 32 52.3721 32 53.0625V57.4375C32 58.1279 31.4404 58.6875 30.75 58.6875C30.0596 58.6875 29.5 58.1279 29.5 57.4375V53.0625Z" fill="black"/>
<path d="M266.768 102.408H264.588L264.576 101.271H266.445C266.766 101.271 267.033 101.227 267.248 101.137C267.463 101.047 267.625 100.916 267.734 100.744C267.848 100.572 267.904 100.363 267.904 100.117C267.904 99.8438 267.852 99.6211 267.746 99.4492C267.645 99.2773 267.484 99.1523 267.266 99.0742C267.047 98.9922 266.77 98.9512 266.434 98.9512H265.109V106.211H263.498V97.6797H266.434C266.918 97.6797 267.35 97.7266 267.729 97.8203C268.111 97.9102 268.436 98.0508 268.701 98.2422C268.967 98.4336 269.168 98.6738 269.305 98.9629C269.445 99.252 269.516 99.5957 269.516 99.9941C269.516 100.346 269.434 100.67 269.27 100.967C269.109 101.26 268.861 101.498 268.525 101.682C268.193 101.865 267.771 101.971 267.26 101.998L266.768 102.408ZM266.697 106.211H264.113L264.787 104.945H266.697C267.018 104.945 267.281 104.893 267.488 104.787C267.699 104.682 267.855 104.537 267.957 104.354C268.062 104.166 268.115 103.951 268.115 103.709C268.115 103.443 268.068 103.213 267.975 103.018C267.885 102.822 267.74 102.672 267.541 102.566C267.346 102.461 267.088 102.408 266.768 102.408H265.092L265.104 101.271H267.236L267.605 101.711C268.098 101.715 268.498 101.812 268.807 102.004C269.119 102.195 269.35 102.441 269.498 102.742C269.646 103.043 269.721 103.367 269.721 103.715C269.721 104.262 269.602 104.721 269.363 105.092C269.129 105.463 268.785 105.742 268.332 105.93C267.883 106.117 267.338 106.211 266.697 106.211ZM272.639 97.2109V106.211H271.086V97.2109H272.639ZM273.84 103.105V102.982C273.84 102.518 273.906 102.09 274.039 101.699C274.172 101.305 274.365 100.963 274.619 100.674C274.873 100.385 275.184 100.16 275.551 100C275.918 99.8359 276.336 99.7539 276.805 99.7539C277.281 99.7539 277.703 99.8359 278.07 100C278.441 100.16 278.754 100.385 279.008 100.674C279.262 100.963 279.455 101.305 279.588 101.699C279.721 102.09 279.787 102.518 279.787 102.982V103.105C279.787 103.566 279.721 103.994 279.588 104.389C279.455 104.779 279.262 105.121 279.008 105.414C278.754 105.703 278.443 105.928 278.076 106.088C277.709 106.248 277.289 106.328 276.816 106.328C276.348 106.328 275.928 106.248 275.557 106.088C275.186 105.928 274.873 105.703 274.619 105.414C274.365 105.121 274.172 104.779 274.039 104.389C273.906 103.994 273.84 103.566 273.84 103.105ZM275.387 102.982V103.105C275.387 103.383 275.414 103.643 275.469 103.885C275.523 104.127 275.607 104.34 275.721 104.523C275.834 104.707 275.98 104.852 276.16 104.957C276.344 105.059 276.562 105.109 276.816 105.109C277.066 105.109 277.281 105.059 277.461 104.957C277.641 104.852 277.787 104.707 277.9 104.523C278.018 104.34 278.104 104.127 278.158 103.885C278.213 103.643 278.24 103.383 278.24 103.105V102.982C278.24 102.709 278.213 102.453 278.158 102.215C278.104 101.973 278.018 101.76 277.9 101.576C277.787 101.389 277.639 101.242 277.455 101.137C277.275 101.027 277.059 100.973 276.805 100.973C276.555 100.973 276.34 101.027 276.16 101.137C275.98 101.242 275.834 101.389 275.721 101.576C275.607 101.76 275.523 101.973 275.469 102.215C275.414 102.453 275.387 102.709 275.387 102.982ZM283.514 105.109C283.732 105.109 283.928 105.066 284.1 104.98C284.271 104.895 284.408 104.773 284.51 104.617C284.615 104.461 284.672 104.279 284.68 104.072H286.139C286.131 104.502 286.01 104.887 285.775 105.227C285.541 105.566 285.229 105.836 284.838 106.035C284.451 106.23 284.018 106.328 283.537 106.328C283.049 106.328 282.623 106.246 282.26 106.082C281.896 105.918 281.594 105.689 281.352 105.396C281.113 105.104 280.934 104.764 280.812 104.377C280.695 103.99 280.637 103.576 280.637 103.135V102.947C280.637 102.506 280.695 102.092 280.812 101.705C280.934 101.318 281.113 100.979 281.352 100.686C281.594 100.393 281.896 100.164 282.26 100C282.623 99.8359 283.047 99.7539 283.531 99.7539C284.043 99.7539 284.492 99.8535 284.879 100.053C285.27 100.252 285.574 100.533 285.793 100.896C286.016 101.26 286.131 101.688 286.139 102.18H284.68C284.672 101.953 284.621 101.75 284.527 101.57C284.434 101.391 284.301 101.246 284.129 101.137C283.957 101.027 283.748 100.973 283.502 100.973C283.24 100.973 283.021 101.027 282.846 101.137C282.674 101.246 282.539 101.396 282.441 101.588C282.348 101.775 282.281 101.986 282.242 102.221C282.207 102.451 282.189 102.693 282.189 102.947V103.135C282.189 103.393 282.207 103.639 282.242 103.873C282.281 104.107 282.348 104.318 282.441 104.506C282.539 104.689 282.674 104.836 282.846 104.945C283.021 105.055 283.244 105.109 283.514 105.109ZM288.717 97.2051V106.211H287.17V97.2051H288.717ZM292.689 99.8711L289.93 102.971L288.436 104.488L287.943 103.287L289.098 101.834L290.82 99.8711H292.689ZM291.107 106.211L289.145 103.258L290.176 102.256L292.9 106.211H291.107Z" fill="#5192DF"/>
<rect x="245.5" y="85.9844" width="64.5" height="31" rx="4.5" stroke="#868686"/>
<path d="M308.344 17.504C308.734 17.1135 308.734 16.4803 308.344 16.0898C307.953 15.6992 307.32 15.6992 306.93 16.0898L302.637 20.3827L298.344 16.0898C297.953 15.6992 297.32 15.6992 296.93 16.0898C296.539 16.4803 296.539 17.1135 296.93 17.504L301.223 21.7969L296.93 26.0898C296.539 26.4803 296.539 27.1135 296.93 27.504C297.32 27.8945 297.953 27.8945 298.344 27.504L302.637 23.2111L306.93 27.504C307.32 27.8945 307.953 27.8945 308.344 27.504C308.734 27.1135 308.734 26.4803 308.344 26.0898L304.051 21.7969L308.344 17.504Z" fill="black"/>
<path opacity="0.3" d="M3.5 3.98438H322.5V126.984H3.5V3.98438Z" fill="#E2A4E4" stroke="#F700FF" stroke-width="7"/>
<rect x="170" y="85.9844" width="64.5" height="31" rx="4.5" fill="white" stroke="#868686"/>
<path d="M191.502 98.9746L189.07 106.211H187.365L190.553 97.6797H191.643L191.502 98.9746ZM193.535 106.211L191.092 98.9746L190.945 97.6797H192.041L195.246 106.211H193.535ZM193.424 103.041V104.312H188.848V103.041H193.424ZM197.648 97.2109V106.211H196.096V97.2109H197.648ZM200.766 97.2109V106.211H199.213V97.2109H200.766ZM201.967 103.105V102.982C201.967 102.518 202.033 102.09 202.166 101.699C202.299 101.305 202.492 100.963 202.746 100.674C203 100.385 203.311 100.16 203.678 100C204.045 99.8359 204.463 99.7539 204.932 99.7539C205.408 99.7539 205.83 99.8359 206.197 100C206.568 100.16 206.881 100.385 207.135 100.674C207.389 100.963 207.582 101.305 207.715 101.699C207.848 102.09 207.914 102.518 207.914 102.982V103.105C207.914 103.566 207.848 103.994 207.715 104.389C207.582 104.779 207.389 105.121 207.135 105.414C206.881 105.703 206.57 105.928 206.203 106.088C205.836 106.248 205.416 106.328 204.943 106.328C204.475 106.328 204.055 106.248 203.684 106.088C203.312 105.928 203 105.703 202.746 105.414C202.492 105.121 202.299 104.779 202.166 104.389C202.033 103.994 201.967 103.566 201.967 103.105ZM203.514 102.982V103.105C203.514 103.383 203.541 103.643 203.596 103.885C203.65 104.127 203.734 104.34 203.848 104.523C203.961 104.707 204.107 104.852 204.287 104.957C204.471 105.059 204.689 105.109 204.943 105.109C205.193 105.109 205.408 105.059 205.588 104.957C205.768 104.852 205.914 104.707 206.027 104.523C206.145 104.34 206.23 104.127 206.285 103.885C206.34 103.643 206.367 103.383 206.367 103.105V102.982C206.367 102.709 206.34 102.453 206.285 102.215C206.23 101.973 206.145 101.76 206.027 101.576C205.914 101.389 205.766 101.242 205.582 101.137C205.402 101.027 205.186 100.973 204.932 100.973C204.682 100.973 204.467 101.027 204.287 101.137C204.107 101.242 203.961 101.389 203.848 101.576C203.734 101.76 203.65 101.973 203.596 102.215C203.541 102.453 203.514 102.709 203.514 102.982ZM210.803 104.688L212.191 99.8711H213.176L212.883 101.535L211.482 106.211H210.633L210.803 104.688ZM210.035 99.8711L211.078 104.699L211.172 106.211H210.193L208.529 99.8711H210.035ZM214.465 104.629L215.484 99.8711H216.984L215.332 106.211H214.354L214.465 104.629ZM213.328 99.8711L214.705 104.641L214.887 106.211H214.037L212.625 101.535L212.338 99.8711H213.328Z" fill="#5096E8"/>
</svg>
