<svg width="24" height="22" viewBox="0 0 24 22" fill="none" xmlns="http://www.w3.org/2000/svg">
<path d="M16.1784 19.891H12.8438C12.62 19.891 12.4054 19.8133 12.2471 19.6748C12.0889 19.5363 12 19.3486 12 19.1528V18.0162C12.0006 17.8417 11.9606 17.6688 11.8823 17.5082C11.8041 17.3477 11.6892 17.2027 11.5448 17.0823C11.1802 16.771 10.6505 16.5983 10.0969 16.6102C9.09562 16.6307 8.25 17.4018 8.25 18.2943V19.1528C8.25 19.3486 8.16111 19.5363 8.00287 19.6748C7.84464 19.8133 7.63003 19.891 7.40625 19.891H4.10719C3.76481 19.891 3.42578 19.832 3.10946 19.7174C2.79314 19.6027 2.50573 19.4347 2.26363 19.2229C1.77469 18.795 1.5 18.2148 1.5 17.6098V14.7231C1.5 14.5273 1.58889 14.3395 1.74713 14.201C1.90536 14.0626 2.11997 13.9848 2.34375 13.9848H3.64266C4.07203 13.9848 4.48969 13.824 4.81875 13.5336C5.00182 13.3722 5.14659 13.1806 5.24474 12.97C5.34288 12.7594 5.39246 12.5339 5.39062 12.3064C5.37656 11.4373 4.55906 10.7035 3.60516 10.7035H2.34375C2.11997 10.7035 1.90536 10.6258 1.74713 10.4873C1.58889 10.3488 1.5 10.1611 1.5 9.96526V7.07858C1.5 6.77899 1.56744 6.48235 1.69846 6.20557C1.82948 5.92879 2.02153 5.6773 2.26363 5.46546C2.75257 5.03764 3.41572 4.79729 4.10719 4.79729H6.69656C6.79602 4.79729 6.8914 4.76272 6.96173 4.70118C7.03205 4.63965 7.07156 4.55619 7.07156 4.46916V4.20338C7.07156 3.84645 7.15281 3.4931 7.31057 3.16394C7.46832 2.83478 7.69943 2.53641 7.99039 2.28625C8.28135 2.03608 8.62635 1.83913 9.00524 1.7069C9.38413 1.57466 9.78933 1.50978 10.1972 1.51604C11.8608 1.54147 13.2141 2.76209 13.2141 4.23661V4.46916C13.2141 4.55619 13.2536 4.63965 13.3239 4.70118C13.3942 4.76272 13.4896 4.79729 13.5891 4.79729H16.1784C16.5161 4.79729 16.8505 4.85549 17.1625 4.96857C17.4745 5.08165 17.758 5.24739 17.9968 5.45633C18.2356 5.66528 18.425 5.91333 18.5543 6.18632C18.6835 6.45932 18.75 6.75192 18.75 7.04741V9.31311C18.75 9.40013 18.7895 9.48359 18.8598 9.54513C18.9302 9.60666 19.0255 9.64123 19.125 9.64123H19.3903C21.105 9.64123 22.5 10.8307 22.5 12.2925C22.5 13.7941 21.1223 15.0159 19.4288 15.0159H19.125C19.0255 15.0159 18.9302 15.0505 18.8598 15.112C18.7895 15.1736 18.75 15.257 18.75 15.344V17.6409C18.75 17.9364 18.6835 18.229 18.5543 18.502C18.425 18.775 18.2356 19.0231 17.9968 19.232C17.758 19.4409 17.4745 19.6067 17.1625 19.7198C16.8505 19.8328 16.5161 19.891 16.1784 19.891Z" fill="#5F6367"/>
</svg>
