<svg width="80" height="80" viewBox="0 0 80 80" fill="none" xmlns="http://www.w3.org/2000/svg">
<circle opacity="0.9" cx="40" cy="40" r="40" fill="url(#paint0_linear_1400_5058)"/>
<path d="M55.5168 37.3237C56.045 37.6145 56.4855 38.0418 56.7922 38.5608C57.099 39.0799 57.2608 39.6718 57.2608 40.2747C57.2608 40.8777 57.099 41.4696 56.7922 41.9886C56.4855 42.5077 56.045 42.9349 55.5168 43.2257L33.0588 55.5732C32.5458 55.8549 31.9683 55.9981 31.3831 55.9886C30.7979 55.9792 30.2253 55.8175 29.7216 55.5194C29.218 55.2214 28.8006 54.7972 28.5108 54.2888C28.2209 53.7804 28.0685 53.2052 28.0686 52.6199V27.9295C28.0687 27.3442 28.2213 26.7689 28.5115 26.2605C28.8016 25.752 29.2192 25.328 29.7232 25.0301C30.2271 24.7323 30.7999 24.5709 31.3853 24.5618C31.9706 24.5528 32.5481 24.6964 33.061 24.9785L55.5191 37.3237H55.5168Z" fill="#4D5A6C"/>
<defs>
<linearGradient id="paint0_linear_1400_5058" x1="40" y1="0" x2="40" y2="80" gradientUnits="userSpaceOnUse">
<stop stop-color="#FFFBFF"/>
<stop offset="0.505208" stop-color="#F9D7FA"/>
<stop offset="1" stop-color="#F0D1F1"/>
</linearGradient>
</defs>
</svg>
