<svg width="16" height="17" viewBox="0 0 16 17" fill="none" xmlns="http://www.w3.org/2000/svg">
<rect width="16" height="16" transform="translate(0 0.49585)" fill="white"/>
<path d="M9.71875 2.04589C9.63471 2.00534 9.541 1.98912 9.44822 1.99906C9.35544 2.009 9.26729 2.04471 9.19375 2.10214L4.83125 5.49589H2C1.73478 5.49589 1.48043 5.60124 1.29289 5.78878C1.10536 5.97632 1 6.23067 1 6.49589V10.4959C1 10.7611 1.10536 11.0155 1.29289 11.203C1.48043 11.3905 1.73478 11.4959 2 11.4959H4.83125L9.19375 14.8896C9.28143 14.9577 9.38903 14.995 9.5 14.9959C9.57565 14.995 9.65022 14.9779 9.71875 14.9459C9.80313 14.9048 9.87426 14.8409 9.924 14.7613C9.97374 14.6817 10.0001 14.5897 10 14.4959V2.49589C10.0001 2.40204 9.97374 2.31008 9.924 2.2305C9.87426 2.15092 9.80313 2.08694 9.71875 2.04589ZM2 6.49589H4.5V10.4959H2V6.49589ZM13 8.49589C13.0003 8.82429 12.9358 9.14952 12.8103 9.45301C12.6849 9.7565 12.5008 10.0323 12.2688 10.2646C12.1728 10.3564 12.0453 10.4078 11.9125 10.4084C11.7815 10.4082 11.6558 10.3566 11.5625 10.2646C11.5154 10.2187 11.4781 10.1637 11.4525 10.1031C11.427 10.0424 11.4138 9.97731 11.4138 9.91151C11.4138 9.84572 11.427 9.78058 11.4525 9.71994C11.4781 9.6593 11.5154 9.60437 11.5625 9.55839C11.8434 9.27612 12.0011 8.89411 12.0011 8.49589C12.0011 8.09767 11.8434 7.71565 11.5625 7.43339C11.5154 7.3874 11.4781 7.33247 11.4525 7.27183C11.427 7.21119 11.4138 7.14606 11.4138 7.08026C11.4138 7.01447 11.427 6.94933 11.4525 6.88869C11.4781 6.82805 11.5154 6.77312 11.5625 6.72714C11.6562 6.63363 11.7832 6.58112 11.9156 6.58112C12.048 6.58112 12.175 6.63363 12.2688 6.72714C12.5008 6.95948 12.6849 7.23527 12.8103 7.53876C12.9358 7.84225 13.0003 8.16749 13 8.49589Z" fill="#1D2B49"/>
</svg>
