<svg width="30" height="29" viewBox="0 0 30 29" fill="none" xmlns="http://www.w3.org/2000/svg" class="volume-control"><path d="M21.6302 25.3937C23.1125 23.9648 24.288 22.2669 25.0892 20.3975C25.8904 18.5281 26.3015 16.524 26.299 14.5005C26.3015 12.477 25.8904 10.473 25.0892 8.60359C24.288 6.73418 23.1125 5.03627 21.6302 3.60742L20.3027 4.88886C21.6106 6.14962 22.6478 7.6478 23.3547 9.2973C24.0617 10.9468 24.4244 12.7151 24.4221 14.5005C24.4221 18.2542 22.8471 21.6527 20.3027 24.1122L21.6302 25.3937V25.3937Z" fill="#092447"></path><path d="M18.977 22.8304C20.1104 21.7377 21.0092 20.4392 21.6219 19.0097C22.2346 17.5801 22.5489 16.0476 22.547 14.5002C22.5489 12.9528 22.2346 11.4203 21.6219 9.99068C21.0092 8.56111 20.1104 7.26265 18.977 6.16992L17.6514 7.45136C18.6104 8.376 19.371 9.47472 19.8893 10.6844C20.4077 11.8941 20.6737 13.1908 20.672 14.5002C20.6742 15.8097 20.4086 17.1067 19.8906 18.3167C19.3725 19.5267 18.6122 20.6258 17.6532 21.5508L18.977 22.8304Z" fill="#092447"></path><path d="M16.3256 20.2664C17.1103 19.5098 17.7325 18.6108 18.1566 17.6211C18.5807 16.6313 18.7983 15.5703 18.7969 14.499C18.7983 13.4277 18.5807 12.3667 18.1566 11.3769C17.7325 10.3872 17.1103 9.48817 16.3256 8.73162L15 10.0131C15.6103 10.6015 16.0942 11.3008 16.4241 12.0706C16.7539 12.8405 16.9231 13.6657 16.9219 14.499C16.923 15.3322 16.7537 16.1575 16.4239 16.9273C16.0941 17.6972 15.6102 18.3964 15 18.9849L16.3256 20.2664ZM12.5944 6.43337C12.7532 6.50734 12.8872 6.6231 12.9811 6.76737C13.075 6.91164 13.1248 7.07857 13.125 7.249V21.749C13.1247 21.9195 13.0747 22.0865 12.9807 22.2308C12.8867 22.3751 12.7524 22.4908 12.5934 22.5646C12.4344 22.6384 12.257 22.6674 12.0817 22.6482C11.9065 22.6289 11.7404 22.5623 11.6025 22.4559L7.17187 19.0302H2.8125C2.56386 19.0302 2.3254 18.9348 2.14959 18.7648C1.97377 18.5949 1.875 18.3644 1.875 18.124V10.874C1.875 10.6336 1.97377 10.4031 2.14959 10.2332C2.3254 10.0632 2.56386 9.96775 2.8125 9.96775H7.17187L11.6025 6.54212C11.7404 6.43553 11.9067 6.36876 12.0822 6.34952C12.2577 6.33028 12.4352 6.35935 12.5944 6.43337V6.43337Z" fill="#092447"></path></svg>