<svg xmlns="http://www.w3.org/2000/svg" xmlns:xlink="http://www.w3.org/1999/xlink" width="20px" height="20px" viewBox="0 0 20 20" version="1.1">
<g id="surface1">
<path style=" stroke:none;fill-rule:nonzero;fill:#1D2B49;fill-opacity:1;" d="M 15.710938 0.71875 C 15.710938 0.445312 15.554688 0.1875 15.3125 0.0742188 C 15.054688 -0.0546875 14.769531 -0.0117188 14.554688 0.160156 L 8.226562 5.203125 L 15.710938 12.6875 Z M 15.710938 0.71875 "/>
<path style=" stroke:none;fill-rule:nonzero;fill:#1D2B49;fill-opacity:1;" d="M 19.789062 18.78125 L 1.222656 0.210938 C 0.941406 -0.0664062 0.488281 -0.0664062 0.210938 0.210938 C -0.0664062 0.492188 -0.0664062 0.941406 0.210938 1.222656 L 4.703125 5.714844 L 4.285156 5.714844 C 3.84375 5.714844 3.457031 5.917969 3.199219 6.230469 C 2.984375 6.472656 2.859375 6.800781 2.859375 7.144531 L 2.859375 12.859375 C 2.859375 13.644531 3.5 14.285156 4.285156 14.285156 L 7.601562 14.285156 L 14.554688 19.84375 C 14.683594 19.941406 14.839844 20 15 20 C 15.097656 20 15.210938 19.972656 15.3125 19.929688 C 15.554688 19.8125 15.710938 19.558594 15.710938 19.285156 L 15.710938 16.726562 L 18.777344 19.789062 C 18.917969 19.929688 19.101562 20 19.285156 20 C 19.464844 20 19.648438 19.929688 19.789062 19.792969 C 20.066406 19.511719 20.066406 19.058594 19.789062 18.78125 Z M 19.789062 18.78125 "/>
</g>
</svg>
