<svg width="91" height="59" viewBox="0 0 91 59" fill="none" xmlns="http://www.w3.org/2000/svg">
<path d="M88.054 27.1709C83.2921 25.4485 78.2936 24.8808 73.4107 25.4147C73.0864 25.4502 72.8102 25.1761 72.8437 24.8517C73.125 22.1215 73.0919 19.3579 72.7445 16.6357C72.5481 15.0973 72.252 13.5725 71.8574 12.075C71.815 11.9142 71.7738 11.7296 71.7297 11.5318C71.6306 11.0909 71.5173 10.5847 71.3454 10.131C71.0969 9.47299 70.7132 8.88869 70.0409 8.75479C69.4894 8.64496 68.8113 8.76847 68.1522 8.95302C67.8212 9.04564 67.4919 9.1546 67.1826 9.25928C67.1276 9.27788 67.0732 9.29635 67.0194 9.31454C66.7709 9.39908 66.5378 9.47824 66.3288 9.54141C65.0087 9.94013 63.7116 10.4216 62.4494 10.9854C60.1749 12.0011 58.01 13.2757 56.0059 14.7803C55.7406 14.9794 55.3564 14.8773 55.2253 14.5726C54.1909 12.169 52.8919 9.88678 51.3595 7.7854C50.5116 6.62276 49.5922 5.516 48.61 4.47225C48.4767 4.33055 48.3279 4.15865 48.1655 3.97104C48.1075 3.90406 48.0477 3.83512 47.9864 3.76473C47.754 3.49842 47.4994 3.21462 47.2313 2.9546C46.9635 2.69482 46.6803 2.45703 46.3904 2.28392C46.1005 2.11092 45.7998 2 45.4977 2C45.1989 2 44.8991 2.11167 44.6095 2.28531C44.3197 2.45911 44.0354 2.69765 43.7663 2.95801C43.4969 3.21848 43.2409 3.50258 43.0077 3.76848C42.9437 3.84153 42.8816 3.91307 42.8213 3.9823C42.6615 4.16621 42.5155 4.33413 42.3854 4.47219C41.4516 5.46363 40.5759 6.51316 39.7636 7.61264C38.1757 9.76192 36.8331 12.1027 35.7701 14.5728C35.6389 14.8775 35.2547 14.9796 34.9895 14.7804C33.0438 13.3196 30.9465 12.0752 28.7441 11.0755C27.4856 10.5042 26.1933 10.0123 24.8763 9.60482C24.6591 9.5376 24.4171 9.45382 24.1586 9.36426C24.0982 9.34336 24.0369 9.32217 23.9749 9.30074C23.6477 9.18797 23.2994 9.07081 22.9493 8.97097C22.2518 8.77222 21.5353 8.63884 20.9552 8.75467C20.308 8.8839 19.9396 9.41611 19.6999 10.0224C19.5338 10.4423 19.4241 10.9133 19.327 11.3296C19.2844 11.5123 19.2442 11.6845 19.2029 11.8371C18.7978 13.3324 18.4886 14.8559 18.2822 16.3941C17.9065 19.1947 17.8623 22.0411 18.152 24.8525C18.1854 25.1769 17.9092 25.451 17.585 25.4156C15.1039 25.1446 12.5945 25.1593 10.1165 25.4602C8.78311 25.6222 7.45924 25.8659 6.15414 26.1917C5.93679 26.2459 5.69171 26.2982 5.43067 26.3539C5.37499 26.3658 5.31858 26.3778 5.26157 26.3901C4.938 26.4596 4.59585 26.5355 4.26008 26.6268C3.591 26.8086 2.93648 27.0541 2.50104 27.4405C2.06026 27.8316 1.96779 28.3465 2.00878 28.8706C2.0385 29.2507 2.1398 29.6464 2.23308 30.0108C2.2672 30.1441 2.30025 30.2732 2.32833 30.3958C2.5923 31.5486 2.91319 32.6876 3.28953 33.8066C3.99297 35.8982 4.89076 37.9203 5.96722 39.8353C10.6461 48.1589 18.6528 54.1791 27.7642 56.2232C33.577 57.5272 39.6864 57.1776 45.3346 55.2638C45.4404 55.228 45.5557 55.2282 45.6615 55.264C61.0326 60.4701 78.2694 53.2875 85.7558 38.471C86.6916 36.6193 87.4641 34.6797 88.0626 32.6847C88.1118 32.5192 88.1817 32.3137 88.2602 32.0804C88.4807 31.4288 88.7739 30.5597 88.9153 29.7354C89.0121 29.1748 89.0402 28.6249 88.9233 28.1699C88.8059 27.711 88.5402 27.3467 88.054 27.1709ZM50.7938 53.5532C50.2288 53.4499 49.6657 53.3305 49.1049 53.1941C48.7354 53.1043 48.6094 52.6479 48.8671 52.3683C53.1444 47.7287 56.1255 41.8892 57.3966 35.6133C57.4188 35.5034 57.477 35.4034 57.5626 35.3308C65.292 28.7792 75.8783 26.5616 85.4752 29.4215C85.724 29.4957 85.871 29.7525 85.8106 30.0051C82.0059 45.9247 66.5063 56.4295 50.7938 53.5532ZM40.2014 53.5532C24.4892 56.429 8.9897 45.9247 5.18502 30.005C5.12467 29.7525 5.27165 29.4957 5.52046 29.4215C15.1172 26.5609 25.7039 28.7797 33.433 35.3315C33.5186 35.4041 33.5767 35.504 33.599 35.614C34.8662 41.8708 37.8392 47.7488 42.123 52.3676C42.3822 52.6471 42.2566 53.105 41.8863 53.1949C41.3267 53.3308 40.765 53.4498 40.2014 53.5532ZM21.5154 26.0896C21.3145 26.0422 21.1611 25.8781 21.1328 25.6736C20.5221 21.2687 20.8105 16.7369 22.0328 12.3737C22.1045 12.1178 22.3666 11.9662 22.6241 12.0319C26.8893 13.121 30.8293 15.128 34.2147 17.8742C34.3718 18.0016 34.4338 18.2121 34.3759 18.4059C33.2311 22.2353 32.7462 26.2398 32.9346 30.2374C32.9545 30.661 32.4738 30.933 32.1206 30.6984C28.8726 28.5416 25.285 26.9794 21.5154 26.0896ZM37.8064 17.206C39.4047 12.9381 41.8946 9.03644 45.1534 5.79869C45.3441 5.60916 45.6514 5.6092 45.842 5.79883C51.8421 11.7667 55.3135 20.1933 55.2448 28.8109C55.1774 37.2558 51.7256 45.4796 45.842 51.3309C45.6514 51.5205 45.3438 51.5202 45.1532 51.3306C36.3908 42.6146 33.4049 28.9586 37.8064 17.206ZM56.6196 18.406C56.5617 18.2122 56.6237 18.0018 56.7808 17.8743C60.1661 15.1281 64.1065 13.1211 68.3717 12.0319C68.6293 11.9662 68.8914 12.1179 68.9631 12.3738C70.1848 16.7368 70.4728 21.2684 69.8623 25.6729C69.834 25.8774 69.6807 26.0415 69.4797 26.0889C65.7104 26.9789 62.1227 28.5412 58.8749 30.6979C58.5217 30.9324 58.041 30.6604 58.0609 30.2368C58.2493 26.2395 57.7643 22.2352 56.6196 18.406Z" fill="#051831" stroke="#051831" stroke-width="3"/>
</svg>
