<svg width="15" height="14" viewBox="0 0 15 14" fill="none" xmlns="http://www.w3.org/2000/svg">
<path d="M0.916476 0.305288C1.10621 0.117817 1.36352 0.0125017 1.63181 0.0125017C1.9001 0.0125017 2.1574 0.117817 2.34714 0.305288L7.70252 5.59829L13.0579 0.305288C13.1512 0.209778 13.2629 0.133596 13.3863 0.0811867C13.5098 0.0287777 13.6425 0.00119157 13.7769 3.77567e-05C13.9112 -0.00111606 14.0445 0.0241857 14.1688 0.0744666C14.2931 0.124747 14.4061 0.199 14.5011 0.292893C14.5961 0.386786 14.6712 0.498438 14.7221 0.621334C14.773 0.74423 14.7986 0.87591 14.7974 1.00869C14.7962 1.14147 14.7683 1.27269 14.7153 1.39469C14.6623 1.5167 14.5852 1.62704 14.4886 1.71929L9.13319 7.01229L14.4886 12.3053C14.6729 12.4939 14.7749 12.7465 14.7725 13.0087C14.7702 13.2709 14.6638 13.5217 14.4762 13.7071C14.2886 13.8925 14.0349 13.9977 13.7696 14C13.5043 14.0022 13.2487 13.9014 13.0579 13.7193L7.70252 8.42629L2.34714 13.7193C2.15632 13.9014 1.90074 14.0022 1.63545 14C1.37016 13.9977 1.11639 13.8925 0.928801 13.7071C0.741208 13.5217 0.6348 13.2709 0.632495 13.0087C0.630189 12.7465 0.732171 12.4939 0.916476 12.3053L6.27186 7.01229L0.916476 1.71929C0.726796 1.53176 0.620239 1.27745 0.620239 1.01229C0.620239 0.747124 0.726796 0.492816 0.916476 0.305288Z" fill="#FAFAFA"/>
</svg>
