<svg width="121" height="21" viewBox="0 0 121 21" fill="none" xmlns="http://www.w3.org/2000/svg">
<path d="M34.9154 6.75768C35.5108 7.08865 35.9797 7.55161 36.3162 8.14453C36.6526 8.73947 36.8219 9.42579 36.8219 10.2035C36.8219 10.9832 36.6526 11.6716 36.3162 12.2706C35.9797 12.8696 35.5128 13.3346 34.9154 13.6655C34.3179 13.9965 33.645 14.163 32.8906 14.163C32.3135 14.163 31.7854 14.0513 31.3062 13.828C30.827 13.6046 30.4315 13.2777 30.1174 12.8493V14.0757H28.7676V3.23877H30.1766V7.50288C30.4885 7.09474 30.88 6.78407 31.349 6.57493C31.818 6.36578 32.3319 6.2602 32.8885 6.2602C33.645 6.26223 34.3199 6.4267 34.9154 6.75768ZM34.116 12.5934C34.5116 12.364 34.8256 12.0431 35.054 11.6289C35.2844 11.2147 35.3986 10.7395 35.3986 10.2055C35.3986 9.66945 35.2844 9.19634 35.054 8.78211C34.8236 8.36788 34.5116 8.04909 34.116 7.82573C33.7205 7.60237 33.2719 7.4907 32.7743 7.4907C32.285 7.4907 31.8404 7.60237 31.4388 7.82573C31.0371 8.04909 30.7251 8.36788 30.5008 8.78211C30.2765 9.19634 30.1643 9.67148 30.1643 10.2055C30.1643 10.7416 30.2765 11.2167 30.5008 11.6289C30.7251 12.0431 31.0391 12.364 31.4388 12.5934C31.8404 12.8229 32.285 12.9366 32.7743 12.9366C33.2739 12.9366 33.7205 12.8229 34.116 12.5934Z" fill="white"/>
<path d="M54.9407 13.6917C54.3453 13.3607 53.8763 12.8978 53.5399 12.3049C53.2034 11.7099 53.0342 11.0236 53.0342 10.2459C53.0342 9.46618 53.2034 8.77784 53.5399 8.17883C53.8763 7.57982 54.3433 7.11483 54.9407 6.78386C55.5381 6.45288 56.211 6.28638 56.9655 6.28638C57.5425 6.28638 58.0707 6.39806 58.5498 6.62141C59.029 6.84477 59.4246 7.17169 59.7386 7.60013V6.37369H61.0885V14.1059H59.6795V12.9465C59.3675 13.3546 58.976 13.6653 58.507 13.8745C58.038 14.0836 57.5242 14.1892 56.9675 14.1892C56.211 14.1892 55.5361 14.0227 54.9407 13.6917ZM55.74 7.85801C55.3444 8.08746 55.0304 8.40828 54.802 8.82251C54.5716 9.23674 54.4574 9.71188 54.4574 10.2459C54.4574 10.782 54.5716 11.2551 54.802 11.6693C55.0325 12.0835 55.3444 12.4023 55.74 12.6257C56.1356 12.849 56.5842 12.9607 57.0817 12.9607C57.5711 12.9607 58.0156 12.849 58.4173 12.6257C58.819 12.4023 59.131 12.0835 59.3553 11.6693C59.5796 11.2551 59.6917 10.7799 59.6917 10.2459C59.6917 9.70985 59.5796 9.23471 59.3553 8.82251C59.131 8.40828 58.817 8.08746 58.4173 7.85801C58.0156 7.62856 57.5711 7.51485 57.0817 7.51485C56.5821 7.51485 56.1356 7.62856 55.74 7.85801Z" fill="white"/>
<path d="M110.2 13.6917C109.605 13.3607 109.136 12.8978 108.8 12.3049C108.463 11.7099 108.294 11.0236 108.294 10.2459C108.294 9.46618 108.463 8.77784 108.8 8.17883C109.136 7.57982 109.603 7.11483 110.2 6.78386C110.798 6.45288 111.471 6.28638 112.225 6.28638C112.802 6.28638 113.33 6.39806 113.81 6.62141C114.289 6.84477 114.684 7.17169 114.998 7.60013V6.37369H116.348V14.1059H114.939V12.9465C114.627 13.3546 114.236 13.6653 113.767 13.8745C113.298 14.0836 112.784 14.1892 112.227 14.1892C111.471 14.1892 110.796 14.0227 110.2 13.6917ZM111 7.85801C110.604 8.08746 110.29 8.40828 110.062 8.82251C109.831 9.23674 109.717 9.71188 109.717 10.2459C109.717 10.782 109.831 11.2551 110.062 11.6693C110.292 12.0835 110.604 12.4023 111 12.6257C111.395 12.849 111.844 12.9607 112.341 12.9607C112.831 12.9607 113.275 12.849 113.677 12.6257C114.079 12.4023 114.391 12.0835 114.615 11.6693C114.839 11.2551 114.951 10.7799 114.951 10.2459C114.951 9.70985 114.839 9.23471 114.615 8.82251C114.391 8.40828 114.077 8.08746 113.677 7.85801C113.275 7.62856 112.831 7.51485 112.341 7.51485C111.842 7.51485 111.395 7.62856 111 7.85801Z" fill="white"/>
<path d="M41.1055 6.61373C41.5847 6.38022 42.1659 6.26245 42.851 6.26245V7.62088C42.7735 7.61072 42.6654 7.60666 42.5288 7.60666C41.7662 7.60666 41.1667 7.83408 40.7324 8.28486C40.2981 8.73767 40.0799 9.38337 40.0799 10.22V14.0759H38.6709V6.33758H40.0208V7.63712C40.2654 7.18837 40.6264 6.84724 41.1055 6.61373Z" fill="white"/>
<path d="M51.5781 10.6728H45.2713C45.359 11.355 45.6608 11.9012 46.1726 12.3155C46.6864 12.7297 47.3246 12.9368 48.0872 12.9368C49.0171 12.9368 49.7634 12.6261 50.3323 12.0028L51.1091 12.9084C50.7564 13.3165 50.32 13.6292 49.796 13.8424C49.2719 14.0577 48.6888 14.1632 48.0424 14.1632C47.2206 14.1632 46.4927 13.9947 45.8565 13.6597C45.2203 13.3246 44.7289 12.8535 44.3823 12.2505C44.0356 11.6474 43.8623 10.9652 43.8623 10.2057C43.8623 9.45647 44.0315 8.78031 44.368 8.17521C44.7044 7.57214 45.1693 7.10106 45.7607 6.76602C46.352 6.42896 47.0188 6.26245 47.763 6.26245C48.5053 6.26245 49.1679 6.43099 49.7511 6.76602C50.3323 7.10106 50.787 7.57214 51.1153 8.17521C51.4435 8.77828 51.6067 9.47069 51.6067 10.2484C51.6067 10.356 51.5965 10.4981 51.5781 10.6728ZM46.0706 8.05744C45.6159 8.46558 45.3488 9.00163 45.2713 9.66359H50.2588C50.1814 9.01179 49.9142 8.47776 49.4595 8.06353C49.0048 7.6493 48.44 7.44219 47.7651 7.44219C47.0901 7.44422 46.5253 7.6493 46.0706 8.05744Z" fill="white"/>
<path d="M68.5905 13.6282C68.3846 13.8029 68.1318 13.9369 67.8279 14.0303C67.5241 14.1237 67.2121 14.1684 66.89 14.1684C66.107 14.1684 65.5014 13.9592 65.0711 13.5409C64.6409 13.1226 64.4247 12.5236 64.4247 11.7439V7.49402H63.1055V6.34068H64.4247V4.64722H65.8337V6.34068H68.0624V7.49402H65.8337V11.685C65.8337 12.1033 65.9377 12.4262 66.1498 12.6495C66.3598 12.8729 66.6616 12.9846 67.051 12.9846C67.4813 12.9846 67.8483 12.8627 68.1521 12.6191L68.5905 13.6282Z" fill="white"/>
<path d="M76.8875 7.11505C77.4686 7.68563 77.7602 8.52017 77.7602 9.62072V14.0757H76.3512V9.78113C76.3512 9.03187 76.1698 8.46738 75.8088 8.08767C75.4479 7.70796 74.928 7.51709 74.2551 7.51709C73.4925 7.51709 72.8909 7.73842 72.4505 8.18108C72.0101 8.62373 71.7899 9.25929 71.7899 10.0877V14.0757H70.3809V3.23877H71.7899V7.42978C72.0835 7.06022 72.4668 6.77189 72.9419 6.56884C73.417 6.36375 73.9472 6.26223 74.5324 6.26223C75.5213 6.26223 76.3064 6.5465 76.8875 7.11505Z" fill="white"/>
<path d="M90.8738 7.11527C91.455 7.68585 91.7465 8.5204 91.7465 9.62095V14.0759H90.3376V9.78136C90.3376 9.03209 90.1561 8.4676 89.7952 8.0879C89.4342 7.70819 88.9143 7.51732 88.2414 7.51732C87.4788 7.51732 86.8773 7.73864 86.4368 8.1813C85.9964 8.62396 85.7762 9.25951 85.7762 10.088V14.0759H84.3672V6.33555H85.717V7.5031C86.0005 7.10309 86.3838 6.79648 86.8691 6.58328C87.3524 6.37007 87.9029 6.26245 88.5187 6.26245C89.5077 6.26245 90.2927 6.54672 90.8738 7.11527Z" fill="white"/>
<path d="M101.595 6.33961V13.0282C101.595 14.3805 101.258 15.3816 100.583 16.0293C99.9084 16.677 98.9011 16.9999 97.5615 16.9999C96.8274 16.9999 96.128 16.9004 95.4633 16.7014C94.7985 16.5024 94.2602 16.2161 93.8504 15.8465L94.5253 14.7663C94.8862 15.077 95.3348 15.3227 95.867 15.5034C96.3992 15.6841 96.9497 15.7734 97.5166 15.7734C98.426 15.7734 99.0989 15.5602 99.5332 15.1298C99.9676 14.7013 100.186 14.0495 100.186 13.1723V12.5591C99.8534 12.9591 99.4455 13.2576 98.9602 13.4566C98.477 13.6556 97.9509 13.7551 97.3841 13.7551C96.6398 13.7551 95.9689 13.5967 95.3674 13.28C94.7659 12.9632 94.2949 12.5205 93.9523 11.95C93.6097 11.3794 93.4385 10.7296 93.4385 10.0007C93.4385 9.26966 93.6097 8.61989 93.9523 8.05135C94.2949 7.4828 94.7659 7.04217 95.3674 6.72947C95.9689 6.4188 96.6418 6.26245 97.3841 6.26245C97.9713 6.26245 98.5157 6.37007 99.0194 6.58327C99.523 6.79851 99.937 7.11324 100.259 7.53356V6.33555H101.595V6.33961ZM98.9174 12.2099C99.3232 11.9967 99.6413 11.6961 99.8717 11.3124C100.102 10.9286 100.216 10.492 100.216 10.0047C100.216 9.25545 99.9676 8.64832 99.468 8.18536C98.9684 7.7224 98.3281 7.49092 97.5472 7.49092C96.756 7.49092 96.1096 7.7224 95.6121 8.18536C95.1125 8.64832 94.8638 9.25342 94.8638 10.0047C94.8638 10.492 94.978 10.9266 95.2084 11.3124C95.4388 11.6961 95.7569 11.9967 96.1627 12.2099C96.5684 12.4251 97.0313 12.5307 97.5492 12.5307C98.0549 12.5307 98.5117 12.4251 98.9174 12.2099Z" fill="white"/>
<path d="M80.2334 4.56338C80.2395 4.56947 80.2436 4.57556 80.2497 4.57962C80.4312 4.75425 80.6576 4.84156 80.9309 4.84156C81.2041 4.84156 81.4325 4.75222 81.612 4.5715C81.7935 4.39078 81.8832 4.16945 81.8832 3.90752C81.8832 3.6537 81.7935 3.44252 81.612 3.27196C81.4305 3.1014 81.2041 3.01611 80.9309 3.01611C80.6576 3.01611 80.4292 3.10546 80.2497 3.28617C80.2436 3.29226 80.2395 3.29836 80.2334 3.30242V4.56338Z" fill="white"/>
<path d="M80.2356 6.36087H80.2295V14.0748H81.6387V6.33447H80.2356V6.36087Z" fill="white"/>
<path d="M118.671 4.54726C118.677 4.55335 118.681 4.55945 118.687 4.56351C118.869 4.73813 119.095 4.82545 119.368 4.82545C119.642 4.82545 119.87 4.7361 120.05 4.55538C120.231 4.37467 120.321 4.15334 120.321 3.8914C120.321 3.63759 120.231 3.42641 120.05 3.25585C119.868 3.08528 119.642 3 119.368 3C119.095 3 118.867 3.08934 118.687 3.27006C118.681 3.27615 118.677 3.28224 118.671 3.2863V4.54726Z" fill="white"/>
<path d="M118.673 6.34679H118.667V14.0608H120.074V6.31836H118.673V6.34679Z" fill="white"/>
<path d="M104.5 13.8893C104.506 13.8954 104.51 13.9015 104.516 13.9055C104.698 14.0802 104.924 14.1675 105.197 14.1675C105.471 14.1675 105.699 14.0781 105.879 13.8974C106.06 13.7167 106.15 13.4954 106.15 13.2334C106.15 12.9796 106.06 12.7685 105.879 12.5979C105.697 12.4273 105.471 12.342 105.197 12.342C104.924 12.342 104.696 12.4314 104.516 12.6121C104.51 12.6182 104.506 12.6243 104.5 12.6283V13.8893Z" fill="white"/>
<path d="M6.5386 20.0012C5.61208 19.4657 4.75549 18.783 3.99549 17.9657C1.96592 15.785 0.868208 12.9055 0.904177 9.85932C0.940146 6.81246 2.10513 3.96307 4.18532 1.83522C4.89737 1.10698 5.68868 0.492519 6.5386 0.0012207V2.36534C6.18025 2.63643 5.83921 2.93763 5.51749 3.26628C3.80232 5.02063 2.84116 7.3707 2.81185 9.88408C2.78254 12.3975 3.68775 14.771 5.36096 16.5695C5.72798 16.9637 6.1223 17.3205 6.5386 17.6364V15.3627C5.23973 13.9269 4.53768 12.0467 4.56099 10.0588C4.58297 8.13308 5.28436 6.32652 6.5386 4.94098V15.2509C6.55725 15.2716 6.57591 15.2917 6.59456 15.3125C7.95071 16.7582 9.76713 17.5682 11.7094 17.5936C11.7401 17.5943 11.7714 17.5943 11.802 17.5943C13.7097 17.5943 15.5088 16.8332 16.8769 15.445C18.2671 14.034 19.0457 12.1451 19.0697 10.125C19.0937 8.10497 18.3596 6.19667 17.0035 4.75089C15.6473 3.30443 13.8309 2.49453 11.8893 2.46976C11.8586 2.46909 11.8273 2.46909 11.7967 2.46909C9.88902 2.46909 8.08992 3.23014 6.72178 4.61836C6.65917 4.68194 6.59855 4.74687 6.5386 4.8118V2.42558C8.06194 1.28034 9.88569 0.663871 11.796 0.663871C11.834 0.663871 11.872 0.66454 11.9106 0.66454C14.3158 0.69533 16.5665 1.69868 18.2464 3.48984C19.9263 5.28101 20.8355 7.64513 20.8055 10.1471C20.7755 12.6491 19.811 14.9892 18.0892 16.7368C16.3674 18.4845 14.0947 19.4276 11.6881 19.3981C9.81175 19.374 8.02931 18.7582 6.5386 17.6378V20.0012Z" fill="white"/>
<path d="M6.5386 20.0012C5.61208 19.4657 4.75549 18.783 3.99549 17.9657C1.96592 15.785 0.868208 12.9055 0.904177 9.85932C0.940146 6.81246 2.10513 3.96307 4.18532 1.83522C4.89737 1.10698 5.68868 0.492519 6.5386 0.0012207V2.36534C6.18025 2.63643 5.83921 2.93763 5.51749 3.26628C3.80232 5.02063 2.84116 7.3707 2.81185 9.88408C2.78254 12.3975 3.68775 14.771 5.36096 16.5695C5.72798 16.9637 6.1223 17.3205 6.5386 17.6364V15.3627C5.23973 13.9269 4.53768 12.0467 4.56099 10.0588C4.58297 8.13308 5.28436 6.32652 6.5386 4.94098V15.2509C6.55725 15.2716 6.57591 15.2917 6.59456 15.3125C7.95071 16.7582 9.76713 17.5682 11.7094 17.5936C11.7401 17.5943 11.7714 17.5943 11.802 17.5943C13.7097 17.5943 15.5088 16.8332 16.8769 15.445C18.2671 14.034 19.0457 12.1451 19.0697 10.125C19.0937 8.10497 18.3596 6.19667 17.0035 4.75089C15.6473 3.30443 13.8309 2.49453 11.8893 2.46976C11.8586 2.46909 11.8273 2.46909 11.7967 2.46909C9.88902 2.46909 8.08992 3.23014 6.72178 4.61836C6.65917 4.68194 6.59855 4.74687 6.5386 4.8118V2.42558C8.06194 1.28034 9.88569 0.663871 11.796 0.663871C11.834 0.663871 11.872 0.66454 11.9106 0.66454C14.3158 0.69533 16.5665 1.69868 18.2464 3.48984C19.9263 5.28101 20.8355 7.64513 20.8055 10.1471C20.7755 12.6491 19.811 14.9892 18.0892 16.7368C16.3674 18.4845 14.0947 19.4276 11.6881 19.3981C9.81175 19.374 8.02931 18.7582 6.5386 17.6378V20.0012Z" fill="#81F0D4"/>
</svg>
