<svg width="152" height="41" viewBox="0 0 152 41" fill="none" xmlns="http://www.w3.org/2000/svg">
<path d="M150.189 15.1715C150.196 15.1779 150.201 15.1844 150.207 15.1887C150.407 15.3737 150.655 15.4661 150.955 15.4661C151.255 15.4661 151.506 15.3715 151.703 15.1801C151.903 14.9887 152.001 14.7543 152.001 14.4768C152.001 14.208 151.903 13.9843 151.703 13.8037C151.504 13.623 151.255 13.5327 150.955 13.5327C150.655 13.5327 150.404 13.6273 150.207 13.8187C150.201 13.8252 150.196 13.8317 150.189 13.836V15.1715Z" fill="#292C31"/>
<path d="M150.188 17.0753H150.181V25.2456H151.728V17.0474H150.188V17.0753Z" fill="#292C31"/>
<path d="M61.403 17.3166C62.0304 17.6714 62.5246 18.1677 62.8791 18.8034C63.2336 19.4413 63.412 20.1771 63.412 21.0108C63.412 21.8468 63.2336 22.5847 62.8791 23.2269C62.5246 23.8691 62.0326 24.3676 61.403 24.7225C60.7735 25.0773 60.0644 25.2558 59.2695 25.2558C58.6614 25.2558 58.1049 25.1361 57.6 24.8966C57.0951 24.6572 56.6782 24.3067 56.3474 23.8474V25.1622H54.925V13.5439H56.4097V18.1155C56.7384 17.6779 57.1509 17.3449 57.6451 17.1206C58.1393 16.8964 58.6807 16.7832 59.2673 16.7832C60.0644 16.7854 60.7756 16.9617 61.403 17.3166ZM60.5608 23.5731C60.9776 23.3271 61.3085 22.9831 61.5491 22.539C61.7919 22.0949 61.9122 21.5855 61.9122 21.013C61.9122 20.4383 61.7919 19.9311 61.5491 19.487C61.3063 19.0429 60.9776 18.7011 60.5608 18.4616C60.1439 18.2222 59.6712 18.1024 59.147 18.1024C58.6313 18.1024 58.1629 18.2222 57.7397 18.4616C57.3164 18.7011 56.9876 19.0429 56.7513 19.487C56.515 19.9311 56.3968 20.4405 56.3968 21.013C56.3968 21.5877 56.515 22.0971 56.7513 22.539C56.9876 22.9831 57.3185 23.3271 57.7397 23.5731C58.1629 23.8191 58.6313 23.941 59.147 23.941C59.6734 23.941 60.1439 23.8191 60.5608 23.5731Z" fill="#092447"/>
<path d="M82.483 24.7145C81.8556 24.3531 81.3614 23.8475 81.0069 23.2001C80.6524 22.5504 80.4741 21.8009 80.4741 20.9517C80.4741 20.1003 80.6524 19.3486 81.0069 18.6945C81.3614 18.0404 81.8535 17.5326 82.483 17.1712C83.1125 16.8098 83.8216 16.6279 84.6166 16.6279C85.2246 16.6279 85.7811 16.7499 86.286 16.9938C86.7909 17.2377 87.2078 17.5947 87.5387 18.0625V16.7233H88.961V25.1668H87.4763V23.9007C87.1476 24.3464 86.7351 24.6857 86.2409 24.9141C85.7467 25.1424 85.2053 25.2577 84.6187 25.2577C83.8216 25.2577 83.1104 25.0759 82.483 24.7145ZM83.3252 18.3441C82.9084 18.5947 82.5775 18.945 82.3369 19.3974C82.0941 19.8497 81.9738 20.3686 81.9738 20.9517C81.9738 21.5371 82.0941 22.0537 82.3369 22.506C82.5797 22.9584 82.9084 23.3065 83.3252 23.5504C83.7421 23.7943 84.2148 23.9163 84.739 23.9163C85.2547 23.9163 85.7231 23.7943 86.1464 23.5504C86.5696 23.3065 86.8984 22.9584 87.1347 22.506C87.3711 22.0537 87.4892 21.5349 87.4892 20.9517C87.4892 20.3663 87.3711 19.8475 87.1347 19.3974C86.8984 18.945 86.5675 18.5947 86.1464 18.3441C85.7231 18.0936 85.2547 17.9694 84.739 17.9694C84.2126 17.9694 83.7421 18.0936 83.3252 18.3441Z" fill="#092447"/>
<path d="M140.655 24.485C140.028 24.1236 139.534 23.618 139.179 22.9706C138.825 22.3209 138.646 21.5714 138.646 20.7222C138.646 19.8708 138.825 19.1191 139.179 18.465C139.534 17.8109 140.026 17.3031 140.655 16.9417C141.285 16.5803 141.994 16.3984 142.789 16.3984C143.397 16.3984 143.953 16.5204 144.458 16.7643C144.963 17.0082 145.38 17.3652 145.711 17.833V16.4938H147.133V24.9373H145.648V23.6713C145.32 24.1169 144.907 24.4562 144.413 24.6846C143.919 24.913 143.377 25.0283 142.791 25.0283C141.994 25.0283 141.283 24.8464 140.655 24.485ZM141.497 18.1146C141.081 18.3652 140.75 18.7155 140.509 19.1679C140.266 19.6202 140.146 20.1391 140.146 20.7222C140.146 21.3076 140.266 21.8242 140.509 22.2766C140.752 22.7289 141.081 23.077 141.497 23.3209C141.914 23.5648 142.387 23.6868 142.911 23.6868C143.427 23.6868 143.895 23.5648 144.318 23.3209C144.742 23.077 145.07 22.7289 145.307 22.2766C145.543 21.8242 145.661 21.3054 145.661 20.7222C145.661 20.1368 145.543 19.618 145.307 19.1679C145.07 18.7155 144.74 18.3652 144.318 18.1146C143.895 17.8641 143.427 17.7399 142.911 17.7399C142.385 17.7399 141.914 17.8641 141.497 18.1146Z" fill="#092447"/>
<path d="M67.8198 17.0159C68.3062 16.758 68.8962 16.6279 69.5917 16.6279V18.1283C69.513 18.1171 69.4033 18.1126 69.2646 18.1126C68.4904 18.1126 67.8819 18.3638 67.441 18.8616C67.0001 19.3618 66.7786 20.0749 66.7786 20.9989V25.2577H65.3482V16.7109H66.7185V18.1462C66.9669 17.6506 67.3333 17.2738 67.8198 17.0159Z" fill="#092447"/>
<path d="M79.2688 21.4452H72.3572C72.4533 22.1904 72.784 22.787 73.3449 23.2395C73.908 23.6919 74.6074 23.9181 75.4432 23.9181C76.4621 23.9181 77.28 23.5788 77.9035 22.8979L78.7548 23.8871C78.3683 24.3329 77.89 24.6744 77.3158 24.9073C76.7415 25.1424 76.1024 25.2577 75.394 25.2577C74.4935 25.2577 73.6957 25.0737 72.9985 24.7077C72.3013 24.3418 71.7628 23.8272 71.3829 23.1685C71.003 22.5098 70.8131 21.7646 70.8131 20.9351C70.8131 20.1167 70.9986 19.3781 71.3673 18.7172C71.736 18.0585 72.2455 17.5439 72.8935 17.178C73.5415 16.8098 74.2723 16.6279 75.0879 16.6279C75.9013 16.6279 76.6275 16.812 77.2666 17.178C77.9035 17.5439 78.4018 18.0585 78.7615 18.7172C79.1213 19.3759 79.3001 20.1322 79.3001 20.9816C79.3001 21.0992 79.2889 21.2545 79.2688 21.4452ZM73.2332 18.5885C72.7349 19.0343 72.4421 19.6199 72.3572 20.3429H77.823C77.7381 19.631 77.4454 19.0476 76.9471 18.5952C76.4487 18.1427 75.8298 17.9165 75.0901 17.9165C74.3505 17.9187 73.7315 18.1428 73.2332 18.5885Z" fill="#092447"/>
<path d="M97.1392 24.6957C96.9116 24.8766 96.6321 25.0154 96.2964 25.1122C95.9606 25.2089 95.6158 25.2552 95.2597 25.2552C94.3944 25.2552 93.725 25.0386 93.2495 24.6053C92.774 24.172 92.5351 23.5515 92.5351 22.7438V18.3415H91.0771V17.1468H92.5351V15.3926H94.0924V17.1468H96.5555V18.3415H94.0924V22.6828C94.0924 23.1161 94.2073 23.4505 94.4417 23.6819C94.6738 23.9133 95.0073 24.029 95.4378 24.029C95.9133 24.029 96.3189 23.9028 96.6547 23.6504L97.1392 24.6957Z" fill="#092447"/>
<path d="M105.682 17.7332C106.303 18.3498 106.614 19.2518 106.614 20.4412V25.2558H105.109V20.6145C105.109 19.8048 104.916 19.1947 104.53 18.7843C104.145 18.374 103.59 18.1677 102.871 18.1677C102.056 18.1677 101.414 18.4069 100.944 18.8853C100.473 19.3637 100.238 20.0506 100.238 20.9459V25.2558H98.7335V13.5439H100.238V18.0733C100.552 17.6739 100.961 17.3623 101.469 17.1429C101.976 16.9212 102.542 16.8115 103.167 16.8115C104.223 16.8115 105.062 17.1187 105.682 17.7332Z" fill="#092447"/>
<path d="M120.41 18.1163C121.031 18.7015 121.342 19.5574 121.342 20.6861V25.2551H119.838V20.8506C119.838 20.0822 119.644 19.5033 119.258 19.1139C118.873 18.7244 118.318 18.5287 117.599 18.5287C116.785 18.5287 116.142 18.7557 115.672 19.2096C115.202 19.6636 114.966 20.3154 114.966 21.1651V25.2551H113.462V17.3167H114.903V18.5141C115.206 18.1038 115.615 17.7894 116.134 17.5707C116.65 17.3521 117.238 17.2417 117.895 17.2417C118.951 17.2417 119.79 17.5332 120.41 18.1163Z" fill="#092447"/>
<path d="M131.494 17.6852V24.5968C131.494 25.9942 131.143 27.0286 130.441 27.698C129.739 28.3673 128.691 28.7009 127.297 28.7009C126.533 28.7009 125.805 28.5981 125.113 28.3925C124.422 28.1869 123.862 27.891 123.435 27.5091L124.137 26.3929C124.513 26.7139 124.98 26.9678 125.534 27.1545C126.087 27.3413 126.66 27.4336 127.25 27.4336C128.196 27.4336 128.897 27.2133 129.348 26.7685C129.8 26.3257 130.027 25.6522 130.027 24.7458V24.1121C129.682 24.5255 129.257 24.8339 128.752 25.0395C128.249 25.2451 127.702 25.348 127.112 25.348C126.338 25.348 125.64 25.1843 125.014 24.857C124.388 24.5296 123.898 24.0722 123.541 23.4826C123.185 22.893 123.007 22.2216 123.007 21.4683C123.007 20.713 123.185 20.0415 123.541 19.454C123.898 18.8665 124.388 18.4112 125.014 18.0881C125.64 17.767 126.34 17.6055 127.112 17.6055C127.723 17.6055 128.29 17.7167 128.814 17.937C129.338 18.1594 129.769 18.4846 130.104 18.919V17.681H131.494V17.6852ZM128.708 23.7512C129.13 23.5309 129.461 23.2203 129.701 22.8238C129.94 22.4272 130.059 21.9761 130.059 21.4725C130.059 20.6983 129.8 20.0709 129.281 19.5925C128.761 19.1141 128.095 18.8749 127.282 18.8749C126.459 18.8749 125.786 19.1141 125.268 19.5925C124.749 20.0709 124.49 20.6962 124.49 21.4725C124.49 21.9761 124.609 22.4251 124.848 22.8238C125.088 23.2203 125.419 23.5309 125.841 23.7512C126.263 23.9736 126.745 24.0827 127.284 24.0827C127.81 24.0827 128.285 23.9736 128.708 23.7512Z" fill="#092447"/>
<path d="M109.11 15.1827C109.117 15.1892 109.121 15.1956 109.128 15.1999C109.327 15.3849 109.576 15.4774 109.876 15.4774C110.176 15.4774 110.427 15.3827 110.624 15.1913C110.823 14.9999 110.921 14.7655 110.921 14.4881C110.921 14.2192 110.823 13.9956 110.624 13.8149C110.424 13.6343 110.176 13.5439 109.876 13.5439C109.576 13.5439 109.325 13.6386 109.128 13.83C109.121 13.8364 109.117 13.8429 109.11 13.8472V15.1827Z" fill="#092447"/>
<path d="M109.109 17.0836H109.102V25.2539H110.65V17.0557H109.109V17.0836Z" fill="#092447"/>
<path d="M134.651 24.3653C134.658 24.3715 134.662 24.3776 134.669 24.3817C134.869 24.5586 135.118 24.6471 135.42 24.6471C135.721 24.6471 135.973 24.5566 136.171 24.3735C136.371 24.1904 136.47 23.9662 136.47 23.7009C136.47 23.4438 136.371 23.2298 136.171 23.057C135.97 22.8842 135.721 22.7979 135.42 22.7979C135.118 22.7979 134.867 22.8884 134.669 23.0714C134.662 23.0776 134.658 23.0838 134.651 23.0879V24.3653Z" fill="#092447"/>
<path d="M11.2796 40.4033C9.42509 39.3367 7.71054 37.9767 6.18931 36.3488C2.12691 32.0051 -0.0702805 26.2694 0.00171478 20.2017C0.07371 14.1327 2.40556 8.457 6.56928 4.21857C7.99452 2.76798 9.57841 1.54404 11.2796 0.56543V5.27451C10.5623 5.81448 9.87973 6.41445 9.23577 7.06908C5.80267 10.5636 3.87879 15.2446 3.82013 20.251C3.76147 25.2574 5.57335 29.9852 8.92246 33.5676C9.65708 34.3529 10.4464 35.0636 11.2796 35.6929V31.1638C8.67981 28.3039 7.27457 24.5588 7.32123 20.599C7.36523 16.7632 8.76913 13.1648 11.2796 10.4049V30.9411C11.317 30.9825 11.3543 31.0225 11.3916 31.0638C14.1061 33.9436 17.7419 35.5569 21.6296 35.6075C21.6909 35.6089 21.7536 35.6089 21.8149 35.6089C25.6334 35.6089 29.2344 34.093 31.9729 31.3278C34.7554 28.5173 36.314 24.7548 36.362 20.731C36.41 16.7072 34.9407 12.9061 32.2262 10.0263C29.5118 7.14507 25.876 5.53183 21.9896 5.4825C21.9283 5.48116 21.8656 5.48116 21.8043 5.48116C17.9859 5.48116 14.3848 6.99708 11.6463 9.76227C11.521 9.88893 11.3996 10.0183 11.2796 10.1476V5.3945C14.3288 3.11329 17.9792 1.88536 21.8029 1.88536C21.8789 1.88536 21.9549 1.88669 22.0323 1.88669C26.8466 1.94802 31.3516 3.94658 34.7141 7.51439C38.0765 11.0822 39.8964 15.7913 39.8364 20.775C39.7764 25.7587 37.8459 30.4198 34.3994 33.901C30.953 37.3821 26.404 39.2607 21.587 39.202C17.8312 39.154 14.2634 37.9274 11.2796 35.6955V40.4033Z" fill="url(#paint0_linear_1321_9823)"/>
<defs>
<linearGradient id="paint0_linear_1321_9823" x1="-7.36271e-05" y1="20.6984" x2="32.9095" y2="5.59845" gradientUnits="userSpaceOnUse">
<stop stop-color="#E2A4E4"/>
<stop offset="1" stop-color="#42E3DE"/>
</linearGradient>
</defs>
</svg>
