<svg width="25" height="24" viewBox="0 0 25 24" fill="none" xmlns="http://www.w3.org/2000/svg">
<path d="M8.55428 20.535C6.53212 20.535 4.70906 19.3169 3.93508 17.4488C3.1611 15.5806 3.58861 13.4301 5.01828 12L7.14028 9.87802L8.55428 11.292L6.43328 13.413C5.67534 14.171 5.37933 15.2757 5.65675 16.311C5.93418 17.3464 6.74289 18.1551 7.77825 18.4325C8.81362 18.71 9.91834 18.414 10.6763 17.656L12.7973 15.535L14.2113 16.95L12.0903 19.071C11.1543 20.0116 9.88113 20.5387 8.55428 20.535ZM9.26128 16.242L7.84728 14.828L14.9183 7.75702L16.3323 9.17102L9.26228 16.241L9.26128 16.242ZM17.0403 14.121L15.6253 12.707L17.7463 10.586C18.5145 9.83035 18.8185 8.72069 18.5425 7.679C18.2666 6.63732 17.4531 5.82367 16.4115 5.54746C15.3699 5.27126 14.2601 5.57494 13.5043 6.34302L11.3823 8.46402L9.96828 7.05002L12.0903 4.92802C14.0454 2.98999 17.1993 2.99689 19.1458 4.94347C21.0924 6.89005 21.0993 10.0439 19.1613 11.999L17.0403 14.12V14.121Z" fill="#1D2B49"/>
</svg>
