<svg width="25" height="24" viewBox="0 0 25 24" fill="none" xmlns="http://www.w3.org/2000/svg">
<path d="M8.55477 20.535C6.5326 20.535 4.70954 19.3169 3.93557 17.4488C3.16159 15.5806 3.5891 13.4301 5.01877 12L7.14077 9.87802L8.55477 11.292L6.43377 13.413C5.67583 14.171 5.37982 15.2757 5.65724 16.311C5.93467 17.3464 6.74338 18.1551 7.77874 18.4325C8.81411 18.71 9.91883 18.414 10.6768 17.656L12.7978 15.535L14.2118 16.95L12.0908 19.071C11.1548 20.0116 9.88162 20.5387 8.55477 20.535ZM9.26177 16.242L7.84777 14.828L14.9188 7.75702L16.3328 9.17102L9.26277 16.241L9.26177 16.242ZM17.0408 14.121L15.6258 12.707L17.7468 10.586C18.515 9.83035 18.819 8.72069 18.543 7.679C18.267 6.63732 17.4536 5.82367 16.412 5.54746C15.3704 5.27126 14.2606 5.57494 13.5048 6.34302L11.3828 8.46402L9.96877 7.05002L12.0908 4.92802C14.0458 2.98999 17.1997 2.99689 19.1463 4.94347C21.0929 6.89005 21.0998 10.0439 19.1618 11.999L17.0408 14.12V14.121Z" fill="white"/>
</svg>
