<svg width="25" height="24" viewBox="0 0 25 24" fill="none" xmlns="http://www.w3.org/2000/svg">
<path d="M2.09131 12.002C2.09247 16.9214 5.66971 21.1101 10.5283 21.881V14.892H7.99131V12.002H10.5313V9.80204C10.4178 8.75958 10.7738 7.72064 11.5029 6.96698C12.2321 6.21332 13.2587 5.82306 14.3043 5.90204C15.0548 5.91417 15.8035 5.98101 16.5443 6.10205V8.56104H15.2803C14.8452 8.50405 14.4077 8.64777 14.0911 8.95171C13.7745 9.25566 13.6131 9.68693 13.6523 10.124V12.002H16.4233L15.9803 14.893H13.6523V21.881C18.9068 21.0506 22.5914 16.2518 22.0368 10.9611C21.4822 5.67041 16.8826 1.73997 11.5701 2.01722C6.25767 2.29447 2.09215 6.68235 2.09131 12.002Z" fill="#1D2B49"/>
</svg>
