<svg width="25" height="24" viewBox="0 0 25 24" fill="none" xmlns="http://www.w3.org/2000/svg">
<path d="M2.0918 12.002C2.09296 16.9214 5.6702 21.1101 10.5288 21.881V14.892H7.9918V12.002H10.5318V9.80204C10.4182 8.75958 10.7743 7.72064 11.5034 6.96698C12.2326 6.21332 13.2591 5.82306 14.3048 5.90204C15.0553 5.91417 15.804 5.98101 16.5448 6.10205V8.56104H15.2808C14.8456 8.50405 14.4082 8.64777 14.0916 8.95171C13.775 9.25566 13.6136 9.68693 13.6528 10.124V12.002H16.4238L15.9808 14.893H13.6528V21.881C18.9073 21.0506 22.5919 16.2518 22.0373 10.9611C21.4827 5.67041 16.8831 1.73997 11.5706 2.01722C6.25816 2.29447 2.09264 6.68235 2.0918 12.002Z" fill="white"/>
</svg>
