<svg width="25" height="24" viewBox="0 0 25 24" fill="none" xmlns="http://www.w3.org/2000/svg">
<path d="M13.0894 21H9.08936V9H13.0894V11C13.942 9.91525 15.235 9.26857 16.6144 9.237C19.0949 9.25077 21.0966 11.2694 21.0894 13.75V21H17.0894V14.25C16.9294 13.1326 15.9711 12.3036 14.8424 12.306C14.3486 12.3216 13.8826 12.5378 13.5518 12.9046C13.221 13.2715 13.054 13.7573 13.0894 14.25V21ZM7.08936 21H3.08936V9H7.08936V21ZM5.08936 7C3.98479 7 3.08936 6.10457 3.08936 5C3.08936 3.89543 3.98479 3 5.08936 3C6.19392 3 7.08936 3.89543 7.08936 5C7.08936 5.53043 6.87864 6.03914 6.50357 6.41421C6.1285 6.78929 5.61979 7 5.08936 7Z" fill="#1D2B49"/>
</svg>
