<svg width="25" height="24" viewBox="0 0 25 24" fill="none" xmlns="http://www.w3.org/2000/svg">
<path d="M13.0898 21H9.08984V9H13.0898V11C13.9425 9.91525 15.2355 9.26857 16.6148 9.237C19.0954 9.25077 21.097 11.2694 21.0899 13.75V21H17.0898V14.25C16.9299 13.1326 15.9716 12.3036 14.8428 12.306C14.3491 12.3216 13.8831 12.5378 13.5523 12.9046C13.2215 13.2715 13.0545 13.7573 13.0898 14.25V21ZM7.08984 21H3.08984V9H7.08984V21ZM5.08984 7C3.98527 7 3.08984 6.10457 3.08984 5C3.08984 3.89543 3.98527 3 5.08984 3C6.19441 3 7.08984 3.89543 7.08984 5C7.08984 5.53043 6.87913 6.03914 6.50406 6.41421C6.12898 6.78929 5.62028 7 5.08984 7Z" fill="white"/>
</svg>
