<svg width="25" height="24" viewBox="0 0 25 24" fill="none" xmlns="http://www.w3.org/2000/svg">
<path d="M20.0844 6.68799C20.9808 6.15208 21.6515 5.30823 21.9714 4.31399C21.129 4.81379 20.2074 5.16587 19.2464 5.35499C17.914 3.94552 15.8029 3.60251 14.0928 4.51764C12.3827 5.43277 11.4969 7.37948 11.9304 9.26999C8.47998 9.09676 5.26534 7.4669 3.08637 4.78599C1.94921 6.74741 2.53032 9.25477 4.41437 10.516C3.73308 10.4941 3.0669 10.3096 2.47137 9.97799C2.47137 9.99599 2.47137 10.014 2.47137 10.032C2.47177 12.0751 3.91174 13.8351 5.91437 14.24C5.28244 14.4119 4.61958 14.4372 3.97637 14.314C4.53957 16.0613 6.14992 17.2583 7.98537 17.294C6.4652 18.4871 4.58785 19.1342 2.65537 19.131C2.31284 19.1315 1.97058 19.1118 1.63037 19.072C3.59276 20.333 5.87674 21.0023 8.20937 21C11.4546 21.0223 14.5734 19.7429 16.8681 17.448C19.1628 15.1531 20.4419 12.0342 20.4194 8.78899C20.4194 8.60299 20.415 8.41799 20.4064 8.23399C21.2468 7.62659 21.9722 6.87414 22.5484 6.01199C21.7654 6.35905 20.9348 6.58691 20.0844 6.68799Z" fill="#1D2B49"/>
</svg>
