<svg width="25" height="24" viewBox="0 0 25 24" fill="none" xmlns="http://www.w3.org/2000/svg">
<path d="M20.0849 6.68799C20.9813 6.15208 21.652 5.30823 21.9719 4.31399C21.1295 4.81379 20.2079 5.16587 19.2469 5.35499C17.9144 3.94552 15.8034 3.60251 14.0933 4.51764C12.3831 5.43277 11.4974 7.37948 11.9309 9.26999C8.48047 9.09676 5.26583 7.4669 3.08686 4.78599C1.9497 6.74741 2.53081 9.25477 4.41486 10.516C3.73357 10.4941 3.06739 10.3096 2.47186 9.97799C2.47186 9.99599 2.47186 10.014 2.47186 10.032C2.47225 12.0751 3.91223 13.8351 5.91486 14.24C5.28292 14.4119 4.62007 14.4372 3.97686 14.314C4.54006 16.0613 6.15041 17.2583 7.98586 17.294C6.46569 18.4871 4.58834 19.1342 2.65586 19.131C2.31333 19.1315 1.97107 19.1118 1.63086 19.072C3.59325 20.333 5.87723 21.0023 8.20986 21C11.4551 21.0223 14.5739 19.7429 16.8686 17.448C19.1633 15.1531 20.4424 12.0342 20.4199 8.78899C20.4199 8.60299 20.4155 8.41799 20.4069 8.23399C21.2473 7.62659 21.9727 6.87414 22.5489 6.01199C21.7659 6.35905 20.9353 6.58691 20.0849 6.68799Z" fill="white"/>
</svg>
